<svg xmlns="http://www.w3.org/2000/svg" xmlns:xlink="http://www.w3.org/1999/xlink" width="132.694" height="23.455" viewBox="0 0 132.694 23.455">
  <defs>
    <linearGradient id="linear-gradient" y1="0.5" x2="1" y2="0.5" gradientUnits="objectBoundingBox">
      <stop offset="0" stop-color="#ff6d5c"/>
      <stop offset="1" stop-color="#f86453"/>
    </linearGradient>
  </defs>
  <g id="Logo" transform="translate(-68.003 -471.769)">
    <g id="Grupo_4" data-name="Grupo 4" transform="translate(94.819 477.884)">
      <path id="Trazado_14" data-name="Trazado 14" d="M270.8,518.856h0a1.252,1.252,0,0,1-1.641.07,5.2,5.2,0,0,0-3.293-1.188,4.482,4.482,0,0,0-4.545,4.544,4.781,4.781,0,0,0,.581,2.377,4.171,4.171,0,0,0,1.645,1.63,4.774,4.774,0,0,0,2.363.592,4.871,4.871,0,0,0,2.027-.414,5.576,5.576,0,0,0,1.161-.736,1.252,1.252,0,0,1,1.69.1h0a1.244,1.244,0,0,1-.111,1.828,7.814,7.814,0,0,1-1.8,1.112,7.654,7.654,0,0,1-3.012.56,6.934,6.934,0,0,1-5.108-1.979,6.851,6.851,0,0,1-1.988-5.072,6.942,6.942,0,0,1,.905-3.557,6.727,6.727,0,0,1,2.593-2.5,7.308,7.308,0,0,1,3.634-.946A7.732,7.732,0,0,1,270.751,517,1.244,1.244,0,0,1,270.8,518.856Z" transform="translate(-258.774 -515.273)" fill="#3d408f"/>
      <path id="Trazado_15" data-name="Trazado 15" d="M366.618,540.645a5.246,5.246,0,0,1,2.634.7,5.085,5.085,0,0,1,2.193,2.435,4.98,4.98,0,0,1,.408,1.649,5.236,5.236,0,0,1-.681,3.03,5.021,5.021,0,0,1-1.9,1.906,5.223,5.223,0,0,1-2.58.687,5.165,5.165,0,0,1-3.7-1.514,5.247,5.247,0,0,1,.2-7.547A4.97,4.97,0,0,1,366.618,540.645Zm.041,2.338a2.556,2.556,0,0,0-1.928.805,2.859,2.859,0,0,0-.77,2.061,2.91,2.91,0,0,0,.761,2.092,2.545,2.545,0,0,0,1.927.8,2.575,2.575,0,0,0,1.941-.81,3.192,3.192,0,0,0,.014-4.153A2.574,2.574,0,0,0,366.659,542.983Z" transform="translate(-347.049 -537.079)" fill="#3d408f"/>
      <path id="Trazado_16" data-name="Trazado 16" d="M449.64,540.9h2.484v1.137a4.243,4.243,0,0,1,1.416-1.046,4.139,4.139,0,0,1,1.7-.346,3.158,3.158,0,0,1,1.675.455,3.291,3.291,0,0,1,1.2,1.329,4.012,4.012,0,0,1,1.452-1.329,3.961,3.961,0,0,1,1.88-.455,3.483,3.483,0,0,1,1.857.491,2.838,2.838,0,0,1,1.152,1.283,6.856,6.856,0,0,1,.35,2.575v4.553a1.251,1.251,0,0,1-1.251,1.251h0a1.251,1.251,0,0,1-1.251-1.251v-3.771a4.3,4.3,0,0,0-.418-2.279,1.434,1.434,0,0,0-1.256-.6,1.906,1.906,0,0,0-1.142.364,2.15,2.15,0,0,0-.751,1.005,6.259,6.259,0,0,0-.245,2.061v3.216a1.251,1.251,0,0,1-1.251,1.251h0a1.251,1.251,0,0,1-1.251-1.251V546a6.747,6.747,0,0,0-.2-1.924,1.742,1.742,0,0,0-.588-.887,1.549,1.549,0,0,0-.952-.291,1.894,1.894,0,0,0-.938.249,2.149,2.149,0,0,0-.941,1.152,6.376,6.376,0,0,0-.251,2.092v3.162a1.242,1.242,0,0,1-1.242,1.242h0a1.242,1.242,0,0,1-1.242-1.242Z" transform="translate(-422.811 -537.079)" fill="#3d408f"/>
      <path id="Trazado_17" data-name="Trazado 17" d="M576.825,540.9v1.092a4.669,4.669,0,0,1,1.455-1.01,4.192,4.192,0,0,1,1.674-.337,4.321,4.321,0,0,1,3.293,1.465,5.313,5.313,0,0,1,1.356,3.757,5.186,5.186,0,0,1-1.4,3.7,4.413,4.413,0,0,1-3.32,1.487,4.123,4.123,0,0,1-1.592-.3,4.852,4.852,0,0,1-1.465-1v3.434a1.233,1.233,0,0,1-1.233,1.233h0a1.233,1.233,0,0,1-1.233-1.233V540.9Zm2.611,2.038a2.593,2.593,0,0,0-1.947.8,2.885,2.885,0,0,0-.773,2.093,2.969,2.969,0,0,0,.773,2.133,2.689,2.689,0,0,0,3.661.182,3.218,3.218,0,0,0,.215-4.394A2.532,2.532,0,0,0,579.435,542.938Z" transform="translate(-529.998 -537.079)" fill="#3d408f"/>
      <path id="Trazado_18" data-name="Trazado 18" d="M663.055,542.457h0a1.255,1.255,0,0,1,1.255,1.256v3.512a6.6,6.6,0,0,0,.192,1.933,1.687,1.687,0,0,0,.616.842,1.762,1.762,0,0,0,1.044.3,1.825,1.825,0,0,0,1.053-.3,1.735,1.735,0,0,0,.643-.869,6.667,6.667,0,0,0,.155-1.828V543.7a1.242,1.242,0,0,1,1.242-1.242h0A1.242,1.242,0,0,1,670.5,543.7v2.952a10.285,10.285,0,0,1-.409,3.548,3.869,3.869,0,0,1-1.474,1.788,4.514,4.514,0,0,1-2.475.623,4.39,4.39,0,0,1-2.634-.728,3.843,3.843,0,0,1-1.415-2.029,12.283,12.283,0,0,1-.292-3.275v-2.866A1.256,1.256,0,0,1,663.055,542.457Z" transform="translate(-605.147 -538.636)" fill="#3d408f"/>
      <path id="Trazado_19" data-name="Trazado 19" d="M746.953,540.9h1.3v1.447a4.572,4.572,0,0,1,1.228-1.279,2.424,2.424,0,0,1,1.346-.423,2.326,2.326,0,0,1,1.128.337l-.664,1.074a1.774,1.774,0,0,0-.673-.173,1.841,1.841,0,0,0-1.228.523,3.3,3.3,0,0,0-.9,1.624,15.553,15.553,0,0,0-.237,3.421v2.7a.65.65,0,0,1-.651.65h0a.65.65,0,0,1-.65-.65Z" transform="translate(-678.332 -537.079)" fill="#3d408f"/>
      <path id="Trazado_20" data-name="Trazado 20" d="M803.957,547.779h0a.626.626,0,0,1,.238.884,5.328,5.328,0,0,1-.889,1.089,4.847,4.847,0,0,1-1.557.969,5.439,5.439,0,0,1-1.958.332A4.73,4.73,0,0,1,796,549.465a5.355,5.355,0,0,1-1.366-3.589,5.291,5.291,0,0,1,1.156-3.357,4.728,4.728,0,0,1,3.925-1.874,4.883,4.883,0,0,1,4.043,1.92,5.361,5.361,0,0,1,1.093,3.384h-8.907a4.03,4.03,0,0,0,1.1,2.828,3.516,3.516,0,0,0,2.632,1.1,4.224,4.224,0,0,0,1.471-.263,3.86,3.86,0,0,0,1.216-.7,4.8,4.8,0,0,0,.784-.933A.623.623,0,0,1,803.957,547.779Zm-.5-2.931a4.221,4.221,0,0,0-.742-1.628,3.6,3.6,0,0,0-1.458-1.057,3.9,3.9,0,0,0-1.4-.3,3.652,3.652,0,0,0-2.627.935,4.234,4.234,0,0,0-1.156,2.047Z" transform="translate(-719.313 -537.079)" fill="#3d408f"/>
      <path id="Trazado_21" data-name="Trazado 21" d="M892.022,540.9H893.3v1.774a5.329,5.329,0,0,1,1.692-1.524,4.164,4.164,0,0,1,2.02-.5,3.507,3.507,0,0,1,1.969.564,3.359,3.359,0,0,1,1.269,1.519,8.032,8.032,0,0,1,.409,2.975v4.458a.637.637,0,0,1-.637.637h0a.637.637,0,0,1-.637-.637v-4.085a11.641,11.641,0,0,0-.142-2.284,2.51,2.51,0,0,0-.849-1.478,2.564,2.564,0,0,0-1.638-.5,3.14,3.14,0,0,0-2.07.764,3.579,3.579,0,0,0-1.206,1.892,13.178,13.178,0,0,0-.182,2.693v2.993a.637.637,0,0,1-.637.637h0a.637.637,0,0,1-.637-.637Z" transform="translate(-803.009 -537.079)" fill="#3d408f"/>
      <path id="Trazado_22" data-name="Trazado 22" d="M977.945,516.309h1.274v3.675h2.02v1.1h-2.02v8.16a.637.637,0,0,1-.637.637h0a.637.637,0,0,1-.637-.637v-8.16h-1.738v-1.1h1.738Z" transform="translate(-875.36 -516.164)" fill="#3d408f"/>
    </g>
    <path id="Trazado_23" data-name="Trazado 23" d="M90.995,475.5a4.049,4.049,0,0,0-1.249-.175,5.511,5.511,0,0,0-4.667,2.513c-1.233,1.9-.759,3.011-1.012,5.324a4.764,4.764,0,0,1-.172.732s-.057.178-.208.58a2.042,2.042,0,0,1-.15.331,5.937,5.937,0,0,1-2.837,2.838,6.057,6.057,0,0,1-2.284.574c-.1.005-.21.008-.317.008a5.686,5.686,0,0,1-3.817-1.346,6.077,6.077,0,0,1-2.271-4.676c0-.022,0-.045,0-.068a6.086,6.086,0,0,1,5.566-6.066l0,.012a6.031,6.031,0,0,1,3.266.675c.034.02.069.04.1.058l.007,0h0a2.159,2.159,0,0,0,2.083-3.781l0-.006a10.021,10.021,0,0,0-3.965-1.212c-.07-.01-.116-.014-.124-.015-.28-.023-.563-.038-.85-.038A10.1,10.1,0,1,0,87.813,484.7c.641-2.212.066-3.145,1.058-4.29a2.525,2.525,0,0,1,1.576-.847,2.108,2.108,0,0,0,.547-4.055Z" fill="url(#linear-gradient)"/>
  </g>
</svg>
