<svg xmlns="http://www.w3.org/2000/svg" xmlns:xlink="http://www.w3.org/1999/xlink" width="1071.045" height="870.993" viewBox="0 0 1071.045 870.993">
  <defs>
    <linearGradient id="linear-gradient" y1="0.5" x2="1" y2="0.5" gradientUnits="objectBoundingBox">
      <stop offset="0" stop-color="#ff6d5c"/>
      <stop offset="1" stop-color="#f86453"/>
    </linearGradient>
  </defs>
  <path id="Trazado_1016" data-name="Trazado 1016" d="M1080.424,632.9c-17.083-6.669-45.259-7.549-55.008-7.542-85.882,0-161.433,41.746-205.5,108.387-54.29,82.1-33.424,129.888-44.559,229.641-1.059,9.448-3.021,14.8-7.564,31.561,0,0-2.5,7.687-9.16,25.034-3.385,8.809-2.377,5.894-6.6,14.263-11.544,22.88-25.365,44.953-42.907,63.463a270.519,270.519,0,0,1-82.038,58.936,271.121,271.121,0,0,1-100.551,24.775c-4.611.231-9.254.351-13.964.351-75.9,0-129.8-26.133-168.056-58.051a264.2,264.2,0,0,1-77.383-98.836A257.078,257.078,0,0,1,244.5,922c-.012-.971-.074-1.936-.074-2.912a258.374,258.374,0,0,1,35.324-130.246,263.783,263.783,0,0,1,38.06-50.2,266.39,266.39,0,0,1,82.558-58.116,270.87,270.87,0,0,1,89.15-23.083l-.081.5c69.417-6.524,127.118,20.326,143.836,29.1,1.5.88,3.04,1.709,4.593,2.509l.309.189.012-.023a96.193,96.193,0,0,0,43.836,10.495c52.507,0,95.073-41.7,95.073-93.132,0-34.331-18.977-64.3-47.2-80.455l.148-.266c-66.873-37.077-134.359-48.712-174.574-52.284-3.094-.448-5.094-.611-5.478-.654-12.348-1.013-24.8-1.655-37.417-1.655C267.044,471.77,68,666.753,68,907.265s199.042,435.5,444.574,435.5c242.481,0,386.36-173.5,427.756-313.412,28.231-95.4,2.928-135.66,46.578-185.032,15.963-18.065,42.925-34.3,69.411-36.519,30.342-2.542,80.658-31.28,82.682-87.64C1140.068,690.394,1121.926,649.1,1080.424,632.9Z" transform="translate(-68.003 -471.77)" fill="url(#linear-gradient)"/>
</svg>
