<?xml version="1.0" encoding="utf-8"?>
<!-- Generator: Adobe Illustrator 27.1.1, SVG Export Plug-In . SVG Version: 6.00 Build 0)  -->
<svg version="1.1" id="Capa_1" xmlns="http://www.w3.org/2000/svg" xmlns:xlink="http://www.w3.org/1999/xlink" x="0px" y="0px"
	 viewBox="0 0 144.85 59.72" style="enable-background:new 0 0 144.85 59.72;" xml:space="preserve">
<style type="text/css">
	.st0{fill-rule:evenodd;clip-rule:evenodd;fill:#D3D3D3;}
	.st1{fill:#D3D3D3;}
</style>
<g>
	<path class="st0" d="M143.89,25.39c-2.65-0.18-5.46-0.26-9.57-0.26c-0.57,6.29-0.88,12.63-1.02,21.65h-11.7
		c0.84-7.17,1.28-14.34,1.32-21.65c-6.8,0-8.1,0.18-9.56,0.26l0.4-7.97h30.53L143.89,25.39z M98.75,46.77
		c0.57-8.45,1.33-16.5,1.33-29.35H112c-0.75,9.55-1.28,16.15-1.28,29.35H98.75z M97.77,25.3c-2.78-0.13-5.88-0.18-8.66-0.18h-6.1
		l-0.22,2.92c3.96,0,8.23,0.07,12.19,0l-0.49,7.9H82.43c-0.12,3.6-0.23,7.21-0.27,10.82H70.03c0.79-5.41,1.85-21.82,1.72-29.35
		h26.42L97.77,25.3z M56.47,46.77h12.1c-3.84-9.68-7.46-19.49-10.86-29.35H43.97c-3.89,8.18-12.01,23.06-15.77,29.35h12.59
		l3.47-7.71h9.72C54.88,41.6,55.81,44.16,56.47,46.77z M50.29,25.34l2.04,6.75h-5.12L50.29,25.34z M28.15,25.3
		c-2.78-0.13-5.88-0.18-8.66-0.18h-6.09l-0.22,2.92c3.97,0,7.92,0.07,11.88,0l-0.49,7.9H12.59l-0.22,3.12
		c5.05,0,10.07-0.13,15.1-0.4l-0.41,8.1H0.4c1.39-9.49,1.89-19.76,1.72-29.35h26.42L28.15,25.3z"/>
	<path class="st1" d="M138.53,48.9h1.39c0.29,0,0.53-0.03,0.69-0.09c0.17-0.06,0.29-0.16,0.38-0.29c0.09-0.13,0.13-0.28,0.13-0.44
		c0-0.23-0.08-0.42-0.25-0.57c-0.17-0.15-0.43-0.22-0.8-0.22h-1.54V48.9z M137.89,51.63v-4.88h2.16c0.44,0,0.77,0.04,0.99,0.13
		c0.23,0.09,0.41,0.24,0.54,0.46c0.14,0.22,0.2,0.47,0.2,0.74c0,0.35-0.11,0.64-0.34,0.88c-0.22,0.24-0.57,0.39-1.04,0.45
		c0.17,0.08,0.3,0.16,0.39,0.24c0.19,0.17,0.37,0.39,0.54,0.65l0.85,1.33h-0.81l-0.65-1.02c-0.19-0.29-0.34-0.52-0.47-0.67
		c-0.12-0.16-0.23-0.27-0.33-0.33c-0.1-0.06-0.2-0.11-0.29-0.13c-0.07-0.02-0.19-0.02-0.36-0.02h-0.75v2.17H137.89z"/>
	<path class="st1" d="M139.71,45.3L139.71,45.3L139.71,45.3L139.71,45.3L139.71,45.3c-1.07,0-2.04,0.44-2.74,1.13l0,0
		c-0.7,0.7-1.14,1.67-1.14,2.74h0v0v0.01h0c0,1.07,0.43,2.03,1.13,2.73h0c0.7,0.7,1.67,1.14,2.74,1.14v0h0h0.01v0
		c1.07,0,2.03-0.43,2.73-1.13c0.7-0.7,1.13-1.67,1.13-2.74l0,0v0v-0.01l0,0c0-1.07-0.43-2.03-1.13-2.73v0
		C141.75,45.74,140.78,45.31,139.71,45.3 M139.71,44.6L139.71,44.6L139.71,44.6c1.27,0,2.41,0.51,3.24,1.34h0
		c0.83,0.82,1.34,1.97,1.34,3.23h0v0.01v0h0c0,1.26-0.51,2.41-1.34,3.23c-0.82,0.82-1.97,1.34-3.23,1.34v0h-0.01h0v0
		c-1.26,0-2.41-0.51-3.23-1.34v0c-0.83-0.83-1.34-1.97-1.34-3.23h0v-0.01v0h0c0-1.26,0.51-2.41,1.34-3.23h0
		C137.3,45.12,138.45,44.61,139.71,44.6L139.71,44.6L139.71,44.6z"/>
	<path class="st0" d="M71.26,54.14c24.95,0.26,49.24,2.03,71.1,4.86l0.11-2.44c-21.96-2.78-46.23-4.41-71.21-4.68
		c-24.98,0.27-49.21,1.9-71.17,4.68L0,59C23.63,55.99,47.44,54.38,71.26,54.14"/>
	<path class="st0" d="M138.83,12.53c1.86,0,3.35-0.65,4.38-1.77c1.07-1.16,1.65-2.83,1.65-4.81c0-1.81-0.48-3.22-1.35-4.17
		c-0.88-0.96-2.17-1.47-3.78-1.47h-7.27c0,3.38-0.1,5.96-0.22,7.97c-0.11,1.87-0.25,3.23-0.35,4.26H138.83z M136.7,3.21
		c0.17-0.03,0.33-0.05,0.49-0.06c0.16-0.01,0.32-0.02,0.49-0.02c0.94,0,1.62,0.25,2.09,0.74c0.46,0.49,0.68,1.2,0.68,2.14
		c0,1.47-0.37,2.39-0.97,2.95c-0.6,0.57-1.4,0.75-2.25,0.75c-0.13,0-0.26-0.01-0.4-0.02c-0.12-0.01-0.26-0.02-0.39-0.05l-0.22-0.03
		l0.01-0.23l0.26-5.92l0.01-0.21L136.7,3.21z M125.18,9.75L125.18,9.75L125.18,9.75c0.32,0.92,0.64,1.84,0.88,2.77h4.57
		c-0.76-1.96-1.5-3.94-2.22-5.93c-0.76-2.1-1.49-4.2-2.2-6.29h-5.5c-0.76,1.63-1.88,3.82-3.02,5.99c-1.26,2.39-2.54,4.73-3.4,6.23
		h4.74l1.23-2.79l0.07-0.15h0.16h4.45h0.18L125.18,9.75z M121.62,6.49l1.35-3.08l0.02-0.04l0.03-0.03l0.04-0.04l0.3-0.31l0.12,0.42
		l0.92,3.11l0.1,0.33h-0.34h-2.31h-0.39L121.62,6.49z M108.74,12.53c1.87,0,3.35-0.65,4.38-1.77c1.07-1.16,1.65-2.83,1.65-4.81
		c0-1.81-0.48-3.22-1.35-4.17c-0.88-0.96-2.17-1.47-3.78-1.47h-7.27c0,3.38-0.1,5.96-0.22,7.97c-0.11,1.87-0.25,3.23-0.36,4.26
		H108.74z M106.61,3.21c0.17-0.03,0.33-0.05,0.49-0.06c0.16-0.01,0.32-0.02,0.49-0.02c0.94,0,1.63,0.25,2.09,0.74
		c0.46,0.49,0.68,1.2,0.68,2.14c0,1.47-0.37,2.39-0.97,2.95c-0.6,0.57-1.4,0.75-2.25,0.75c-0.13,0-0.26-0.01-0.4-0.02
		c-0.12-0.01-0.26-0.02-0.39-0.05l-0.22-0.03l0.01-0.23l0.26-5.92l0.01-0.21L106.61,3.21z M94.91,11.08
		c-0.03,0.49-0.07,0.98-0.1,1.45h4.56c0.01-5.44,0.22-8.28,0.52-12.22h-4.54C95.35,4.87,95.12,8.04,94.91,11.08z M91.45,3.11
		c0.37,0.08,0.74,0.2,1.09,0.33l-0.23-3.08c-0.55-0.11-1.11-0.2-1.68-0.26C90.06,0.03,89.48,0,88.89,0c-1.65,0-2.81,0.37-3.58,0.92
		C84.37,1.59,84,2.54,84,3.41c0,1.76,1.49,2.91,2.64,3.8c0.81,0.63,1.47,1.14,1.47,1.74c0,0.83-1.17,0.83-1.68,0.83
		c-0.58,0-1.26-0.14-1.92-0.32c-0.5-0.14-0.99-0.31-1.42-0.47l0.29,3.32c0.59,0.09,1.25,0.18,1.91,0.26
		c0.74,0.08,1.48,0.15,2.13,0.15c1.75,0,2.96-0.4,3.75-0.99c0.99-0.74,1.34-1.79,1.34-2.75c0-1.49-1.44-2.59-2.59-3.45
		c-0.83-0.63-1.52-1.16-1.52-1.74c0-0.44,0.34-0.66,0.74-0.76l0,0c0.32-0.08,0.69-0.09,0.89-0.09C90.5,2.94,90.98,3,91.45,3.11z
		 M73.58,8.04c0.05-1.59,0.13-3.18,0.23-4.76l0.02-0.24h0.24h1.13h0.05v0c1.08,0,2.27,0,2.27,1.25c0,0.57-0.26,0.96-0.63,1.21
		C76.42,5.8,75.79,5.9,75.25,5.9c-0.14,0-0.28-0.01-0.42-0.02l-0.03,0c0.29,1.06,0.55,2.14,0.81,3.22c0.27,1.15,0.53,2.29,0.79,3.43
		h4.56c-0.18-0.51-0.36-1.03-0.55-1.55c-0.42-1.18-0.84-2.36-1.21-3.57l-0.07-0.22l0.21-0.09c0.78-0.35,1.37-0.81,1.76-1.41
		c0.38-0.57,0.58-1.27,0.58-2.1c0-1.53-0.75-2.35-1.69-2.78c-0.97-0.45-2.15-0.5-2.92-0.5h-7.24c0,2.04-0.03,4.08-0.12,6.14
		c-0.09,2.03-0.24,4.06-0.48,6.09h4.25C73.5,11.03,73.53,9.53,73.58,8.04z M65.78,3.15c0.51,0.01,1.02,0.03,1.52,0.05l0.16-2.89
		H56.88c0.01,1.57-0.07,3.88-0.2,6.13c-0.14,2.42-0.33,4.78-0.5,6.1h10.61l0.19-2.98c-0.76,0.04-1.48,0.08-2.34,0.11
		c-0.98,0.03-2.11,0.05-3.65,0.05h-0.27l0.02-0.28l0.09-1.36l0.02-0.24h0.24h4.85l0.18-2.9c-0.32,0.01-0.64,0.02-0.96,0.03
		C64.5,4.98,63.86,5,63.26,5h-1.93h-0.27l0.02-0.28l0.09-1.36l0.02-0.24h0.24h2.59C64.57,3.13,65.16,3.13,65.78,3.15z M44.08,12.53
		h5.14L55.28,0.3h-4.5c-0.5,1.31-1.07,2.61-1.64,3.89c-0.6,1.36-1.2,2.72-1.71,4.1c-0.16,0.42-0.32,0.83-0.49,1.24
		c-0.12-0.4-0.23-0.79-0.33-1.19c-0.34-1.47-0.77-2.94-1.2-4.42c-0.35-1.21-0.7-2.42-1.01-3.63h-4.48c0.27,0.8,0.59,1.7,0.91,2.61
		C41.95,6.11,43.07,9.31,44.08,12.53z M33.28,11.07c-0.03,0.49-0.07,0.98-0.1,1.45h4.63c0.01-5.44,0.22-8.28,0.53-12.22h-4.61
		C33.71,4.87,33.49,8.03,33.28,11.07z M17.79,6.25c-0.14,2.55-0.33,4.87-0.48,6.28h3.91c0.02-2.3,0.11-4.12,0.17-5.41
		c0.02-0.53,0.05-0.97,0.06-1.31l0.01-0.25l0-0.66c0.45,0.7,0.78,1.42,1.14,2.18c0.69,1.47,1.45,2.95,2.22,4.43
		c0.15,0.29,0.3,0.57,0.53,1.02h5.35c0.06-2.05,0.15-4.09,0.27-6.13c0.12-2.02,0.27-4.06,0.45-6.1h-4.04
		c-0.01,1.11-0.04,2.21-0.08,3.3c-0.04,1.23-0.11,2.43-0.18,3.61l-0.02,0.24l-0.04,0.73c-0.33-0.63-0.63-1.25-0.92-1.9
		c-0.39-0.87-0.79-1.73-1.19-2.6c-0.53-1.12-1.07-2.25-1.64-3.37h-5.34C17.98,2.21,17.9,4.29,17.79,6.25z M7.13,2.92
		C7.2,2.03,7.27,1.13,7.32,0.3H2.95C2.9,2.48,2.76,4.37,2.65,5.94C2.55,7.3,2.47,8.43,2.47,9.31c0,0.94,0.44,1.88,1.57,2.54
		c0.97,0.57,2.45,0.93,4.59,0.93c2.98,0,4.61-0.75,5.51-1.66c0.87-0.89,1.03-1.95,1.04-2.61v0c0.05-2.41,0.39-7.01,0.49-8.2h-4.45
		c-0.04,1.54-0.15,5.18-0.52,7.52c-0.1,0.64-0.25,1.09-0.56,1.39C9.81,9.53,9.36,9.66,8.67,9.66C8,9.66,7.54,9.4,7.26,8.95
		C6.99,8.52,6.88,7.95,6.88,7.3C6.88,6.08,7,4.51,7.13,2.92z"/>
</g>
</svg>
