<svg xmlns="http://www.w3.org/2000/svg" xmlns:xlink="http://www.w3.org/1999/xlink" width="711.808" height="208.321" viewBox="0 0 711.808 208.321">
  <defs>
    <linearGradient id="linear-gradient" y1="0.5" x2="1" y2="0.5" gradientUnits="objectBoundingBox">
      <stop offset="0.307" stop-color="#ccc"/>
      <stop offset="0.886" stop-color="#666"/>
    </linearGradient>
    <linearGradient id="linear-gradient-2" y1="0.5" x2="1" y2="0.5" gradientUnits="objectBoundingBox">
      <stop offset="0.198" stop-color="#666"/>
      <stop offset="0.57" stop-color="#ccc"/>
    </linearGradient>
  </defs>
  <g id="image" transform="translate(0 -4.518)">
    <ellipse id="Elipse_118" data-name="Elipse 118" cx="52.14" cy="7.123" rx="52.14" ry="7.123" transform="translate(175.685 198.593)" fill="#ccc" opacity="0.5"/>
    <ellipse id="Elipse_119" data-name="Elipse 119" cx="52.14" cy="7.123" rx="52.14" ry="7.123" transform="translate(463.451 198.593)" fill="#ccc" opacity="0.5"/>
    <g id="Grupo_2892" data-name="Grupo 2892" transform="translate(0 4.518)">
      <path id="Trazado_2622" data-name="Trazado 2622" d="M880.088,23.5s-2.98-3.487.37-8.6c2.251-3.436,4.656-1.977,4.576-.3S882.892,21.1,880.088,23.5Z" transform="translate(-378.059 -8.085)" fill="#0c232b"/>
      <path id="Trazado_2623" data-name="Trazado 2623" d="M465.106,77.525a19.028,19.028,0,0,0-3.06,1.18c-.085.1-.986.576-.348,2.325.239.655.7,1.3,1.368,1.379a13.4,13.4,0,0,0,2.559-.889,1.5,1.5,0,0,0,.8.61,4.63,4.63,0,0,0,2.667.12c1.259-.222,3-.382,4-1.174s.4-1.276.4-1.276a.894.894,0,0,0,.564-.707,1.232,1.232,0,0,0-.3-.946,1.773,1.773,0,0,0,.5-.917,1.377,1.377,0,0,0-.359-.895s.724-.308.61-.946-1.43-.866-1.812-.849-1.111.063-1.111.063.467-1.248-.046-1.333a11.836,11.836,0,0,1-2.758.593,3.2,3.2,0,0,0-2.581,1.447A11.758,11.758,0,0,0,465.106,77.525Z" transform="translate(-198.51 -34.091)" fill="#f0a5a6"/>
      <g id="Grupo_2882" data-name="Grupo 2882" transform="translate(225.016 187.193)">
        <path id="Trazado_2624" data-name="Trazado 2624" d="M397.552,333.044l-2.672,9.944s2.952,2.029,5.744.382l1.892-8.872A48.826,48.826,0,0,0,397.552,333.044Z" transform="translate(-394.88 -333.023)" fill="#231f20"/>
        <path id="Trazado_2625" data-name="Trazado 2625" d="M403.287,342.47s-.946,2.764.5,3.749,3,.764,5.459.416c3.174-.45,8.092,3.966,1.886,3.618-.917-.051-6-.45-8.388-2.4-1.162-.946-1-3.22-.65-3.858Z" transform="translate(-397.874 -337.087)" fill="#231f20"/>
      </g>
      <path id="Trazado_2626" data-name="Trazado 2626" d="M398.161,148.707c-6.394-6.262-13.482-9.568-20.018-4.291,0,0-1.852,1.5-1.858,1.5-9.5,7.67,16.639,46.88,21.83,53.7,6.6,8.679,19.283,20.628,23.021,14.781,4.336-6.792,3.014-13.585,3.014-14.781,0-9.619-4.3-18.292-8.616-26.087C411.945,167.044,405.517,155.915,398.161,148.707Z" transform="translate(-160.979 -63.567)" fill="#0c232b"/>
      <path id="Trazado_2627" data-name="Trazado 2627" d="M402.984,302.913c4.98-5.442,14.793-17.79,20.622-28.765a.565.565,0,0,0,.046-.08l7.641-13.59c2.792-6.718.479-10.126-3-11.978,0,0-13.34,4.3-13.357,4.331-6.029,10.947-15.91,39.29-17.7,46.367C397.246,299.2,400.67,302.965,402.984,302.913Z" transform="translate(-170.879 -109.471)" fill="#0c232b"/>
      <g id="Grupo_2883" data-name="Grupo 2883" transform="translate(200.98 188.604)">
        <path id="Trazado_2628" data-name="Trazado 2628" d="M356.626,335.516l-3.926,9.522s2.667,2.388,5.653,1.111l3.009-8.559A47.818,47.818,0,0,0,356.626,335.516Z" transform="translate(-352.7 -335.498)" fill="#231f20"/>
        <path id="Trazado_2629" data-name="Trazado 2629" d="M361.146,344.8s-.786,2.809.718,3.715,3.043.587,5.476.1c3.145-.633,8.308,3.493,2.1,3.5-.917,0-6.012-.1-8.513-1.909-1.214-.878-1.18-3.157-.878-3.818Z" transform="translate(-355.784 -339.499)" fill="#231f20"/>
      </g>
      <path id="Trazado_2630" data-name="Trazado 2630" d="M361.312,307.169c5.755-6.109,17.312-19.944,24.674-32.2.017-.028.04-.063.057-.091l3.465-5.681c4.017-6.587,4.638-13.534,1.385-15.517l-1.088-.667c-3.254-1.983-12.1-.963-12.115-.935-15.283,24.759-18.89,43.216-21.659,51.08C356.036,303.163,358.976,307.271,361.312,307.169Z" transform="translate(-153.152 -110.889)" fill="#184656"/>
      <path id="Trazado_2631" data-name="Trazado 2631" d="M384.237,140.982c-4.1-7.955-13.9-6.08-21.762-3.123,0,0-2.228.838-2.234.838-11.425,4.3-7.129,18.611-2.7,29.158,3.356,7.989,16.958,40.264,22.355,44.624,2.137,1.727,8.12,1.744,9.243,1.322s2.04-1.9,2.507-4.6c1.464-8.451.855-23.318-.057-32.184C390.842,169.662,388.961,150.139,384.237,140.982Z" transform="translate(-151.819 -60.782)" fill="#184656"/>
      <path id="Trazado_2632" data-name="Trazado 2632" d="M385.706,14.922c2.274,3.938,2.069,11.288.553,11.995-3.185,1.487-10.035-1.271-12.308-5.208s-1.482-8.644,1.761-10.519S383.432,10.984,385.706,14.922Z" transform="translate(-160.303 -7.057)" fill="#f0a5a6"/>
      <path id="Trazado_2633" data-name="Trazado 2633" d="M384.371,42.061H378.24V32.75l7.072.393C385.317,33.143,383.505,38.032,384.371,42.061Z" transform="translate(-162.706 -16.662)" fill="#f0a5a6"/>
      <path id="Trazado_2634" data-name="Trazado 2634" d="M393.8,19.29a20.594,20.594,0,0,0,3.732,1.47c.906.1,1.345.45.53,1.464a4.944,4.944,0,0,1-2.234,1.407Z" transform="translate(-169.4 -10.872)" fill="#f0a5a6"/>
      <path id="Trazado_2635" data-name="Trazado 2635" d="M441.833,77.786a1.19,1.19,0,0,0-1.311-.906c-3.738.484-14.166,2.41-15.2,2.878-.98.444-13.038-7.75-13.727-8.633-4.6-1.2-.006,8.73-1.955,11.4,1.51,2.564,10.445,5.2,10.445,5.2,5.385,1.328,17.847-4.205,21.716-6.3a1.183,1.183,0,0,0,.593-1.316Z" transform="translate(-176.137 -33.127)" fill="#399aaa"/>
      <path id="Trazado_2636" data-name="Trazado 2636" d="M398.874,71.375c-.889,1-2.074,2.245-3.031,3.174-4.883-2.519-7.727-3.2-13.568-8.132-5.322-5.02-10.4-6.576-9.283-12.172,1.134-4.285,7.254-5.613,7.271-5.6,6.194,2.741,15.881,12.519,21.859,19.329A33.738,33.738,0,0,1,398.874,71.375Z" transform="translate(-160.382 -23.502)" fill="#399aaa"/>
      <path id="Trazado_2637" data-name="Trazado 2637" d="M364.165,43.449c.923-.576.1-1.333.889-1.339l6.616.758c2.063-.051,1.037,1.043,1.368,1.333,9,7.824,10.052,31.261,13.334,51.1a9.719,9.719,0,0,1,.12,1.111,3.618,3.618,0,0,1,.319,1.989c-.524,4.165-8.314,7.972-18.03,8.525-8.667.5-16.058-1.727-18-5.265a.123.123,0,0,0-.017-.028,1.954,1.954,0,0,1-.12-.245,7.2,7.2,0,0,1-.6-3.225c.148-7.733-.182-15.089.878-21.608C354.033,46.7,363.829,43.386,364.165,43.449Z" transform="translate(-150.574 -20.689)" fill="#e95f5c"/>
      <path id="Trazado_2638" data-name="Trazado 2638" d="M368.782,20.127s.917-.142.883-1.766a2.742,2.742,0,0,1,1.51-2.45,2.931,2.931,0,0,0,2.45-2.735c.12-.821-.194-2.046.4-2.73a1.612,1.612,0,0,1,.7-.41c1.812-.615,3.938-.131,5.59-1.248a2.39,2.39,0,0,0-.422-4.2c-1.744-.564-3.915,2.5-5.516,2.12-.815-.188-1.242-.895-1.892-1.345a4.67,4.67,0,0,0-2.741-.684,5.384,5.384,0,0,0-4.866,2.678c-.564,1.077-1.071,2.262-2.331,2.661-.667.211-1.362.285-2.034.473a4.955,4.955,0,0,0-2.906,2.108c-1.447,2.422.4,5.151,2.644,6.251,1.9.929,1.63,2.2,1.556,3.254-.131,1.92,2.262,4.53,5.482,2.479a2.038,2.038,0,0,0,1.841.387l.769-2.137A6.891,6.891,0,0,1,368.782,20.127Z" transform="translate(-153.613 -4.518)" fill="#0c232b"/>
      <path id="Trazado_2639" data-name="Trazado 2639" d="M377.733,24.494c.444,1.254,1.379,2.063,2.08,1.812s.912-1.47.462-2.718-1.379-2.063-2.08-1.812S377.288,23.24,377.733,24.494Z" transform="translate(-162.387 -11.922)" fill="#f0a5a6"/>
      <g id="Grupo_2885" data-name="Grupo 2885" transform="translate(541.244 181.617)">
        <g id="Grupo_2884" data-name="Grupo 2884">
          <path id="Trazado_2640" data-name="Trazado 2640" d="M961.411,323.25l3.59,7.773s-1.185,3.311-4.348,3.6l-3.043-7.761C957.6,326.863,961.394,322.982,961.411,323.25Z" transform="translate(-953.176 -323.237)" fill="#231f20"/>
          <path id="Trazado_2641" data-name="Trazado 2641" d="M955.459,334.38s1.59,2.553,1.009,4.171-1.949,2.331-4.1,3.465c-2.781,1.464-4.154,7.8.576,3.96.7-.57,4.507-3.8,5.294-6.718.382-1.419-1.054-3.128-1.7-3.442Z" transform="translate(-949.829 -328.03)" fill="#231f20"/>
        </g>
      </g>
      <path id="Trazado_2642" data-name="Trazado 2642" d="M931.615,299.98c-5.938-4.849-29.107-33.882-29.107-33.882-4.422-5.493-4.724-9.932-2.011-12.115l.906-.729c2.712-2.182,10.844-2.308,10.867-2.285a199.881,199.881,0,0,1,26.44,41.586,2.53,2.53,0,0,1-.12,2.479C937.4,296.914,934.84,300.2,931.615,299.98Z" transform="translate(-386.615 -110.532)" fill="#134e75"/>
      <g id="Grupo_2887" data-name="Grupo 2887" transform="translate(477.933 189.677)">
        <g id="Grupo_2886" data-name="Grupo 2886">
          <path id="Trazado_2643" data-name="Trazado 2643" d="M863.13,337.409l-1.02,8.5s-2.741,2.194-5.59.781l1.476-8.2S863.255,337.175,863.13,337.409Z" transform="translate(-846.379 -337.381)" fill="#231f20"/>
          <path id="Trazado_2644" data-name="Trazado 2644" d="M849.936,344.51s.011,3.009-1.328,4.08-2.883.963-5.311.8c-3.14-.211-7.63,4.462-1.59,3.67.895-.114,5.835-.872,8.029-2.946,1.071-1.009.741-3.22.359-3.824Z" transform="translate(-838.724 -340.448)" fill="#231f20"/>
        </g>
      </g>
      <path id="Trazado_2645" data-name="Trazado 2645" d="M852.288,304.793c-4.855-10.867-6.154-43.062-5.242-49.262,0,0,17.152-1.14,17.152-1.111.034,10.639-1.59,38.458-3.333,47.644a2.765,2.765,0,0,1-1.989,2.16C856.852,304.77,853.53,305.505,852.288,304.793Z" transform="translate(-364.254 -112.017)" fill="#134e75"/>
      <path id="Trazado_2646" data-name="Trazado 2646" d="M766.675,92.225a19.414,19.414,0,0,1,3.259-.376c.125.051,1.14.057,1.385,1.9a1.877,1.877,0,0,1-.576,1.852,13.39,13.39,0,0,1-2.678.4,1.473,1.473,0,0,1-.427.906,4.652,4.652,0,0,1-2.308,1.339c-1.219.387-2.832,1.048-4.091.815s-.952-.94-.952-.94a.887.887,0,0,1-.826-.365,1.214,1.214,0,0,1-.171-.974,1.783,1.783,0,0,1-.872-.581,1.4,1.4,0,0,1-.1-.957s-.781.063-.98-.558.866-1.43,1.214-1.59,1.014-.462,1.014-.462-.991-.889-.581-1.2a11.886,11.886,0,0,0,2.718-.752,3.183,3.183,0,0,1,2.957.085A11.792,11.792,0,0,1,766.675,92.225Z" transform="translate(-325.772 -41.434)" fill="#f0a5a6"/>
      <path id="Trazado_2647" data-name="Trazado 2647" d="M900.72,20.369a2.772,2.772,0,0,0-3.556-1.556s1.561-3.2-.752-4.519-3.3.929-4.576.53c-1.014-.313-.946-1.157-1.47-1.624a2.789,2.789,0,0,1-.974,1.117c-1.806,1.214-3.926,1.858-5.659,3.191a2.012,2.012,0,0,1-1.214.4c-.006.006-.011.006-.017.011a2.6,2.6,0,0,1-1.242.342c.832,1.168,2.205,1.687,4.764,1.174,2.7-.541,3.413.553,3.5,2.564a4,4,0,0,0,.843,2.712,1.346,1.346,0,0,1,2.194,1.077,2.691,2.691,0,0,1-1.51,3,15.588,15.588,0,0,1-.268,2.559c-.291,1.755-.108,1.966,1.351,1.521a8.3,8.3,0,0,0,4.6-2.946c1.06-1.5,1.157-3.071.268-3.47C897,26.46,901.688,22.659,900.72,20.369Z" transform="translate(-379.089 -8.253)" fill="#0c232b"/>
      <path id="Trazado_2648" data-name="Trazado 2648" d="M886.795,144.435c1.727-8.821,32.042-17.75,27.118,19.745-1.128,8.61-5.527,41.051-9.248,46.857-1.47,2.3-8.359,4.929-8.975,4.029a24.273,24.273,0,0,1-2.849-4.735c-3.294-7.567-2.678-20.725-3.977-29.42C887.781,173.69,884.806,154.583,886.795,144.435Z" transform="translate(-381.182 -61.375)" fill="#134e75"/>
      <path id="Trazado_2649" data-name="Trazado 2649" d="M851.123,159.956c2.217-8.667,3.425-15.568,8.263-19.346l26.794,4.108c2.576,11.072-7.852,19.938-15.306,39.689-1.282,3.4-4.735,17.431-6.65,25.187-1.869,7.573-8.519,9.784-11.687,8.565-5.237-2.017-5.436-7.676-5.544-8.764C845.881,198.112,849.186,167.518,851.123,159.956Z" transform="translate(-364.252 -63.06)" fill="#134e75"/>
      <path id="Trazado_2650" data-name="Trazado 2650" d="M909,67.52c-2.655-4.319-.376-15.67-.376-15.67C915.2,48.368,923.068,57.7,925.895,63.8a73.258,73.258,0,0,1,9.448,22c.593,3.1-1.8,9.431-3.248,8.707-2.661-1.328-14.725-17.272-21.87-19.745C910.207,74.74,909,67.52,909,67.52Z" transform="translate(-390.468 -24.553)" fill="#e95f5c"/>
      <path id="Trazado_2651" data-name="Trazado 2651" d="M856.091,51.95s15.6,5.67,11.949,8.77l-10.371,8.012a.316.316,0,0,1-.051.04c-8.228,7.157-22.7,12.5-25.523,12.793-1.539.16-4.73-6.815-.268-10.018C836.067,68.771,850.056,55.99,856.091,51.95Z" transform="translate(-356.843 -24.922)" fill="#e95f5c"/>
      <path id="Trazado_2652" data-name="Trazado 2652" d="M890.827,55.158a9.346,9.346,0,0,0,4.336-2.348l-.1,1.385-3.037,5.864-2.65-4.792A6.677,6.677,0,0,0,890.827,55.158Z" transform="translate(-382.581 -25.292)" fill="#c080b1"/>
      <path id="Trazado_2653" data-name="Trazado 2653" d="M778.158,92.087l.08-1.63a3.145,3.145,0,0,1,3.345-2.889c21.357.718,28.059-1.675,28.059-1.675,13.408-1.937,5.02,11.209-2.211,10.627,0,0-23.454-.661-26.8-1.362A3.027,3.027,0,0,1,778.158,92.087Z" transform="translate(-334.736 -39.439)" fill="#e95f5c"/>
      <path id="Trazado_2654" data-name="Trazado 2654" d="M877.479,48.44c-1.373.006-6.849,4.507-9.767,13.385-2.5,7.624-4.245,27.586-4.764,41.478-.137,3.681,8.342,3.881,17.853,3.841,8.924-.04,22.634-.439,22.776-3.767.285-6.781-7.7-42.84-8.747-48.538-5.02-6.792-10.3-5.636-10.89-5.858Z" transform="translate(-371.211 -23.412)" fill="#e95f5c"/>
      <path id="Trazado_2655" data-name="Trazado 2655" d="M887.1,46.041s5.015,3.282,8.793-1l-1.02-3.47-.08-3.493-8.912,2.878S887.407,42.257,887.1,46.041Z" transform="translate(-381.076 -18.955)" fill="#f0a5a6"/>
      <path id="Trazado_2656" data-name="Trazado 2656" d="M892.041,42.082c-.672,1.151-1.578,3.231-2.872,3.772a2.492,2.492,0,0,1-2.029.04,25.608,25.608,0,0,0-1.271-4.872l7.961-2.792A17.01,17.01,0,0,1,892.041,42.082Z" transform="translate(-381.072 -19.02)" fill="#cc7f7f"/>
      <path id="Trazado_2657" data-name="Trazado 2657" d="M881.655,19.176c-2.809,9.226.444,13.568,1.932,13.955,3.128.809,8.872-2.832,10.268-6.775s-.108-8.075-3.362-9.226S882.875,15.176,881.655,19.176Z" transform="translate(-378.783 -9.539)" fill="#f0a5a6"/>
      <path id="Trazado_2658" data-name="Trazado 2658" d="M268.038,66.908c-2.667,11.414-5.693,24.355-12.873,31.523-19.277,19.249-45.273,19.54-89.532,13.186-27.09-3.892-49.194-.342-67.582,10.844-15.539,9.454-28.281,24.434-38.96,45.792C47.507,191.416,25.426,204.842,0,212.238v5.431c27.284-7.67,51.205-21.933,63.776-47.074C85.817,126.512,117,109.924,164.887,116.8c18.691,2.684,38.281,4.912,54.869,3.06,16.417-1.835,28.845-7.471,39.113-17.722,8.24-8.228,11.448-21.944,14.274-34.042,3.846-16.451,20.822-14.1,21.545-14l.393-2.593.4-2.587C287.726,47.721,272.01,49.932,268.038,66.908Z" transform="translate(0 -23.502)" fill="#e95f5c"/>
      <g id="Grupo_2889" data-name="Grupo 2889" transform="translate(289.356 9.42)">
        <g id="Grupo_2888" data-name="Grupo 2888" transform="translate(43.877 7.328)">
          <path id="Trazado_2659" data-name="Trazado 2659" d="M602.7,36.782H586.226a1.437,1.437,0,0,1-1.436-1.436h0a1.437,1.437,0,0,1,1.436-1.436H602.7a1.437,1.437,0,0,1,1.436,1.436h0A1.441,1.441,0,0,1,602.7,36.782Z" transform="translate(-584.79 -33.91)" fill="#e95f5c"/>
          <path id="Trazado_2660" data-name="Trazado 2660" d="M602.7,68.082H586.226a1.437,1.437,0,0,1-1.436-1.436h0a1.437,1.437,0,0,1,1.436-1.436H602.7a1.437,1.437,0,0,1,1.436,1.436h0A1.441,1.441,0,0,1,602.7,68.082Z" transform="translate(-584.79 -47.374)" fill="#e95f5c"/>
        </g>
        <path id="Trazado_2661" data-name="Trazado 2661" d="M519.489,53.792l-9.9-1.351c-1.026-.142-1.8-1.561-1.8-3.168h0c0-1.607.775-3.026,1.8-3.168l9.9-1.351c2.342-.319,4.519,1.692,4.519,4.519h0C524.013,52.1,521.831,54.112,519.489,53.792Z" transform="translate(-507.79 -31.233)" fill="#999"/>
        <path id="Trazado_2662" data-name="Trazado 2662" d="M553.242,55.132H535.56a5.688,5.688,0,0,1-5.67-5.67V35.86a5.688,5.688,0,0,1,5.67-5.67h17.682a5.688,5.688,0,0,1,5.67,5.67v13.6A5.692,5.692,0,0,1,553.242,55.132Z" transform="translate(-517.297 -24.982)" fill="url(#linear-gradient)"/>
        <path id="Trazado_2663" data-name="Trazado 2663" d="M577.934,55.766H565.392a2.882,2.882,0,0,1-2.872-2.872V28.562a2.882,2.882,0,0,1,2.872-2.872h12.542a2.882,2.882,0,0,1,2.872,2.872V52.894A2.882,2.882,0,0,1,577.934,55.766Z" transform="translate(-531.333 -23.046)" fill="#999"/>
        <path id="Trazado_2664" data-name="Trazado 2664" d="M563,56.414H560.58a1.513,1.513,0,0,1-1.51-1.51V22.56a1.513,1.513,0,0,1,1.51-1.51H563a1.513,1.513,0,0,1,1.51,1.51V54.9A1.513,1.513,0,0,1,563,56.414Z" transform="translate(-529.849 -21.05)" fill="#bbbdbf"/>
      </g>
      <rect id="Rect치ngulo_674" data-name="Rect치ngulo 674" width="2.861" height="24.936" transform="translate(315.699 14.606)" fill="#e6e7e8"/>
      <path id="Trazado_2665" data-name="Trazado 2665" d="M527.315,44.735a3.485,3.485,0,0,0-.843.011l-2.462.336v8.371l2.462.336a3.489,3.489,0,0,0,.843.011Z" transform="translate(-225.412 -21.809)" fill="#ccc"/>
      <rect id="Rect치ngulo_675" data-name="Rect치ngulo 675" width="1.578" height="30.076" transform="translate(323.996 12.116)" fill="gray"/>
      <path id="Trazado_2666" data-name="Trazado 2666" d="M901.425,100.077q-.7-5.47-1.732-10.884c-.712-3.755-.843-4.77-1.744-8.491-2.41-3.4-4.678-6.935-6.673-8.046-4.046-1-4.935-14.365-3.863-17.106a26.508,26.508,0,0,1,1.778-4.012c.336-.558,1.219-1.157,1.145-1.909-.12-1.174-1.635-1.111-2.7-1.054a.667.667,0,0,0-.114-.028c-1.88-.239-3.083.946-3.778,2.587a28.759,28.759,0,0,0-1.4,4.445c-.467,1.949-.564,4.183-1.265,6.057-.661,1.772-1.681,1.977-3.442,2.182a23.229,23.229,0,0,1-2.952.154c-1.955-.017-5.516.177-5.539-2.5-.028-3.812,1.442-8.029,3.111-11.4a.643.643,0,0,0-.712-.9,3.3,3.3,0,0,0-1.863-.125,4.6,4.6,0,0,0-1.937.5,2.287,2.287,0,0,0-.8,1.328.639.639,0,0,0-.028.137,28.69,28.69,0,0,0-2.217,5.339c-.279,1.071-.5,2.832-.667,3.926-.285,1.806.262,11.317-1.92,12.16-1.328.519-2.581,4.65-3.1,11.294-.331,4.268-1.584,25.831-1.732,29.523-.057,1.459,20.491-1.67,24.742-1.618,5.738.068,19.477,6.456,19.978,3.909C903.055,110.3,901.812,103.114,901.425,100.077Z" transform="translate(-368.773 -23.444)" fill="#134e75"/>
      <path id="Trazado_2667" data-name="Trazado 2667" d="M921.633,133.581c1.031-5.242-.205-12.428-.6-15.465q-.7-5.47-1.732-10.884c-.712-3.755-.843-4.77-1.744-8.491-2.41-3.4-4.678-6.935-6.673-8.046a2.3,2.3,0,0,1-.576-.245c-.245,6.154-.41,12.308-1.664,18.366-1.083,5.208-3.356,9.961-5.767,14.65,3.3,2.7,4.844,7.767,6.5,11.419a157.067,157.067,0,0,1,7.2,19.927c.769,2.57,1.4,5.146,1.9,7.727,1.225-7.727,2.183-14.85,2.627-18.252a53.372,53.372,0,0,0,.445-10.531A.415.415,0,0,0,921.633,133.581Z" transform="translate(-388.389 -41.483)" fill="#0c3a5e"/>
      <path id="Trazado_2668" data-name="Trazado 2668" d="M1016.159,212.994c-12.8.387-26.839,1.789-41.552,3.254-26.03,2.593-52.949,5.271-74.187,2.239-23.471-3.351-35.968-12.992-39.324-30.332-6.188-31.985-17.511-55.992-33.654-71.343C812.3,102.407,796.6,99.375,788.59,98.851c-1.254-.08-2.65-.131-4.126-.182-11.921-.41-29.933-1.026-39.119-20.218-6.337-15.8-14.462-25.751-24.167-29.58-7.653-3.02-13.414-.895-13.659-.8l1.858,4.9c.177-.068,17.631-6.24,31.13,27.512l.068.154c10.542,22.138,31.3,22.85,43.706,23.278,1.436.051,2.792.1,3.966.171,7.3.479,21.637,3.259,35.58,16.531,15.334,14.588,26.138,37.649,32.122,68.545,3.789,19.574,18.092,30.868,43.729,34.526a159.708,159.708,0,0,0,22.389,1.4c16.781,0,35.13-1.829,53.057-3.613,14.554-1.447,28.452-2.838,41.034-3.231v-5.248Z" transform="translate(-304.351 -22.903)" fill="#46acc3"/>
      <path id="Trazado_2669" data-name="Trazado 2669" d="M890.4,150.474a18.982,18.982,0,0,1,3.089-1.105c.131.017,1.123-.205,1.784,1.533a1.889,1.889,0,0,1-.137,1.937,13.608,13.608,0,0,1-2.519,1,1.473,1.473,0,0,1-.211.98,4.643,4.643,0,0,1-1.943,1.829c-1.1.655-2.519,1.664-3.8,1.727s-1.14-.7-1.14-.7a.886.886,0,0,1-.889-.165,1.219,1.219,0,0,1-.393-.912,1.792,1.792,0,0,1-.98-.365,1.389,1.389,0,0,1-.313-.912s-.746.239-1.083-.319.518-1.59.821-1.823.883-.678.883-.678-1.168-.644-.838-1.037a11.649,11.649,0,0,0,2.473-1.351,3.2,3.2,0,0,1,2.9-.593A11.293,11.293,0,0,1,890.4,150.474Z" transform="translate(-379.319 -66.827)" fill="#f0a5a6"/>
      <path id="Trazado_2670" data-name="Trazado 2670" d="M460.138,97.206a18.768,18.768,0,0,0-3.2.712c-.1.085-1.06.427-.689,2.245a1.892,1.892,0,0,0,1.145,1.567,13.526,13.526,0,0,0,2.661-.5,1.5,1.5,0,0,0,.7.718,4.62,4.62,0,0,0,2.616.513c1.276-.034,3.02.068,4.131-.564s.593-1.2.593-1.2a.891.891,0,0,0,.661-.615,1.233,1.233,0,0,0-.154-.98,1.777,1.777,0,0,0,.632-.832,1.364,1.364,0,0,0-.222-.935s.758-.194.741-.849-1.282-1.066-1.664-1.105-1.111-.1-1.111-.1.644-1.168.154-1.328a12,12,0,0,1-2.815.177,3.2,3.2,0,0,0-2.769,1.043A12.2,12.2,0,0,0,460.138,97.206Z" transform="translate(-196.225 -42.985)" fill="#f0a5a6"/>
      <path id="Trazado_2671" data-name="Trazado 2671" d="M900.914,136.581l-1.67-2.918a1.859,1.859,0,0,1,.576-2.627,75.2,75.2,0,0,0,9.55-5.807,39.76,39.76,0,0,0,11.419-14.143c1.328-2.8,10.9,1.92,10.775,2.8-.883,6.644-8.707,15.089-13.488,17.4l-3.51,1.7c-.017.006-.034.017-.051.023a75.148,75.148,0,0,1-11.437,4.6A1.992,1.992,0,0,1,900.914,136.581Z" transform="translate(-386.696 -49.982)" fill="#e95f5c"/>
      <g id="Grupo_2891" data-name="Grupo 2891" transform="translate(365.36 9.42)">
        <path id="Trazado_2672" data-name="Trazado 2672" d="M704.039,53.162l9.9-1.351c1.026-.142,1.8-1.561,1.8-3.168h0c0-1.607-.775-3.026-1.8-3.168l-9.9-1.351c-2.342-.319-4.519,1.692-4.519,4.519h0C699.52,51.47,701.7,53.482,704.039,53.162Z" transform="translate(-666.27 -30.962)" fill="#999"/>
        <path id="Trazado_2673" data-name="Trazado 2673" d="M706.05,44.4l-2.012-.274c-2.342-.319-4.519,1.692-4.519,4.519s2.177,4.844,4.519,4.519l2.012-.274Z" transform="translate(-666.27 -30.962)" fill="#ccc"/>
        <path id="Trazado_2674" data-name="Trazado 2674" d="M660.62,55.132H678.3a5.688,5.688,0,0,0,5.67-5.67V35.86a5.688,5.688,0,0,0-5.67-5.67H660.62a5.688,5.688,0,0,0-5.67,5.67v13.6A5.692,5.692,0,0,0,660.62,55.132Z" transform="translate(-647.098 -24.982)" fill="url(#linear-gradient-2)"/>
        <path id="Trazado_2675" data-name="Trazado 2675" d="M644.042,55.766h12.542a2.882,2.882,0,0,0,2.872-2.872V28.562a2.882,2.882,0,0,0-2.872-2.872H644.042a2.882,2.882,0,0,0-2.872,2.872V52.894A2.878,2.878,0,0,0,644.042,55.766Z" transform="translate(-641.17 -23.046)" fill="#999"/>
        <path id="Trazado_2676" data-name="Trazado 2676" d="M665.936,25.69H662.91V55.766h3.026a2.882,2.882,0,0,0,2.872-2.872V28.562A2.878,2.878,0,0,0,665.936,25.69Z" transform="translate(-650.522 -23.046)" fill="gray"/>
        <path id="Trazado_2677" data-name="Trazado 2677" d="M668.67,56.414h2.416a1.513,1.513,0,0,0,1.51-1.51V22.56a1.513,1.513,0,0,0-1.51-1.51H668.67a1.513,1.513,0,0,0-1.51,1.51V54.9A1.513,1.513,0,0,0,668.67,56.414Z" transform="translate(-652.35 -21.05)" fill="#bbbdbf"/>
        <g id="Grupo_2890" data-name="Grupo 2890" transform="translate(21.808 10.399)">
          <path id="Trazado_2678" data-name="Trazado 2678" d="M689.19,40.36h-9.22a.533.533,0,0,1-.53-.53h0a.533.533,0,0,1,.53-.53h9.22a.533.533,0,0,1,.53.53h0A.529.529,0,0,1,689.19,40.36Z" transform="translate(-679.44 -39.3)" fill="#999"/>
          <path id="Trazado_2679" data-name="Trazado 2679" d="M689.19,45.1h-9.22a.533.533,0,0,1-.53-.53h0a.533.533,0,0,1,.53-.53h9.22a.533.533,0,0,1,.53.53h0A.529.529,0,0,1,689.19,45.1Z" transform="translate(-679.44 -41.339)" fill="#999"/>
          <path id="Trazado_2680" data-name="Trazado 2680" d="M689.19,49.84h-9.22a.533.533,0,0,1-.53-.53h0a.533.533,0,0,1,.53-.53h9.22a.533.533,0,0,1,.53.53h0A.529.529,0,0,1,689.19,49.84Z" transform="translate(-679.44 -43.378)" fill="#999"/>
          <path id="Trazado_2681" data-name="Trazado 2681" d="M689.19,54.57h-9.22a.533.533,0,0,1-.53-.53h0a.533.533,0,0,1,.53-.53h9.22a.533.533,0,0,1,.53.53h0A.525.525,0,0,1,689.19,54.57Z" transform="translate(-679.44 -45.413)" fill="#999"/>
          <path id="Trazado_2682" data-name="Trazado 2682" d="M689.19,59.31h-9.22a.533.533,0,0,1-.53-.53h0a.533.533,0,0,1,.53-.53h9.22a.533.533,0,0,1,.53.53h0A.525.525,0,0,1,689.19,59.31Z" transform="translate(-679.44 -47.452)" fill="#999"/>
          <path id="Trazado_2683" data-name="Trazado 2683" d="M689.19,64.05h-9.22a.533.533,0,0,1-.53-.53h0a.533.533,0,0,1,.53-.53h9.22a.533.533,0,0,1,.53.53h0A.529.529,0,0,1,689.19,64.05Z" transform="translate(-679.44 -49.491)" fill="#999"/>
        </g>
      </g>
      <path id="Trazado_2684" data-name="Trazado 2684" d="M762.779,98.17a1.55,1.55,0,0,0,.519-1.254.754.754,0,0,0-.8-.7,1.282,1.282,0,0,0,.3-1.368.949.949,0,0,0-1.117-.627,1,1,0,0,0,.131-.7.977.977,0,0,0-.838-.758c-1.413-.262-2.542,1.031-3.111,2.148a.226.226,0,0,0,.074.285.172.172,0,0,0,.108.12c1.282.615,2.057,2.114,2.769,3.288.4.661.553,1.464,1.436,1.254C763.395,99.6,763.56,98.381,762.779,98.17Z" transform="translate(-325.996 -42.468)" fill="#f0a5a6"/>
      <path id="Trazado_2685" data-name="Trazado 2685" d="M478.789,81.895c.843-.331.507-1.077.467-1.846-.08-1.368-.3-3.043.4-4.279a.181.181,0,0,0,.017-.16.221.221,0,0,0-.1-.279c-1.105-.593-2.764-1.009-3.778.006a.971.971,0,0,0-.262,1.1,1,1,0,0,0,.5.5.944.944,0,0,0-.558,1.151,1.281,1.281,0,0,0,1.026.957.754.754,0,0,0-.268,1.031,1.533,1.533,0,0,0,1.134.735C476.857,81.422,477.683,82.328,478.789,81.895Z" transform="translate(-204.522 -34.717)" fill="#f0a5a6"/>
      <path id="Trazado_2686" data-name="Trazado 2686" d="M380.744,81.933a104.608,104.608,0,0,1-13.226-14.582c-.017-.023-.034-.04-.051-.063l-2.975-4.063c-3.447-4.713,1.3-11.716,1.3-11.716,3.328-2.445,8.411-2.678,11.858,2.034l2.975,4.063c.017.023.028.046.046.068a97.337,97.337,0,0,1,8.257,13.676A52.153,52.153,0,0,0,380.744,81.933Z" transform="translate(-156.252 -23.996)" fill="#46acc3"/>
      <path id="Trazado_2687" data-name="Trazado 2687" d="M382.055,94.284c.809-.028,1.613-.051,2.416-.08-.4-2.775-.821-5.5-1.288-8.12a89.463,89.463,0,0,1-29.939-.6q-.59,3.1-1.054,6.77C361.712,95.293,372.2,94.62,382.055,94.284Z" transform="translate(-151.5 -39.345)" fill="#fcc14b"/>
      <path id="Trazado_2688" data-name="Trazado 2688" d="M373.117,118.392a46.023,46.023,0,0,0,12.1-3.174c-.262-1.875-.519-3.755-.775-5.63-.855.028-1.7.057-2.559.091-10.251.348-21.272,1.049-31.255-1.949-.222,2.211-.331,4.5-.382,6.861A42.472,42.472,0,0,0,373.117,118.392Z" transform="translate(-150.666 -48.916)" fill="#fcc14b"/>
      <path id="Trazado_2689" data-name="Trazado 2689" d="M395.678,111.431c-1.556-9.408-2.61-19.625-4.251-28.606-1.7-.256-3.413-.513-5.117-.775-4.827-.746-9.756-1.972-14.65-2.45,3.824,10.929,9.157,22.035,18.064,29.215a40.161,40.161,0,0,0,6.211,4.091,2.835,2.835,0,0,0-.142-.365A8.44,8.44,0,0,0,395.678,111.431Z" transform="translate(-159.876 -36.816)" fill="#c94545" opacity="0.5"/>
      <path id="Trazado_2690" data-name="Trazado 2690" d="M419.367,80.835A.918.918,0,0,0,418.273,80c-4.661.929-16.309,1.618-18.5,2.171a6.284,6.284,0,0,1-7.3-3.476,109.466,109.466,0,0,0-11.032-19.471c-.017-.023-.028-.046-.046-.068l-2.975-4.063c-2.086-2.034-6.114-2.467-9.442-.023,0,0-5.14,6.849-3.715,9.7l2.975,4.063a.605.605,0,0,0,.051.063c6.707,9.345,17.921,19.129,22.7,22.537,2.029,3.727,10.388,2.6,17.351-.718,0,0,10.211-5.157,11.294-6.092Z" transform="translate(-157.016 -25.543)" fill="#46acc3"/>
      <path id="Trazado_2691" data-name="Trazado 2691" d="M901.093,18.2a8.019,8.019,0,0,0-1.066,1.419c-.456.746-.895.285-1.288,1.134.142.12.137,1.556.279,1.67a9.178,9.178,0,0,1,1.333,1.436c.53-3.128,2.051-.5,2.188.479s-1.02,2.621-.217,2.6,1.556-2.553,1.556-2.553c-.194-4.131-1.043-4.034-2.063-5.527A2.421,2.421,0,0,0,901.093,18.2Z" transform="translate(-386.608 -10.404)" fill="#0c232b"/>
      <path id="Trazado_2692" data-name="Trazado 2692" d="M899.6,24.61c-.234.114-1.265-2.633-1.482-2.61.143.541.986,4.137,1.185,4.918.319,1.219,1.094,1.288,1.123,1.128.057-.3-.142-.564-.222-.849a7.886,7.886,0,0,1-.086-1.835,8.972,8.972,0,0,1-.16-.917C899.841,24.5,899.721,24.553,899.6,24.61Z" transform="translate(-386.341 -12.038)" fill="#0c232b"/>
      <path id="Trazado_2693" data-name="Trazado 2693" d="M881.828,15.665a6.972,6.972,0,0,0,1.026.45H899.1a9.1,9.1,0,0,0-3.824-7.7c-3.128-2.046-8.263-2.12-11.237-1.026C882.113,8.1,878.444,14.246,881.828,15.665Z" transform="translate(-378.74 -5.452)" fill="#e95f5c"/>
      <path id="Trazado_2694" data-name="Trazado 2694" d="M874.3,18.941l9.317-.006c-.063-.912-1.875-1.351-2.712-1.584l-11.841-3.282a18,18,0,0,0-4.012-.792,1.451,1.451,0,0,0-.878.165,1.23,1.23,0,0,0-.274,1.5,2.955,2.955,0,0,0,1.128,1.134c2.587,1.732,4.952,3.014,8,2.895A11.853,11.853,0,0,1,874.3,18.941Z" transform="translate(-371.563 -8.284)" fill="#134e75"/>
    </g>
  </g>
</svg>
