<?xml version="1.0" encoding="utf-8"?>
<!-- Generator: Adobe Illustrator 27.1.1, SVG Export Plug-In . SVG Version: 6.00 Build 0)  -->
<svg version="1.1" id="Capa_1" xmlns="http://www.w3.org/2000/svg" xmlns:xlink="http://www.w3.org/1999/xlink" x="0px" y="0px"
	 viewBox="0 0 143.35 55.72" style="enable-background:new 0 0 143.35 55.72;" xml:space="preserve">
<style type="text/css">
	.st0{fill:#D3D3D3;}
	.st1{fill-rule:evenodd;clip-rule:evenodd;fill:#D3D3D3;}
</style>
<g>
	<path id="path3060" class="st0" d="M138.96,8.31c-2.24,0-4.05,1.81-4.05,4.05s1.81,4.06,4.05,4.06s4.06-1.82,4.06-4.06
		C143.01,10.12,141.19,8.31,138.96,8.31z M138.98,9.12c1.79,0,3.24,1.45,3.24,3.24c0,1.79-1.45,3.23-3.24,3.23s-3.23-1.44-3.23-3.23
		C135.75,10.57,137.19,9.12,138.98,9.12z"/>
	<path id="path2995" class="st1" d="M16.01,8.45c-0.09,0-0.18,0.01-0.28,0.02c-0.01,0-0.03,0-0.04,0c-0.04,0-0.08,0-0.12,0
		c-0.21,0-0.42,0-0.63,0.01c-0.66,0.03-1.28,0.12-1.85,0.25c-0.01,0-0.03,0.01-0.04,0.01c-1.49,0.25-2.79,0.71-3.8,1.3
		c-0.96,0.45-1.8,0.96-2.49,1.53c-0.01,0.01-0.02,0.01-0.03,0.02c-2.79,2.05-4.9,5.1-5.91,8.67C0.81,20.28,0.8,20.3,0.8,20.32
		C0.28,22.01,0,23.83,0,25.73c0,5.21,2.11,9.84,5.36,12.75c0.44,0.45,0.95,0.89,1.55,1.31c0.71,0.5,1.44,0.89,2.11,1.17
		c0.02,0.01,0.05,0.02,0.07,0.03c1.67,0.81,4.16,1.33,6.93,1.33c0.46,0,0.9-0.02,1.34-0.05c0,0,0.01,0,0.01,0
		c0.4,0.02,0.84,0.02,1.3-0.03c0.14-0.02,0.27-0.04,0.41-0.06c6.42-0.41,11.63-5.16,12.68-11.29c0,0,0-0.01,0-0.01
		c0.03-0.1,0.06-0.21,0.09-0.32h-8.69c-0.66,1.99-2.57,3.53-4.96,3.94c-0.01,0-0.01,0.01-0.02,0.01c-0.03,0-0.05,0.01-0.08,0.01
		c-0.42,0.08-0.97,0.14-1.59,0.14c-0.88,0-1.65-0.1-2.06-0.26c-1.89-0.5-3.38-1.94-3.94-3.77c-0.01-0.03-0.02-0.06-0.03-0.09
		c-0.02-0.07-0.04-0.14-0.06-0.22c-0.03-0.13-0.06-0.26-0.09-0.41c-0.09-0.47-0.15-1.05-0.17-1.69v-0.03v-0.02h0.12h0.28h0.19h0.15
		h21.39c0.04-0.48,0.07-0.98,0.07-1.5c0-0.49-0.03-0.96-0.07-1.42c0-0.01,0-0.03,0-0.04c-0.04-1.11-0.17-2.12-0.36-2.95
		c-0.44-3.12-1.46-5.76-2.81-7.46c-0.01-0.01-0.01-0.02-0.02-0.03c-2.65-3.79-7.15-6.29-12.25-6.29c-0.11,0-0.21,0.01-0.32,0.01
		C16.36,8.46,16.19,8.45,16.01,8.45L16.01,8.45z M16.42,16.27c0.8,0,1.5,0.11,1.87,0.27c2.07,0.62,3.62,2.61,3.8,5.02h-5.56h-0.04
		h-6.34c0.21-2.56,2.17-4.64,4.74-5.13c0.01,0,0.01-0.01,0.02-0.01c0.02,0,0.05-0.01,0.07-0.01C15.36,16.32,15.86,16.27,16.42,16.27
		L16.42,16.27z"/>
	<path id="rect3149" class="st0" d="M29.52,9.2l5.39,7.74v-0.03l5.15,7.65l-6.19,9.19v0.01l-2.12,3.15l-3.14,4.67h11.34l6-8.98
		l5.84,8.74l0.1,0.15h5.99h1.49h4.04l-5.52-7.97v0.02l-6.21-9.22l5.25-7.46v0.08l2.32-3.38l3-4.36H50.83l-4.81,7.26L41.11,9.2
		L29.52,9.2L29.52,9.2z M40.96,9.25l-0.49,0.37L40.46,9.6L40.96,9.25L40.96,9.25z"/>
	<path id="rect3212" class="st0" d="M64.12,9.2l1.82,32.27h0.09h0.17h7.62h1.48h0.09L77.21,9.2H75.3h-1.48H66.2h-0.17
		C66.03,9.2,64.12,9.2,64.12,9.2z"/>
	<path id="path3244" class="st0" d="M76.74,49.14c0,3.37-2.73,6.1-6.09,6.1c-3.37,0-6.1-2.73-6.1-6.09c0,0,0,0,0-0.01
		c0-3.37,2.73-6.1,6.09-6.1C74.01,43.04,76.74,45.77,76.74,49.14C76.74,49.14,76.74,49.14,76.74,49.14z"/>
	<path id="rect3246" class="st0" d="M84.25,0v9.17h-5.13v7.22h5.13v15.28v0.03v2.41v0.05v0.16v0.01c-0.03,0.21-0.04,0.47-0.03,0.75
		c0.01,0.41,0.08,0.76,0.15,0.96c0,0.01,0.01,0.01,0.01,0.01c0.33,2.11,1.88,3.89,4.06,4.87c0.11,0.05,0.22,0.1,0.33,0.15
		c0.09,0.04,0.18,0.08,0.28,0.11c0.04,0.01,0.08,0.03,0.12,0.04c0.73,0.25,1.51,0.42,2.32,0.48c0.01,0,0.01,0,0.02,0
		c0.83,0.1,1.76,0.16,2.73,0.16c0.75,0,1.46-0.03,2.12-0.09c0.48,0,0.99-0.02,1.53-0.06c0.96-0.07,1.82-0.21,2.5-0.38v-1.9
		c-0.01-0.01-0.01-0.01-0.02-0.02v-2.11v-4.15h-0.34c-0.09,0.05-0.18,0.1-0.28,0.13v0.02c-1.19,0.39-2.83,0.46-4.66,0.09
		c-0.01,0-0.01,0-0.02,0c-0.43,0-0.79-0.37-0.79-0.82c0-0.07,0.01-0.13,0.02-0.19V31.7v-2.77V16.39h6.1V9.17h-6.1V0L84.25,0L84.25,0
		z"/>
	<path id="path3011" class="st0" d="M118.29,8.26c-4.68,0-8.87,1.67-11.74,4.32c-0.12,0.11-0.24,0.22-0.35,0.33
		c-0.3,0.29-0.58,0.59-0.86,0.92c-0.01,0.01-0.02,0.02-0.03,0.03c-0.04,0.05-0.07,0.09-0.11,0.14c-0.08,0.1-0.16,0.21-0.24,0.31
		c-0.02,0.03-0.05,0.07-0.07,0.1c-0.1,0.13-0.19,0.25-0.28,0.39c-0.03,0.05-0.07,0.1-0.1,0.15c-0.12,0.18-0.24,0.36-0.35,0.55
		c-1.59,2.64-2.56,6.09-2.56,9.88c0,3.79,0.97,7.24,2.56,9.88c0.11,0.19,0.23,0.37,0.35,0.55c0.12,0.19,0.25,0.36,0.38,0.54
		c0.12,0.16,0.24,0.32,0.37,0.48c0.02,0.02,0.03,0.04,0.05,0.06c0.01,0.01,0.02,0.03,0.03,0.04c0.38,0.46,0.78,0.88,1.21,1.26
		c0.01,0.01,0.03,0.02,0.04,0.03c2.87,2.62,7.05,4.28,11.7,4.28c4.65,0,8.83-1.65,11.7-4.28c0.01-0.01,0.03-0.02,0.04-0.03
		c0.42-0.37,0.83-0.8,1.21-1.26c0.01-0.01,0.02-0.03,0.03-0.04c0.01-0.01,0.01-0.01,0.02-0.02c0.01-0.01,0.02-0.03,0.03-0.04
		c0.13-0.15,0.25-0.32,0.37-0.48c0.13-0.18,0.26-0.35,0.38-0.54c0.12-0.18,0.24-0.36,0.35-0.55c1.59-2.64,2.56-6.09,2.56-9.88
		c0-3.79-0.97-7.24-2.56-9.88c-0.11-0.19-0.23-0.37-0.35-0.55c-0.22-0.32-0.44-0.64-0.69-0.95c-0.03-0.04-0.06-0.07-0.09-0.11
		c-0.02-0.02-0.03-0.04-0.05-0.06c-0.27-0.33-0.56-0.63-0.86-0.92c-0.05-0.05-0.11-0.11-0.16-0.16c-0.06-0.06-0.13-0.11-0.19-0.17
		C127.16,9.94,122.97,8.26,118.29,8.26L118.29,8.26z M118.25,16.25c2.08,0,3.93,1.02,5.11,2.58c0.08,0.1,0.16,0.21,0.24,0.33
		c0.11,0.17,0.23,0.34,0.33,0.54c0.05,0.1,0.09,0.21,0.14,0.31c0.03,0.06,0.05,0.11,0.08,0.17c0.07,0.17,0.14,0.34,0.2,0.52
		c0.05,0.16,0.11,0.32,0.15,0.48c0,0.01,0.01,0.02,0.01,0.03c0.35,1.18,0.55,2.62,0.55,4.17c0,1.63-0.23,3.14-0.61,4.36
		c-0.01,0.04-0.02,0.07-0.03,0.11c-0.01,0.03-0.02,0.05-0.03,0.08c-0.06,0.18-0.12,0.36-0.19,0.53c-0.01,0.01-0.01,0.03-0.02,0.04
		c-0.01,0.03-0.02,0.05-0.03,0.08c-0.25,0.59-0.54,1.08-0.87,1.45c-0.02,0.02-0.03,0.04-0.05,0.06c-0.02,0.02-0.05,0.05-0.07,0.07
		c-1.19,1.42-2.94,2.33-4.91,2.33c-2.09,0-3.94-1.02-5.12-2.6c-0.07-0.09-0.15-0.19-0.22-0.3c0,0-0.01-0.01-0.01-0.01
		c-0.09-0.14-0.18-0.29-0.27-0.45c-0.01-0.02-0.03-0.05-0.04-0.07c-0.01-0.01-0.01-0.02-0.02-0.03c-0.29-0.54-0.5-1.12-0.63-1.73
		c-0.01-0.03-0.01-0.05-0.02-0.08c-0.29-1.12-0.46-2.42-0.46-3.83c0-1.41,0.17-2.71,0.46-3.83c0-0.01,0-0.01,0-0.02
		c0.16-0.81,0.48-1.57,0.91-2.24c0.08-0.13,0.17-0.25,0.26-0.37C114.27,17.3,116.13,16.25,118.25,16.25L118.25,16.25z"/>
	<path id="rect3066" class="st0" d="M17.85,0l-5.14,6.53h6.39L27.64,0H17.85L17.85,0z"/>
	<path id="rect3090" class="st0" d="M137.92,10.18L137.92,10.18l-0.61,0.01v4.31h0.98v-1.87h0.56l0.92,1.87h1.08l-0.94-1.91
		c0.07-0.02,0.15-0.05,0.22-0.1c0.17-0.11,0.3-0.28,0.38-0.45c0,0,0.01-0.01,0.01-0.01c0.14-0.19,0.2-0.49,0.16-0.81
		c-0.04-0.39-0.23-0.69-0.45-0.81c-0.04-0.03-0.08-0.06-0.13-0.08c-0.01-0.01-0.03-0.01-0.04-0.02c-0.02-0.01-0.03-0.02-0.05-0.02
		c-0.11-0.06-0.22-0.09-0.32-0.1c0,0,0-0.01,0-0.01h-0.03L137.92,10.18L137.92,10.18z M138.29,11.08h1.14c0,0,0.01,0.01,0.01,0.01
		c0.13,0.04,0.23,0.21,0.23,0.43c0,0.21-0.09,0.39-0.22,0.43h-0.09h-1.07L138.29,11.08L138.29,11.08z"/>
</g>
</svg>
