<?xml version="1.0" encoding="utf-8"?>
<!-- Generator: Adobe Illustrator 27.1.1, SVG Export Plug-In . SVG Version: 6.00 Build 0)  -->
<svg version="1.1" id="Capa_1" xmlns="http://www.w3.org/2000/svg" xmlns:xlink="http://www.w3.org/1999/xlink" x="0px" y="0px"
	 viewBox="0 0 144.85 62.72" style="enable-background:new 0 0 144.85 62.72;" xml:space="preserve">
<style type="text/css">
	.st0{fill:#D3D3D3;}
</style>
<g>
	<path class="st0" d="M41.11,0c0.21,0.09,0.42,0.2,0.64,0.26c4.34,1.15,6.63,4.9,5.7,9.36c-0.12,0.59-0.29,1.17-0.46,1.86
		c1.76-0.13,3.46-0.25,5.29-0.38c0.4-3.52,1.91-6.51,4.96-8.61c2.16-1.48,4.54-2.24,7.16-2.07c5.89,0.37,8.85,3.46,9.96,10.4
		c4.07-0.42,8.11-0.4,12.07,1.62c0.67-1.64,1.35-3.21,1.94-4.82c0.74-2.02,1.99-3.61,3.92-4.58c3.18-1.61,6.59-2.25,10.1-1.81
		c4.67,0.58,7.3,4.63,6.18,9.2c-0.09,0.36-0.17,0.71-0.25,1.03c1.35,0.8,2.62,1.55,3.89,2.3c3.81-2.45,8.07-3.6,12.43-2.4
		c2.32,0.64,4.22,0.52,6.36-0.14c2.35-0.72,4.8-0.9,7.22-0.27c3.81,0.99,6.24,4.47,5.72,8.36c-1.45,10.77-4.8,20.8-12.39,28.92
		c-7.83,8.38-17.56,13.04-29.02,14.15c-6.91,0.67-13.56-0.22-19.9-3.11c-1.19-0.54-2.34-1.2-3.42-1.92
		c-2.99-1.98-5.05-4.58-5.21-8.51c-0.63,0.05-1.22,0.08-1.8,0.14c-4.21,0.41-8.34,0.36-12.16-1.85c-0.28-0.16-0.83-0.14-1.12,0.02
		c-1.74,0.97-3.6,1.27-5.56,1.21c-0.98-0.03-1.97-0.03-2.96,0c-3.48,0.11-6.21-1.17-8.05-4.34c-0.32,0.4-0.6,0.76-0.88,1.11
		c-1.47,1.83-3.35,3.04-5.71,3.23c-2.05,0.17-4.13,0.21-6.18,0.08c-3.43-0.22-5.89-1.94-7.19-5.29c-0.18,0.25-0.33,0.43-0.44,0.63
		c-1.77,3.15-4.53,4.63-8.08,4.72c-2.06,0.05-4.13,0.06-6.19,0C3.62,48.35,1.24,46.08,0,42.41c0-1.12,0-2.25,0-3.37
		c0.4-0.88,0.84-1.75,1.21-2.65c4.13-10,8.25-20.01,12.37-30.01c1.53-3.7,4.3-5.66,8.31-5.83c3.23-0.13,6.46-0.17,9.69-0.29
		c1.4-0.05,2.79-0.17,4.19-0.27C37.54,0,39.32,0,41.11,0z M104.51,13.97c0.53-1.28,1.13-2.45,1.51-3.69
		c0.97-3.17-0.77-5.76-4.05-6.13c-2.63-0.3-5.12,0.33-7.58,1.16c-1.71,0.58-2.84,1.67-3.5,3.37c-1.07,2.77-2.26,5.49-3.4,8.24
		c-5.32-4.97-11.27-3.73-17.33-2.1c0.28-0.58,0.55-1.07,0.77-1.58c1.31-3.12,0.5-6.53-2.01-8.5c-2.57-2.02-6.53-2.2-9.55-0.44
		C56.3,6.1,54.6,9.54,55.2,12.85c0.17,0.9,0.55,1.76,0.94,2.97c-0.6-0.2-1.04-0.24-1.33-0.46c-1.82-1.4-3.95-1.79-6-1.14
		c-2.12,0.68-3.96-0.14-5.82-0.24c0.58-1.71,1.3-3.3,1.65-4.97c0.74-3.48-1.6-6.28-5.17-6.22c-5.82,0.1-11.63,0.26-17.44,0.47
		c-3.3,0.12-5.09,1.64-6.26,4.71c-2.14,5.63-4.33,11.25-6.59,16.83c-1.93,4.76-4.11,9.43-5.98,14.21c-1.35,3.45,1.05,6.74,4.73,6.79
		c2.06,0.03,4.13,0.04,6.19-0.01c2.76-0.07,4.9-1.63,5.9-4.21c0.98-2.53,1.96-5.05,2.96-7.58c1.43-3.64,1.44-3.64,5.4-3.77
		c0.04,0,0.08,0.04,0.2,0.11c-0.17,0.46-0.33,0.94-0.51,1.41c-0.95,2.39-1.99,4.74-2.84,7.17c-1.23,3.52,0.59,6.41,4.25,6.75
		c1.86,0.17,3.76,0.15,5.62-0.01c2.57-0.22,4.3-1.68,5.17-4.13c1.32-3.7,2.66-7.39,3.98-11.08c0.78-2.18,2.36-2.86,4.54-1.9
		c-0.13,0.35-0.24,0.7-0.38,1.04c-1.23,3.18-2.59,6.32-3.67,9.55c-1.1,3.3,0.86,6.1,4.28,6.37c1.21,0.1,2.44,0.02,3.66,0.08
		c2.55,0.12,4.87-0.34,6.39-2.59c5.78,4.64,11.99,3.35,18.36,1.66c-0.18,0.55-0.32,1.02-0.49,1.48c-1.05,2.94-0.39,5.51,1.98,7.46
		c1.46,1.21,3.1,2.29,4.82,3.08c6.93,3.18,14.23,3.51,21.63,2.27c11.84-1.98,21.47-7.61,28.2-17.68c4.34-6.5,6.47-13.84,7.66-21.49
		c0.56-3.59-1.46-6.18-5.11-6.33c-3.25-0.13-6.34,0.44-8.97,2.52c-3.86-3.6-10.86-2.55-14.97,2.28
		C110.42,15.46,107.76,14.22,104.51,13.97z"/>
	<path class="st0" d="M122.07,40.68c-1.52,0.24-2.92,0.61-4.34,0.65c-3.79,0.11-6.27-2.25-6.52-6.03
		c-0.29-4.38,1.06-8.39,2.72-12.34c0.09-0.22,0.22-0.42,0.28-0.64c1.13-4.12,4.33-5.05,8.03-5.13c2.24-0.05,2.82,0.93,1.73,2.88
		c-1.85,3.32-3.64,6.65-4.22,10.47c-0.16,1.06-0.33,2.13-0.34,3.2c-0.01,1.38,0.68,1.89,1.88,1.23c1.24-0.69,2.44-1.59,3.39-2.64
		c2.53-2.8,3.55-6.31,4.25-9.93c0.12-0.64,0.24-1.29,0.32-1.93c0.28-2.24,0.53-2.65,2.68-3.16c1.35-0.32,2.77-0.47,4.16-0.47
		c1.5,0,2.5,1.14,2.27,2.59c-1.94,12.21-6.19,23.24-17.13,30.28c-10.59,6.82-22.04,8.9-34.21,4.72c-1.86-0.64-3.64-1.74-5.22-2.94
		c-2.11-1.6-1.75-5.47,0.55-6.84c0.45-0.27,1.35-0.27,1.8,0c7.45,4.52,15.43,4.75,23.64,2.96c4.81-1.05,9.29-2.9,13.18-5.99
		C121.34,41.33,121.68,41.02,122.07,40.68z"/>
	<path class="st0" d="M98.45,18.71c1.55-0.52,2.88-1.11,4.27-1.4c4.1-0.83,7.15,1.62,7.36,5.78c0.44,9.08-6.54,18.59-15.04,20.2
		c-1.82,0.35-3.86,0.17-5.69-0.22c-2.94-0.64-4.62-2.94-4.91-5.95c-0.28-2.93,0.43-5.7,1.52-8.34c2.63-6.39,5.4-12.73,8.13-19.08
		c0.17-0.4,0.51-0.85,0.88-1.04c2.1-1.02,4.33-1.55,6.67-1.26c1.22,0.15,1.56,0.87,1.05,2C101.31,12.48,99.9,15.53,98.45,18.71z
		 M92.57,33.6c-0.12,3.25,1.21,4.13,3.6,2.98c0.58-0.28,1.15-0.65,1.62-1.09c2.56-2.37,3.86-5.36,4.07-8.8
		c0.15-2.48-1.41-3.42-3.63-2.28c-0.37,0.19-0.74,0.42-1.05,0.69C94.41,27.52,92.92,30.59,92.57,33.6z"/>
	<path class="st0" d="M24.99,19.88c2.21,0,4.22-0.01,6.23,0c1.79,0.01,2.3,0.62,1.93,2.34c-0.66,3.14-2.2,4.49-5.4,4.72
		c-1.5,0.1-3,0.25-4.49,0.23c-0.92-0.01-1.31,0.32-1.61,1.14c-1.47,3.89-3,7.76-4.52,11.63c-0.8,2.05-1.61,2.61-3.8,2.63
		c-1.64,0.02-3.28,0.02-4.93,0c-2.09-0.02-2.76-1.06-1.93-3.02c2.2-5.16,4.48-10.29,6.62-15.47c1.93-4.66,3.75-9.37,5.55-14.08
		c1.18-3.08,1.6-3.43,4.9-3.5c5.21-0.11,10.41-0.25,15.62-0.36c2.31-0.05,2.93,0.76,2.32,3.03c-0.12,0.45-0.27,0.9-0.45,1.33
		c-1.25,3.01-2.21,3.49-5.44,2.8c-0.69-0.15-1.38-0.3-2.08-0.36c-4.35-0.35-5.92,0.7-7.85,5.19C25.43,18.66,25.24,19.23,24.99,19.88
		z"/>
	<path class="st0" d="M68.44,43.65c-1.79-0.48-3.7-0.69-5.33-1.49c-2.9-1.44-3.01-4.83-0.41-6.75c0.96-0.71,1.87-0.69,3.01-0.21
		c1.61,0.68,3.33,1.13,5.04,1.53c0.58,0.14,1.32-0.06,1.91-0.31c1.38-0.58,1.53-1.89,0.26-2.69c-1.06-0.67-2.24-1.16-3.38-1.7
		c-5.06-2.39-5.95-6.99-2.14-11.1c3.32-3.58,10.5-5.21,15.01-3.4c1.68,0.68,2.83,1.83,3.1,3.68c0.22,1.52-0.57,2.6-1.7,3.47
		c-0.98,0.76-1.94,0.73-3.13,0.22c-1.56-0.66-3.25-1.08-4.92-1.37c-1.06-0.19-2.14,0.25-2.42,1.45c-0.27,1.14,0.66,1.66,1.51,2.08
		c1.04,0.53,2.12,0.98,3.19,1.47c5.19,2.38,5.94,7.69,1.56,11.38C76.4,42.59,72.53,43.19,68.44,43.65z"/>
	<path class="st0" d="M45.63,18.41c1.82-0.45,3.5-1.09,5.22-1.23c1.96-0.17,3.16,1.15,2.84,3.09c-0.22,1.37-0.9,2.72-1.58,3.96
		c-0.67,1.21-1.9,1.17-3.12,0.89c-3.52-0.79-6.31,0.63-7.59,4.02c-1.36,3.58-2.6,7.21-3.88,10.82c-0.67,1.89-1.4,2.43-3.42,2.45
		c-1.31,0.01-2.63,0.03-3.94-0.02c-1.81-0.06-2.42-0.95-1.73-2.72c1.45-3.75,2.98-7.47,4.51-11.19c1.17-2.86,2.31-5.73,3.61-8.52
		c0.35-0.75,1.15-1.57,1.91-1.81c1.68-0.51,3.47-0.74,5.22-0.95C44.68,17.1,45.52,17.53,45.63,18.41z"/>
	<path class="st0" d="M52.07,42.54c-0.75,0-1.5,0.05-2.25-0.01c-1.79-0.16-2.34-0.95-1.72-2.63c0.81-2.23,1.71-4.44,2.62-6.64
		c1.77-4.31,3.61-8.6,5.35-12.93c0.48-1.2,1.23-1.99,2.47-2.23c1.55-0.3,3.12-0.64,4.69-0.71c1.98-0.09,2.48,0.8,1.75,2.66
		c-1.93,4.91-3.84,9.81-5.75,14.73c-0.62,1.61-1.2,3.24-1.8,4.85c-0.94,2.54-1.52,2.94-4.23,2.95c-0.37,0-0.75,0-1.12,0
		C52.07,42.56,52.07,42.55,52.07,42.54z"/>
	<path class="st0" d="M62.75,15.37c-2.59-0.01-4.43-1.66-4.38-3.92c0.06-2.63,2.6-4.91,5.51-4.93c2.58-0.02,4.39,1.61,4.35,3.92
		C68.19,13.1,65.64,15.39,62.75,15.37z"/>
	<path class="st0" d="M108.24,39.02c0.9,1.26,1.94,2.72,3.2,4.5c-3.78,0.74-7.54,1.49-11.62,2.29
		C102.89,43.33,105.62,41.14,108.24,39.02z"/>
</g>
</svg>
