<svg id="PC3-03" xmlns="http://www.w3.org/2000/svg" xmlns:xlink="http://www.w3.org/1999/xlink" width="120.719" height="180.191" viewBox="0 0 120.719 180.191">
  <defs>
    <linearGradient id="linear-gradient" x1="1.166" y1="0.39" x2="0.132" y2="0.561" gradientUnits="objectBoundingBox">
      <stop offset="0.01" stop-color="#2be9a3"/>
      <stop offset="0.29" stop-color="#07cdbf"/>
      <stop offset="0.34" stop-color="#00c7c5"/>
      <stop offset="0.44" stop-color="#09beca"/>
      <stop offset="0.59" stop-color="#21a7d9"/>
      <stop offset="0.77" stop-color="#4881f1"/>
      <stop offset="0.82" stop-color="#5277f7"/>
    </linearGradient>
    <linearGradient id="linear-gradient-2" x1="0.085" y1="-0.73" x2="0.88" y2="1.628" gradientUnits="objectBoundingBox">
      <stop offset="0.03" stop-color="#bb6df3"/>
      <stop offset="0.38" stop-color="#976df3"/>
      <stop offset="0.56" stop-color="#836df3"/>
      <stop offset="0.69" stop-color="#796ff4"/>
      <stop offset="0.92" stop-color="#5d75f6"/>
      <stop offset="1" stop-color="#5277f7"/>
    </linearGradient>
    <linearGradient id="linear-gradient-3" x1="-0.602" y1="1.216" x2="1.36" y2="-0.318" xlink:href="#linear-gradient-2"/>
    <linearGradient id="linear-gradient-4" x1="1.257" y1="0.288" x2="0.039" y2="0.63" gradientUnits="objectBoundingBox">
      <stop offset="0.01" stop-color="#b4f759"/>
      <stop offset="0.11" stop-color="#90ed6f"/>
      <stop offset="0.33" stop-color="#35d5a5"/>
      <stop offset="0.46" stop-color="#00c7c5"/>
      <stop offset="0.72" stop-color="#2d9be0"/>
      <stop offset="0.96" stop-color="#5277f7"/>
    </linearGradient>
    <radialGradient id="radial-gradient" cx="0.5" cy="0.5" r="0.461" gradientUnits="objectBoundingBox">
      <stop offset="0" stop-color="#fff"/>
      <stop offset="1"/>
    </radialGradient>
    <linearGradient id="linear-gradient-5" x1="-0.631" y1="1.369" x2="0.711" y2="-0.321" gradientUnits="objectBoundingBox">
      <stop offset="0.01" stop-color="#5277f7"/>
      <stop offset="0.39" stop-color="#7670f4"/>
      <stop offset="0.53" stop-color="#836df3"/>
      <stop offset="0.65" stop-color="#8c6df3"/>
      <stop offset="0.85" stop-color="#a46df3"/>
      <stop offset="1" stop-color="#bb6df3"/>
    </linearGradient>
    <linearGradient id="linear-gradient-6" x1="-0.017" y1="0.916" x2="0.918" y2="0.046" gradientUnits="objectBoundingBox">
      <stop offset="0.01" stop-color="#273b98"/>
      <stop offset="0.23" stop-color="#2f2ba2"/>
      <stop offset="0.4" stop-color="#361cac"/>
      <stop offset="0.77" stop-color="#440b89"/>
      <stop offset="1" stop-color="#4e0070"/>
    </linearGradient>
    <linearGradient id="linear-gradient-7" x1="0.509" y1="1.002" x2="0.494" y2="0.091" xlink:href="#linear-gradient-6"/>
    <linearGradient id="linear-gradient-8" x1="0.448" y1="1.054" x2="0.52" y2="0.205" xlink:href="#linear-gradient-5"/>
    <linearGradient id="linear-gradient-9" x1="0.173" y1="0.727" x2="1.153" y2="0.106" gradientUnits="objectBoundingBox">
      <stop offset="0.1" stop-color="#45108a"/>
      <stop offset="1" stop-color="#7c1dc9"/>
    </linearGradient>
  </defs>
  <g id="Capa_1" data-name="Capa 1" transform="translate(0 0)">
    <path id="Trazado_2005" data-name="Trazado 2005" d="M102.541,177.4h0a10.941,10.941,0,0,1-3.171-.585.52.52,0,0,1-.325-.65.526.526,0,0,1,.65-.325,9.706,9.706,0,0,0,2.859.526.513.513,0,0,1,.507.526.52.52,0,0,1-.52.507Zm3-.565a.52.52,0,0,1-.468-.305.507.507,0,0,1,.26-.65,5.848,5.848,0,0,0,2.229-1.709.513.513,0,1,1,.793.65,6.874,6.874,0,0,1-2.6,1.995.481.481,0,0,1-.214.02Zm-8.8-1.3a.507.507,0,0,1-.253-.065l-2.67-1.533a.513.513,0,0,1-.188-.7.52.52,0,0,1,.7-.195l2.664,1.54a.52.52,0,0,1,.195.7.526.526,0,0,1-.448.279Zm-5.334-3.06a.514.514,0,0,1-.253-.071l-2.67-1.514a.52.52,0,0,1-.188-.7.513.513,0,0,1,.7-.188l2.67,1.533a.52.52,0,0,1,.188.7A.513.513,0,0,1,91.4,172.475Zm18-.208a.475.475,0,0,1-.162,0,.513.513,0,0,1-.325-.65,12.15,12.15,0,0,0,.552-2.891.52.52,0,0,1,.552-.468.507.507,0,0,1,.474.546,12.93,12.93,0,0,1-.6,3.138.513.513,0,0,1-.487.344ZM86.064,169.4a.507.507,0,0,1-.253-.065L83.147,167.8a.52.52,0,0,1-.195-.7.513.513,0,0,1,.7-.188l2.67,1.533a.513.513,0,0,1,.188.7.52.52,0,0,1-.448.273Zm-5.328-3.067a.533.533,0,0,1-.26-.065l-2.664-1.54a.513.513,0,0,1-.188-.7.52.52,0,0,1,.7-.188l2.664,1.533a.513.513,0,0,1,.188.7.5.5,0,0,1-.442.279ZM75.4,163.268a.5.5,0,0,1-.253-.071l-2.67-1.533a.514.514,0,1,1,.513-.89l2.664,1.533a.513.513,0,0,1-.253.962ZM70.068,160.2a.507.507,0,0,1-.253-.065l-2.67-1.54a.507.507,0,0,1-.188-.7.52.52,0,0,1,.7-.195l2.67,1.54a.513.513,0,0,1-.26.955Zm-5.334-3.067a.455.455,0,0,1-.253-.071l-2.644-1.514a.52.52,0,0,1-.195-.7.513.513,0,0,1,.7-.188l2.67,1.533a.513.513,0,0,1-.26.962Zm-5.328-3.067a.539.539,0,0,1-.26-.071l-2.664-1.533a.514.514,0,0,1,.513-.89L59.66,153.1a.513.513,0,0,1-.253.962Zm50.613,12.143a.513.513,0,0,1-.513-.513v-3.073a.513.513,0,0,1,1.027,0v3.073a.513.513,0,0,1-.513.533ZM54.072,151.034a.533.533,0,0,1-.26-.065l-2.664-1.54a.513.513,0,0,1-.188-.7.52.52,0,0,1,.7-.188l2.664,1.533a.52.52,0,0,1,.188.708A.507.507,0,0,1,54.072,151.034Zm-5.334-3.067a.513.513,0,0,1-.253-.071l-2.67-1.533a.514.514,0,0,1,.513-.89l2.664,1.533a.513.513,0,0,1-.253.962ZM110.02,160.1a.513.513,0,0,1-.513-.513v-3.073a.513.513,0,1,1,1.027,0v3.073a.513.513,0,0,1-.513.487ZM43.4,144.868a.507.507,0,0,1-.253-.065l-2.664-1.533a.52.52,0,0,1-.195-.7.513.513,0,0,1,.7-.188l2.651,1.507a.513.513,0,0,1,.188.7A.52.52,0,0,1,43.4,144.868ZM38.076,141.8a.474.474,0,0,1-.26-.071l-1.709-.981c-.325-.188-.65-.383-.962-.6a.513.513,0,0,1,.559-.858c.305.2.6.39.91.565l1.715.981a.513.513,0,0,1,.188.7A.5.5,0,0,1,38.076,141.8Zm71.944,12.117a.513.513,0,0,1-.513-.513v-3.073a.513.513,0,0,1,1.027,0v3.073A.513.513,0,0,1,110.02,153.919ZM32.982,138.371a.526.526,0,0,1-.338-.13,28.42,28.42,0,0,1-2.229-2.2.513.513,0,0,1,.039-.728.5.5,0,0,1,.721.039,28.583,28.583,0,0,0,2.144,2.118.52.52,0,0,1,.052.728A.546.546,0,0,1,32.982,138.371Zm77.038,9.415a.513.513,0,0,1-.513-.513V144.2a.513.513,0,0,1,1.027,0v3.073a.513.513,0,0,1-.513.513ZM28.863,133.816a.507.507,0,0,1-.416-.208c-.611-.832-1.189-1.709-1.728-2.6a.513.513,0,0,1,.884-.52c.52.871,1.085,1.722,1.67,2.521a.513.513,0,0,1-.409.819Zm81.157,7.8a.513.513,0,0,1-.513-.513v-3.06a.513.513,0,0,1,1.027,0v3.073A.513.513,0,0,1,110.02,141.613Zm-84.3-13.079a.52.52,0,0,1-.468-.3,30.328,30.328,0,0,1-1.189-2.885.514.514,0,1,1,.968-.344,29.1,29.1,0,0,0,1.15,2.794.507.507,0,0,1-.247.65.494.494,0,0,1-.214.084Zm84.3,6.907a.513.513,0,0,1-.513-.513v-3.073a.513.513,0,0,1,1.027,0v3.073a.513.513,0,0,1-.513.513Zm-86.342-12.7a.507.507,0,0,1-.5-.4,23.262,23.262,0,0,1-.513-3.106.515.515,0,0,1,1.027-.091,22.324,22.324,0,0,0,.487,2.963.513.513,0,0,1-.383.65A.357.357,0,0,1,23.678,122.739Zm86.342,6.569a.513.513,0,0,1-.513-.513v-3.1a.513.513,0,0,1,1.027,0v3.073a.513.513,0,0,1-.513.539Zm0-6.153a.513.513,0,0,1-.513-.513v-3.073a.513.513,0,0,1,1.027,0v3.073a.513.513,0,0,1-.513.513Zm0-6.153a.513.513,0,0,1-.513-.513v-3.073a.513.513,0,1,1,1.027,0v3.073A.513.513,0,0,1,110.02,117Zm-86.926-.344a.513.513,0,0,1-.513-.513v-3.073a.52.52,0,0,1,1.033,0v3.073a.513.513,0,0,1-.52.513Zm86.926-5.809a.513.513,0,0,1-.513-.513v-3.073a.513.513,0,0,1,1.027,0v3.073A.513.513,0,0,1,110.02,110.849ZM23.093,110.5a.513.513,0,0,1-.513-.513v-3.073a.52.52,0,0,1,1.033,0v3.073a.513.513,0,0,1-.52.513ZM110.02,104.7a.513.513,0,0,1-.513-.513v-3.073a.513.513,0,0,1,1.027,0v3.073A.513.513,0,0,1,110.02,104.7Zm-86.926-.344a.513.513,0,0,1-.513-.513v-3.073a.52.52,0,0,1,1.033,0v3.073a.513.513,0,0,1-.52.513Zm86.926-5.809a.513.513,0,0,1-.513-.513V94.956a.513.513,0,1,1,1.027,0V98.03A.513.513,0,0,1,110.02,98.543ZM23.093,98.2a.513.513,0,0,1-.513-.513V94.612a.52.52,0,0,1,1.033,0v3.073a.513.513,0,0,1-.52.513ZM110.02,92.39a.513.513,0,0,1-.513-.513v-1.3a12.49,12.49,0,0,0-.078-1.7.513.513,0,0,1,.461-.559.526.526,0,0,1,.559.468c.058.6.084,1.2.084,1.787v1.3a.513.513,0,0,1-.513.513Zm-86.926-.344a.513.513,0,0,1-.513-.513V88.459a.52.52,0,0,1,1.033,0v3.073a.513.513,0,0,1-.52.513Zm86.355-5.763a.513.513,0,0,1-.5-.4,27.373,27.373,0,0,0-.851-2.9.52.52,0,0,1,.975-.344,28.96,28.96,0,0,1,.877,3.008.513.513,0,0,1-.383.617.357.357,0,0,1-.117.013Zm-86.355-.39a.513.513,0,0,1-.513-.513V82.306a.52.52,0,0,1,1.033,0v3.106a.513.513,0,0,1-.52.481Zm84.321-5.406a.526.526,0,0,1-.468-.292c-.422-.9-.9-1.806-1.416-2.677a.507.507,0,0,1,.175-.7.52.52,0,0,1,.708.182c.533.9,1.027,1.826,1.462,2.755a.513.513,0,0,1-.247.689A.487.487,0,0,1,107.414,80.487ZM23.093,79.74a.513.513,0,0,1-.513-.513V76.153a.52.52,0,0,1,1.033,0v3.073a.513.513,0,0,1-.52.513Zm81.215-4.548a.533.533,0,0,1-.416-.214,29.889,29.889,0,0,0-1.9-2.346.513.513,0,0,1,.039-.728.507.507,0,0,1,.721.039,28.2,28.2,0,0,1,1.969,2.424.507.507,0,0,1-.11.715.494.494,0,0,1-.331.123Zm-81.215-1.6a.513.513,0,0,1-.513-.513V70a.52.52,0,0,1,1.033,0v3.067a.513.513,0,0,1-.52.52Zm77.077-2.943a.507.507,0,0,1-.338-.123,22.261,22.261,0,0,0-2.384-1.832.5.5,0,0,1-.143-.708.507.507,0,0,1,.708-.149,23.02,23.02,0,0,1,2.495,1.949.513.513,0,0,1-.338.9Zm-77.077-3.21a.513.513,0,0,1-.513-.513V63.848a.52.52,0,0,1,1.033,0v3.073a.513.513,0,0,1-.52.513ZM95.07,67.22a.533.533,0,0,1-.26-.065l-2.664-1.533a.514.514,0,1,1,.513-.89l2.664,1.533a.513.513,0,0,1-.253.955Zm-5.334-3.067a.455.455,0,0,1-.253-.071l-2.67-1.533a.514.514,0,0,1,.513-.89L90,63.191a.52.52,0,0,1,.188.7.513.513,0,0,1-.448.247ZM23.093,61.281a.513.513,0,0,1-.513-.513V57.695a.52.52,0,0,1,1.033,0v3.073a.513.513,0,0,1-.52.513ZM84.4,61.073A.513.513,0,0,1,84.148,61l-2.664-1.533a.52.52,0,0,1-.195-.7.513.513,0,0,1,.689-.188l2.67,1.533a.513.513,0,0,1,.188.7A.526.526,0,0,1,84.4,61.073ZM79.073,58a.533.533,0,0,1-.26-.065L76.13,56.4a.513.513,0,0,1-.188-.7.52.52,0,0,1,.7-.188l2.664,1.533a.52.52,0,0,1,.188.708A.507.507,0,0,1,79.073,58Zm-55.98-2.872a.513.513,0,0,1-.513-.513V51.542a.52.52,0,0,1,1.033,0v3.073a.513.513,0,0,1-.52.513Zm50.646-.195a.513.513,0,0,1-.253-.071l-2.67-1.533a.514.514,0,0,1,.513-.89l2.664,1.533a.513.513,0,0,1-.253.962ZM68.4,51.86a.507.507,0,0,1-.253-.065l-2.67-1.533a.52.52,0,0,1-.188-.7.513.513,0,0,1,.7-.188l2.67,1.533a.513.513,0,0,1-.26.955ZM23.093,48.975a.513.513,0,0,1-.513-.513V45.389a.52.52,0,0,1,1.033,0v3.073a.513.513,0,0,1-.52.513Zm39.977-.182a.455.455,0,0,1-.253-.071l-2.664-1.533a.52.52,0,0,1-.195-.7.513.513,0,0,1,.7-.188l2.67,1.533a.513.513,0,0,1-.26.962Zm-5.328-3.067a.539.539,0,0,1-.26-.071l-2.664-1.533a.515.515,0,1,1,.52-.89L58,44.765a.513.513,0,0,1,.188.7A.52.52,0,0,1,57.743,45.727Zm-34.65-2.9a.513.513,0,0,1-.513-.513V40.471a12.344,12.344,0,0,1,.045-1.3.533.533,0,0,1,.552-.474.513.513,0,0,1,.474.552c0,.383-.039.78-.039,1.2v1.839a.513.513,0,0,1-.52.539Zm29.316-.169a.494.494,0,0,1-.253-.065l-2.664-1.533a.513.513,0,0,1-.188-.7.52.52,0,0,1,.7-.195l2.664,1.54a.513.513,0,0,1-.253.955Zm-5.334-3.067a.513.513,0,0,1-.253-.071l-2.67-1.533a.514.514,0,1,1,.513-.89l2.67,1.54a.526.526,0,0,1,.208.7A.52.52,0,0,1,47.075,39.587Zm-23.39-2.852a.435.435,0,0,1-.156,0,.513.513,0,0,1-.331-.65,9.024,9.024,0,0,1,1.52-2.859.52.52,0,0,1,.734-.1.507.507,0,0,1,.071.721,7.94,7.94,0,0,0-1.338,2.54.52.52,0,0,1-.474.351Zm18.03-.221a.507.507,0,0,1-.253-.065L38.8,34.915a.52.52,0,0,1-.195-.7.513.513,0,0,1,.7-.188l2.67,1.533a.513.513,0,0,1,.188.7.52.52,0,0,1-.422.253Zm-5.321-3.08a.559.559,0,0,1-.24-.065l-.045-.032a15,15,0,0,0-2.7-1.2.513.513,0,0,1-.325-.65.52.52,0,0,1,.65-.325,15.717,15.717,0,0,1,2.885,1.3.533.533,0,0,1,.214.715.513.513,0,0,1-.435.26Zm-8.836-1.3a.513.513,0,0,1-.208-.988,7.53,7.53,0,0,1,3.06-.617h.149a.513.513,0,0,1,0,1.027h-.143a6.5,6.5,0,0,0-2.644.533.5.5,0,0,1-.214.084Z" transform="translate(-7.909 -10.679)" opacity="0.95" fill="url(#linear-gradient)"/>
    <path id="Trazado_2006" data-name="Trazado 2006" d="M29.514,120.584c0,9.1-6.432,12.767-14.359,8.187S.79,113.1.79,104s6.426-12.767,14.359-8.187S29.514,111.488,29.514,120.584Z" transform="translate(-0.277 -32.856)" fill="#fff"/>
    <path id="Trazado_2007" data-name="Trazado 2007" d="M21.317,130.968a13.5,13.5,0,0,1-6.705-2.04C6.556,124.276,0,112.971,0,103.725c0-6.5,3.307-10.675,8.446-10.675a13.56,13.56,0,0,1,6.7,2.04c8.063,4.652,14.619,15.964,14.619,25.209C29.744,126.8,26.431,130.968,21.317,130.968ZM8.446,94.077c-4.548,0-7.4,3.7-7.4,9.648,0,8.921,6.328,19.83,14.1,24.313a12.5,12.5,0,0,0,6.192,1.9c4.548,0,7.394-3.69,7.394-9.642,0-8.921-6.322-19.83-14.1-24.319A12.546,12.546,0,0,0,8.446,94.077Z" transform="translate(0 -32.578)" fill="url(#linear-gradient-2)"/>
    <path id="Trazado_2008" data-name="Trazado 2008" d="M26.906,113.154a30.212,30.212,0,0,1-9.2-8.583h-.039c-2.69.6-5.906-.1-9.194-2.04l-.123-.071.175,2.365c.65,8.323,3.9,15.158,9.1,23.247l.13.071c5.23-2.053,8.446-5.133,9.1-12.735l.182-2.2Zm-4.548,2.488c-.325,3.9-1.988,5.471-4.665,6.5l-.065-.039c-2.651-4.113-4.308-7.6-4.633-11.877l-.091-1.215.065.039a6.625,6.625,0,0,0,4.71,1.046h0a15.411,15.411,0,0,0,4.736,4.412l.065.039Z" transform="translate(-2.925 -35.874)" fill="url(#linear-gradient-3)"/>
    <g id="Grupo_2843" data-name="Grupo 2843" transform="translate(76.336 23.341)" opacity="0.3">
      <path id="Trazado_2009" data-name="Trazado 2009" d="M124.985,36.31c-3.5-2.021-6.335,3.9-6.335,7.9V94.954a13.97,13.97,0,0,0,6.335,10.928l29.549,17.01c3.5,2.021,7.745.182,7.745-3.833V64.033c0-4.015-4.243-8.687-7.745-10.707Z" transform="translate(-117.896 -35.901)" fill="#afb6e5" opacity="0"/>
      <path id="Trazado_2010" data-name="Trazado 2010" d="M124.868,36.767c-3.5-2.021-6.328,3.489-6.328,7.5V94.742a13.94,13.94,0,0,0,6.328,10.915l29.452,16.951c3.5,2.021,7.6.2,7.6-3.807V64.407c0-4.015-4.106-8.7-7.6-10.714Z" transform="translate(-117.858 -36.053)" fill="#a7addf" opacity="0.09"/>
      <path id="Trazado_2011" data-name="Trazado 2011" d="M124.762,37.134c-3.5-2.021-6.322,3.1-6.322,7.108v50.2a13.91,13.91,0,0,0,6.322,10.9L154.1,122.242c3.489,2.014,7.465.221,7.465-3.781V64.748c0-4.009-3.976-8.706-7.465-10.727Z" transform="translate(-117.823 -36.173)" fill="#a0a5d9" opacity="0.18"/>
      <path id="Trazado_2012" data-name="Trazado 2012" d="M124.645,37.541c-3.489-2.014-6.315,2.709-6.315,6.712V94.2a13.917,13.917,0,0,0,6.315,10.889l29.238,16.828c3.489,2.014,7.335.24,7.335-3.762V65.1c0-4-3.846-8.713-7.335-10.727Z" transform="translate(-117.784 -36.307)" fill="#989cd3" opacity="0.27"/>
      <path id="Trazado_2013" data-name="Trazado 2013" d="M124.532,37.945c-3.483-2.014-6.3,2.326-6.3,6.322V93.939a13.9,13.9,0,0,0,6.3,10.876l29.134,16.8c3.483,2.008,7.2.26,7.2-3.736V65.448c0-4-3.716-8.726-7.2-10.733Z" transform="translate(-117.749 -36.438)" fill="#9094cd" opacity="0.36"/>
      <path id="Trazado_2014" data-name="Trazado 2014" d="M124.416,38.349c-3.476-2.008-6.3,1.949-6.3,5.925V93.654a13.884,13.884,0,0,0,6.3,10.863l29.036,16.711c3.476,2.008,7.056.279,7.056-3.71V65.8c0-3.989-3.58-8.732-7.056-10.74Z" transform="translate(-117.711 -36.569)" fill="#898bc7" opacity="0.45"/>
      <path id="Trazado_2015" data-name="Trazado 2015" d="M124.3,38.752c-3.47-1.988-6.3,1.546-6.3,5.529V93.42a13.871,13.871,0,0,0,6.289,10.85l28.932,16.652c3.469,2,6.926.3,6.926-3.69V66.151c0-3.989-3.457-8.745-6.926-10.746Z" transform="translate(-117.669 -36.7)" fill="#8183c1" opacity="0.55"/>
      <path id="Trazado_2016" data-name="Trazado 2016" d="M124.193,39.147c-3.47-2-6.283,1.157-6.283,5.139V93.158a13.839,13.839,0,0,0,6.283,10.831l28.822,16.594c3.47,2,6.79.318,6.79-3.664V66.487c0-3.976-3.32-8.745-6.79-10.753Z" transform="translate(-117.637 -36.821)" fill="#7a7abb" opacity="0.64"/>
      <path id="Trazado_2017" data-name="Trazado 2017" d="M124.076,39.54c-3.463-2-6.276.767-6.276,4.743v48.6a13.826,13.826,0,0,0,6.276,10.818l28.718,16.535c3.463,1.995,6.66.338,6.66-3.638V66.829c0-3.976-3.2-8.758-6.66-10.759Z" transform="translate(-117.599 -36.942)" fill="#7272b5" opacity="0.73"/>
      <path id="Trazado_2018" data-name="Trazado 2018" d="M123.963,39.932c-3.463-1.995-6.263.383-6.263,4.353V92.618a13.789,13.789,0,0,0,6.263,10.8l28.588,16.471c3.463,2,6.5.364,6.5-3.612V67.168c0-3.97-3.06-8.771-6.5-10.766Z" transform="translate(-117.564 -37.061)" fill="#6a69af" opacity="0.82"/>
      <path id="Trazado_2019" data-name="Trazado 2019" d="M123.847,40.318c-3.457-1.995-6.257,0-6.257,3.957v48.08a13.8,13.8,0,0,0,6.257,10.8l28.516,16.406c3.45,1.995,6.38.377,6.38-3.586V67.5c0-3.963-2.93-8.778-6.38-10.772Z" transform="translate(-117.525 -37.174)" fill="#6361a9" opacity="0.91"/>
      <path id="Trazado_2020" data-name="Trazado 2020" d="M123.734,40.7c-3.45-1.995-6.244-.4-6.244,3.56V92.064a13.777,13.777,0,0,0,6.244,10.779l28.412,16.367c3.45,1.995,6.25.4,6.25-3.56V67.829a13.763,13.763,0,0,0-6.25-10.779Z" transform="translate(-117.49 -37.28)" fill="#5b58a3"/>
    </g>
    <path id="Trazado_2021" data-name="Trazado 2021" d="M128.416,105.41,52.691,62.32c-3.3-1.9-5.971-7.011-5.971-11.4V5.222c0-4.4,2.67-6.419,5.971-4.548L128.416,43.8c3.3,1.9,5.971,7.011,5.971,11.409v45.689C134.387,105.293,131.717,107.313,128.416,105.41Z" transform="translate(-16.365 0.023)" opacity="0.9" fill="url(#linear-gradient-4)"/>
    <path id="Trazado_2022" data-name="Trazado 2022" d="M128.651,43.8,52.926.715C50.385-.734,48.267.1,47.39,2.515c.988-1.995,3-2.6,5.3-1.26l75.732,43.09c3.294,1.9,5.971,7.011,5.971,11.4v45.7a7.8,7.8,0,0,1-.435,2.709,7.27,7.27,0,0,0,.65-3.249V55.227C134.622,50.815,131.951,45.708,128.651,43.8Z" transform="translate(-16.6 0.015)" fill="url(#radial-gradient)"/>
    <path id="Trazado_2023" data-name="Trazado 2023" d="M60.44,23.222,80.49,34.579,80.5,32.87,60.44,21.5Z" transform="translate(-21.171 -7.516)" fill="#fff"/>
    <path id="Trazado_2024" data-name="Trazado 2024" d="M110.455,51.5c0,1.3-.929,1.839-2.073,1.182a4.548,4.548,0,0,1-2.073-3.573c0-1.3.923-1.845,2.073-1.182A4.548,4.548,0,0,1,110.455,51.5Z" transform="translate(-37.238 -16.674)" fill="#fff"/>
    <path id="Trazado_2025" data-name="Trazado 2025" d="M128.355,61.491c0,1.3-.929,1.839-2.073,1.182A4.548,4.548,0,0,1,124.21,59.1c0-1.3.929-1.845,2.073-1.182a4.548,4.548,0,0,1,2.073,3.573Z" transform="translate(-43.508 -20.173)" fill="#fff"/>
    <ellipse id="Elipse_105" data-name="Elipse 105" cx="1.689" cy="2.924" rx="1.689" ry="2.924" transform="translate(91.479 44.943) rotate(-30.31)" fill="#fff"/>
    <ellipse id="Elipse_106" data-name="Elipse 106" cx="1.689" cy="2.924" rx="1.689" ry="2.924" transform="translate(103.106 51.434) rotate(-30.31)" fill="#fff"/>
    <path id="Trazado_2026" data-name="Trazado 2026" d="M60.44,51.155,80.49,62.519,80.5,60.8,60.44,49.44Z" transform="translate(-21.171 -17.302)" fill="#fff"/>
    <path id="Trazado_2027" data-name="Trazado 2027" d="M110.455,79.431c0,1.3-.929,1.845-2.073,1.182a4.548,4.548,0,0,1-2.073-3.573c0-1.3.923-1.845,2.073-1.183A4.548,4.548,0,0,1,110.455,79.431Z" transform="translate(-37.238 -26.457)" fill="#fff"/>
    <path id="Trazado_2028" data-name="Trazado 2028" d="M128.355,89.421c0,1.3-.929,1.845-2.073,1.183a4.548,4.548,0,0,1-2.073-3.573c0-1.3.929-1.845,2.073-1.182a4.548,4.548,0,0,1,2.073,3.573Z" transform="translate(-43.508 -29.956)" fill="#fff"/>
    <path id="Trazado_2029" data-name="Trazado 2029" d="M146.259,99.411c0,1.3-.923,1.845-2.066,1.182a4.548,4.548,0,0,1-2.073-3.573c0-1.3.923-1.845,2.073-1.183A4.548,4.548,0,0,1,146.259,99.411Z" transform="translate(-49.781 -33.455)" fill="#fff"/>
    <ellipse id="Elipse_107" data-name="Elipse 107" cx="1.689" cy="2.924" rx="1.689" ry="2.924" transform="translate(103.11 69.582) rotate(-30.31)" fill="#fff"/>
    <path id="Trazado_2030" data-name="Trazado 2030" d="M60.44,80.355,80.49,91.719,80.5,90,60.44,78.64Z" transform="translate(-21.171 -27.53)" fill="#fff"/>
    <path id="Trazado_2031" data-name="Trazado 2031" d="M110.455,108.631c0,1.3-.929,1.845-2.073,1.183a4.548,4.548,0,0,1-2.073-3.573c0-1.3.923-1.845,2.073-1.182a4.548,4.548,0,0,1,2.073,3.573Z" transform="translate(-37.238 -36.685)" fill="#fff"/>
    <path id="Trazado_2032" data-name="Trazado 2032" d="M128.355,118.621c0,1.3-.929,1.845-2.073,1.182a4.548,4.548,0,0,1-2.073-3.573c0-1.3.929-1.845,2.073-1.182a4.548,4.548,0,0,1,2.073,3.573Z" transform="translate(-43.508 -40.184)" fill="#fff"/>
    <path id="Trazado_2033" data-name="Trazado 2033" d="M146.259,128.611c0,1.3-.923,1.845-2.066,1.182a4.548,4.548,0,0,1-2.073-3.573c0-1.3.923-1.845,2.073-1.182A4.548,4.548,0,0,1,146.259,128.611Z" transform="translate(-49.781 -43.683)" fill="#fff"/>
    <path id="Trazado_2034" data-name="Trazado 2034" d="M164.158,138.6c0,1.3-.929,1.845-2.073,1.183A4.548,4.548,0,0,1,160,136.21c0-1.3.929-1.845,2.073-1.183a4.548,4.548,0,0,1,2.086,3.574Z" transform="translate(-56.044 -47.183)" fill="#fff"/>
    <g id="Grupo_2844" data-name="Grupo 2844" transform="translate(32.471 19.694)" opacity="0.3">
      <path id="Trazado_2035" data-name="Trazado 2035" d="M132.689,77.823a.312.312,0,0,1-.169-.045L50.154,30.945a.351.351,0,0,1-.13-.481.344.344,0,0,1,.474-.13l82.365,46.832a.351.351,0,0,1-.175.65Z" transform="translate(-49.977 -30.288)" fill="#afb6e5"/>
    </g>
    <g id="Grupo_2845" data-name="Grupo 2845" transform="translate(32.471 38.919)" opacity="0.3">
      <path id="Trazado_2036" data-name="Trazado 2036" d="M132.689,107.387a.312.312,0,0,1-.182,0L50.154,60.535a.351.351,0,0,1-.13-.481.344.344,0,0,1,.474-.13l82.365,46.813a.351.351,0,0,1-.175.65Z" transform="translate(-49.977 -59.878)" fill="#afb6e5"/>
    </g>
    <path id="Trazado_2037" data-name="Trazado 2037" d="M110.047,51.6c0,.76-.539,1.066-1.2.682a2.644,2.644,0,0,1-1.2-2.066c0-.754.539-1.059,1.2-.682A2.651,2.651,0,0,1,110.047,51.6Z" transform="translate(-37.707 -17.278)" fill="#273b98"/>
    <path id="Trazado_2038" data-name="Trazado 2038" d="M145.857,99.516c0,.76-.539,1.066-1.2.682a2.6,2.6,0,0,1-1.2-2.06c0-.76.539-1.066,1.2-.65a2.638,2.638,0,0,1,1.2,2.027Z" transform="translate(-50.251 -34.068)" fill="#273b98"/>
    <path id="Trazado_2039" data-name="Trazado 2039" d="M127.951,118.709c0,.76-.533,1.066-1.2.65a2.6,2.6,0,0,1-1.2-2.06c0-.76.533-1.066,1.2-.65A2.6,2.6,0,0,1,127.951,118.709Z" transform="translate(-43.981 -40.779)" fill="#273b98"/>
    <g id="Grupo_2846" data-name="Grupo 2846" transform="translate(30.271 161.71)" opacity="0.2">
      <path id="Trazado_2040" data-name="Trazado 2040" d="M53.133,267.347a6.809,6.809,0,0,1-3.4-.851l-1.189-1.1a3.613,3.613,0,0,1-1.949-3.119,4.2,4.2,0,0,1,2.352-3.535l11.7-8.83a8.394,8.394,0,0,1,4.132-1.046,6.829,6.829,0,0,1,3.411.819l4.795,2.138a3.613,3.613,0,0,1,1.949,3.112,4.184,4.184,0,0,1-2.352,3.535l-7.667,3.9-7.667,3.9A8.446,8.446,0,0,1,53.133,267.347Z" transform="translate(-46.59 -248.867)" fill="#afb6e5" opacity="0"/>
      <path id="Trazado_2041" data-name="Trazado 2041" d="M72.235,252.729a3.476,3.476,0,0,1,1.884,2.989,4.035,4.035,0,0,1-2.255,3.4l-2.222,1.137-2.105,1.078s-3.041,1.533-3.041,1.54-7.348,3.716-7.374,3.71a7.634,7.634,0,0,1-2.495.871,9.3,9.3,0,0,1-1.481.117,6.575,6.575,0,0,1-3.249-.8l-1.143-1.053a3.463,3.463,0,0,1-1.884-2.989,4.022,4.022,0,0,1,2.255-3.4l2.229-1.683,1.949-1.481s7.05-5.3,7.075-5.289a8.186,8.186,0,0,1,5.7-.806,5.772,5.772,0,0,1,1.553.6Z" transform="translate(-46.688 -249.218)" fill="#abb2e2" opacity="0.05"/>
      <path id="Trazado_2042" data-name="Trazado 2042" d="M71.452,253.588a3.333,3.333,0,0,1,1.806,2.865,3.853,3.853,0,0,1-2.151,3.249l-2.125,1.091-2.021,1.04-2.917,1.475c-.052,0-7.043,3.541-7.088,3.535a7.74,7.74,0,0,1-2.4.812,8.5,8.5,0,0,1-1.416.1,6.367,6.367,0,0,1-3.132-.773l-1.1-1.007a3.346,3.346,0,0,1-1.806-2.865,3.859,3.859,0,0,1,2.151-3.249s2.125-1.6,2.138-1.618l1.884-1.423c.045,0,6.751-5.048,6.8-5.042a7.8,7.8,0,0,1,3.853-.942,7.456,7.456,0,0,1,1.65.195,5.458,5.458,0,0,1,1.488.578Z" transform="translate(-46.769 -249.557)" fill="#a7addf" opacity="0.1"/>
      <path id="Trazado_2043" data-name="Trazado 2043" d="M70.665,254.44a3.19,3.19,0,0,1,1.735,2.742,3.7,3.7,0,0,1-2.053,3.132l-2.034,1.053-1.949,1s-2.768,1.4-2.8,1.41-6.705,3.366-6.777,3.346a7.336,7.336,0,0,1-2.294.76,8.493,8.493,0,0,1-1.351.091,6.167,6.167,0,0,1-3-.747l-1.079-.962a3.249,3.249,0,0,1-1.741-2.742,3.7,3.7,0,0,1,2.073-3.158s2.027-1.533,2.047-1.546l1.806-1.371c.065-.032,6.452-4.8,6.5-4.795a7.452,7.452,0,0,1,3.658-.884,7.243,7.243,0,0,1,1.579.188,5.407,5.407,0,0,1,1.423.552Z" transform="translate(-46.846 -249.883)" fill="#a3a9dc" opacity="0.14"/>
      <path id="Trazado_2044" data-name="Trazado 2044" d="M69.9,255.334a3.073,3.073,0,0,1,1.67,2.6,3.547,3.547,0,0,1-1.949,3l-1.949,1.007-1.839.962c-.039,0-2.638,1.338-2.677,1.351s-6.413,3.184-6.5,3.158a6.882,6.882,0,0,1-2.19.708,8.589,8.589,0,0,1-1.3.085,5.958,5.958,0,0,1-2.865-.728l-1.02-.89a3.08,3.08,0,0,1-1.67-2.6,3.522,3.522,0,0,1,1.949-3s1.949-1.462,1.949-1.481l1.722-1.3c.091-.052,6.153-4.548,6.257-4.548a7.147,7.147,0,0,1,3.5-.825,7.035,7.035,0,0,1,1.507.182,5.58,5.58,0,0,1,1.358.533Z" transform="translate(-46.947 -250.258)" fill="#9fa4d8" opacity="0.19"/>
      <path id="Trazado_2045" data-name="Trazado 2045" d="M69.108,256.176a2.943,2.943,0,0,1,1.572,2.495,3.385,3.385,0,0,1-1.858,2.872l-1.852.962-1.748.929c-.045,0-2.5,1.3-2.56,1.3s-6.1,3.008-6.211,2.982a7.077,7.077,0,0,1-2.1.65,8.548,8.548,0,0,1-1.228.065,5.736,5.736,0,0,1-2.729-.7l-.975-.871a2.943,2.943,0,0,1-1.592-2.495,3.372,3.372,0,0,1,1.845-2.865s1.826-1.384,1.871-1.41l1.637-1.247c.11-.065,5.847-4.314,5.984-4.308a6.88,6.88,0,0,1,3.34-.773,7.233,7.233,0,0,1,1.436.182,5.32,5.32,0,0,1,1.3.513Z" transform="translate(-47.024 -250.58)" fill="#9ba0d5" opacity="0.24"/>
      <path id="Trazado_2046" data-name="Trazado 2046" d="M68.346,257.049a2.794,2.794,0,0,1,1.52,2.372,3.249,3.249,0,0,1-1.748,2.735c-.032,0-1.722.9-1.761.923l-1.67.884c-.052.033-2.365,1.2-2.43,1.222s-5.789,2.826-5.925,2.794a6.663,6.663,0,0,1-1.995.6,8.719,8.719,0,0,1-1.17.052,5.458,5.458,0,0,1-2.6-.65l-.929-.825a2.8,2.8,0,0,1-1.52-2.365,3.2,3.2,0,0,1,1.748-2.735s1.728-1.3,1.78-1.345l1.559-1.189c.13-.071,5.549-4.067,5.7-4.061a6.627,6.627,0,0,1,3.177-.715,6.5,6.5,0,0,1,1.364.182,4.845,4.845,0,0,1,1.234.487Z" transform="translate(-47.126 -250.926)" fill="#979bd2" opacity="0.29"/>
      <path id="Trazado_2047" data-name="Trazado 2047" d="M67.576,257.873a2.664,2.664,0,0,1,1.449,2.248,3.06,3.06,0,0,1-1.65,2.6c0,.033-1.618.851-1.67.877l-1.579.851c-.058,0-2.235,1.13-2.307,1.156-.175.045-5.484,2.651-5.64,2.6a6.251,6.251,0,0,1-1.891.552,7.913,7.913,0,0,1-1.111.039,5.327,5.327,0,0,1-2.456-.65l-.884-.786a2.657,2.657,0,0,1-1.449-2.242,3.027,3.027,0,0,1,1.637-2.6c.032-.039,1.631-1.241,1.689-1.3l1.475-1.137c.149-.084,5.25-3.82,5.432-3.814a6.4,6.4,0,0,1,3.021-.65,6.273,6.273,0,0,1,1.3.175,4.685,4.685,0,0,1,1.169.468Z" transform="translate(-47.221 -251.231)" fill="#9397cf" opacity="0.33"/>
      <path id="Trazado_2048" data-name="Trazado 2048" d="M66.8,258.759a2.534,2.534,0,0,1,1.377,2.118,2.9,2.9,0,0,1-1.553,2.495c-.039.039-1.52.8-1.579.838L63.558,265c-.071.045-2.105,1.066-2.19,1.092-.2.058-5.2,2.475-5.347,2.43a6.354,6.354,0,0,1-1.793.494,8,8,0,0,1-1.046.033,5.113,5.113,0,0,1-2.32-.65l-.845-.741a2.56,2.56,0,0,1-1.377-2.118,2.865,2.865,0,0,1,1.533-2.436c.039-.046,1.533-1.17,1.6-1.208l1.4-1.072c.169-.1,4.944-3.58,5.159-3.573a6.088,6.088,0,0,1,4.08-.429,4.55,4.55,0,0,1,1.1.448Z" transform="translate(-47.308 -251.591)" fill="#8f92cc" opacity="0.38"/>
      <path id="Trazado_2049" data-name="Trazado 2049" d="M66.02,259.608a2.411,2.411,0,0,1,1.3,2,2.716,2.716,0,0,1-1.468,2.332c-.045.045-1.416.76-1.488.8l-1.4.773c-.078.046-1.949,1-2.066,1.027-.227.059-4.853,2.294-5.061,2.242a6.158,6.158,0,0,1-1.689.448,8.3,8.3,0,0,1-.988,0,4.919,4.919,0,0,1-2.183-.6l-.8-.7a2.411,2.411,0,0,1-1.3-1.995,2.729,2.729,0,0,1,1.436-2.333c.045-.045,1.436-1.091,1.507-1.137l1.3-1.014c.195-.11,4.652-3.333,4.886-3.327a5.847,5.847,0,0,1,2.7-.546,6.361,6.361,0,0,1,1.15.169,4.97,4.97,0,0,1,1.04.422Z" transform="translate(-47.392 -251.92)" fill="#8b8ec9" opacity="0.43"/>
      <path id="Trazado_2050" data-name="Trazado 2050" d="M65.254,260.474a2.267,2.267,0,0,1,1.234,1.878,2.547,2.547,0,0,1-1.351,2.2c-.045.052-1.3.715-1.39.754l-1.3.734c-.091.052-1.845.936-1.949.962-.247.071-4.548,2.118-4.769,2.066a5.9,5.9,0,0,1-1.585.39,8.868,8.868,0,0,1-.929,0,4.737,4.737,0,0,1-2.047-.572l-.754-.65a2.261,2.261,0,0,1-1.234-1.871,2.547,2.547,0,0,1,1.332-2.2c.052-.052,1.338-1.02,1.416-1.072l1.234-.955c.214-.123,4.347-3.086,4.613-3.08a5.5,5.5,0,0,1,2.54-.487,5.2,5.2,0,0,1,1.079.169,4.507,4.507,0,0,1,.975.4Z" transform="translate(-47.497 -252.266)" fill="#8789c6" opacity="0.48"/>
      <path id="Trazado_2051" data-name="Trazado 2051" d="M64.474,261.342a2.124,2.124,0,0,1,1.163,1.748,2.4,2.4,0,0,1-1.254,2.073c-.052.058-1.215.65-1.3.715l-1.221.7c-.1.052-1.715.864-1.826.9-.273.078-4.23,1.949-4.483,1.878a5.526,5.526,0,0,1-1.488.338,7.7,7.7,0,0,1-.864,0,4.548,4.548,0,0,1-1.91-.552l-.715-.6a2.131,2.131,0,0,1-1.157-1.748,2.371,2.371,0,0,1,1.228-2.06c.058-.059,1.234-.949,1.3-1l1.15-.9c.24-.136,4.054-2.839,4.34-2.833a5.2,5.2,0,0,1,2.384-.429,5.015,5.015,0,0,1,1.007.162,4.385,4.385,0,0,1,.91.377Z" transform="translate(-47.581 -252.608)" fill="#8385c2" opacity="0.52"/>
      <path id="Trazado_2052" data-name="Trazado 2052" d="M63.7,262.193a2.014,2.014,0,0,1,1.092,1.631,2.254,2.254,0,0,1-1.15,1.949c-.058.058-1.124.617-1.215.65l-1.131.65c-.11.065-1.579.8-1.709.838-.3.084-3.9,1.761-4.191,1.689a5.29,5.29,0,0,1-1.384.286h-.806a4.426,4.426,0,0,1-1.78-.526l-.65-.559a2.014,2.014,0,0,1-1.092-1.618,2.222,2.222,0,0,1,1.137-1.949c.058-.065,1.131-.884,1.228-.936l1.085-.825c.26-.156,3.749-2.6,4.061-2.6a4.88,4.88,0,0,1,2.222-.37,4.69,4.69,0,0,1,.936.156,4.187,4.187,0,0,1,.851.357Z" transform="translate(-47.676 -252.939)" fill="#7f80bf" opacity="0.57"/>
      <path id="Trazado_2053" data-name="Trazado 2053" d="M62.9,263.066a1.871,1.871,0,0,1,1.02,1.5,2.092,2.092,0,0,1-1.053,1.8c-.065.065-1.027.572-1.118.65l-1.046.617c-.117.065-1.449.728-1.585.767a41.772,41.772,0,0,1-3.9,1.514,5.926,5.926,0,0,1-1.3.234c-.195,0-.546-.039-.747-.039a4.275,4.275,0,0,1-1.644-.5l-.65-.513A1.891,1.891,0,0,1,49.87,267.6a2.047,2.047,0,0,1,1.033-1.793c.065-.071,1.033-.812,1.137-.871l.988-.78a38.046,38.046,0,0,1,3.794-2.346,4.633,4.633,0,0,1,2.06-.318,4.437,4.437,0,0,1,.864.162,4.328,4.328,0,0,1,.793.331Z" transform="translate(-47.739 -253.285)" fill="#7b7cbc" opacity="0.62"/>
      <path id="Trazado_2054" data-name="Trazado 2054" d="M62.151,263.924a1.728,1.728,0,0,1,.942,1.384,1.91,1.91,0,0,1-.949,1.67c-.065.065-.923.526-1.027.585l-.955.578c-.123.072-1.3.65-1.468.708a27.128,27.128,0,0,1-3.606,1.3,5.471,5.471,0,0,1-1.189.182c-.169,0-.507-.052-.65-.052a4.144,4.144,0,0,1-1.507-.474l-.578-.468A1.748,1.748,0,0,1,50.19,268a1.891,1.891,0,0,1,.929-1.663c.065-.078.936-.734,1.053-.8l.9-.721a30.035,30.035,0,0,1,3.515-2.1,4.432,4.432,0,0,1,1.9-.26,4.29,4.29,0,0,1,.793.156,3.835,3.835,0,0,1,.728.312Z" transform="translate(-47.851 -253.624)" fill="#7777b9" opacity="0.67"/>
      <path id="Trazado_2055" data-name="Trazado 2055" d="M61.357,264.785a1.624,1.624,0,0,1,.877,1.26,1.748,1.748,0,0,1-.851,1.54c-.071.071-.825.481-.936.539l-.864.546c-.136.078-1.189.6-1.345.65a23.136,23.136,0,0,1-3.32,1.144,5.39,5.39,0,0,1-1.085.13c-.143,0-.474-.059-.65-.059a4.016,4.016,0,0,1-1.371-.455l-.533-.422a1.611,1.611,0,0,1-.871-1.247,1.722,1.722,0,0,1,.825-1.527,11.661,11.661,0,0,1,.962-.734l.825-.65a22.457,22.457,0,0,1,3.249-1.852,3.938,3.938,0,0,1,2.469-.052,4.082,4.082,0,0,1,.65.286Z" transform="translate(-47.928 -253.966)" fill="#7373b6" opacity="0.71"/>
      <path id="Trazado_2056" data-name="Trazado 2056" d="M60.59,265.629a1.468,1.468,0,0,1,.806,1.13,1.6,1.6,0,0,1-.76,1.41c-.078.078-.721.429-.845.5l-.773.5a13.258,13.258,0,0,1-1.228.578,18.486,18.486,0,0,1-3.028.962,6.117,6.117,0,0,1-.981.078c-.123,0-.442-.078-.565-.078a3.806,3.806,0,0,1-1.234-.429l-.494-.377a1.507,1.507,0,0,1-.8-1.124,1.566,1.566,0,0,1,.734-1.416,8.5,8.5,0,0,1,.871-.65l.741-.6A17.593,17.593,0,0,1,56,264.5a3.808,3.808,0,0,1,1.585-.143,4.112,4.112,0,0,1,.65.143,5.541,5.541,0,0,1,.6.266Z" transform="translate(-48.025 -254.282)" fill="#6f6eb3" opacity="0.76"/>
      <path id="Trazado_2057" data-name="Trazado 2057" d="M59.835,266.489a1.377,1.377,0,0,1,.734,1.014,1.423,1.423,0,0,1-.65,1.267,7.346,7.346,0,0,1-.747.461l-.689.468c-.156.084-.929.461-1.1.513a13.725,13.725,0,0,1-2.742.773,5.7,5.7,0,0,1-.884,0c-.091,0-.4-.091-.5-.091a3.822,3.822,0,0,1-1.1-.4l-.448-.331a1.351,1.351,0,0,1-.708-.968,1.4,1.4,0,0,1,.65-1.261,6.306,6.306,0,0,1,.78-.6l.65-.546a13.1,13.1,0,0,1,2.69-1.364,3.638,3.638,0,0,1,1.429-.091,4.187,4.187,0,0,1,.578.149,4.421,4.421,0,0,1,.533.24Z" transform="translate(-48.134 -254.623)" fill="#6b6ab0" opacity="0.81"/>
      <path id="Trazado_2058" data-name="Trazado 2058" d="M59.057,267.353a1.215,1.215,0,0,1,.65.884,1.241,1.241,0,0,1-.546,1.137,5.842,5.842,0,0,1-.65.422l-.6.422a6.742,6.742,0,0,1-.975.422,10.047,10.047,0,0,1-2.449.6,3.129,3.129,0,0,1-.78,0c-.071,0-.364-.1-.435-.1a3.944,3.944,0,0,1-.968-.377l-.4-.286a1.222,1.222,0,0,1-.65-.871,1.234,1.234,0,0,1,.52-1.131,5.462,5.462,0,0,1,.689-.526l.578-.487a9.383,9.383,0,0,1,2.423-1.111,3.287,3.287,0,0,1,1.26-.039,3.589,3.589,0,0,1,.507.143,2.243,2.243,0,0,1,.474.221Z" transform="translate(-48.219 -254.961)" fill="#6765ac" opacity="0.86"/>
      <path id="Trazado_2059" data-name="Trazado 2059" d="M58.285,268.194a1.007,1.007,0,0,1,.136,1.767,3.488,3.488,0,0,1-.572.377l-.513.39a6.022,6.022,0,0,1-.858.383,7.1,7.1,0,0,1-2.164.409,2.6,2.6,0,0,1-.65-.085,3.617,3.617,0,0,1-.377-.11,4.551,4.551,0,0,1-.832-.357l-.364-.24a1.124,1.124,0,0,1-.578-.747,1.072,1.072,0,0,1,.416-.994,4.131,4.131,0,0,1,.6-.461l.5-.429a6.824,6.824,0,0,1,2.144-.864,3,3,0,0,1,1.1,0,3.822,3.822,0,0,1,.435.136,2.4,2.4,0,0,1,.409.2Z" transform="translate(-48.312 -255.282)" fill="#6361a9" opacity="0.9"/>
      <path id="Trazado_2060" data-name="Trazado 2060" d="M57.493,269.029a.981.981,0,0,1,.513.65.949.949,0,0,1-.351.871,3.035,3.035,0,0,1-.474.331l-.429.351a4.263,4.263,0,0,1-.741.325,4.823,4.823,0,0,1-1.871.221,2.291,2.291,0,0,1-.572-.13s-.3-.13-.318-.13a6.208,6.208,0,0,1-.7-.331l-.318-.195a1.02,1.02,0,0,1-.513-.65.916.916,0,0,1,.318-.858,2.671,2.671,0,0,1,.507-.39l.416-.37a4.692,4.692,0,0,1,1.871-.65,2.86,2.86,0,0,1,.949.078c.13.033.247.091.364.13l.344.182Z" transform="translate(-48.384 -255.591)" fill="#5f5ca6" opacity="0.95"/>
      <path id="Trazado_2061" data-name="Trazado 2061" d="M53.5,271.852l-1.085-.6c-.689-.4-.6-1.092.188-1.546l.338-.312a2.963,2.963,0,0,1,2.677-.111l1.085.6c.689.4.6,1.085-.188,1.546l-.338.312a2.982,2.982,0,0,1-2.677.11Z" transform="translate(-48.468 -255.926)" fill="#5b58a3"/>
    </g>
    <path id="Trazado_2062" data-name="Trazado 2062" d="M36.587,186.99l-2.144,1.767-1.247.923-.65.65s-.7.858-.89.851a.688.688,0,0,1-.292-.065l.552-1.157.9-.962-1.338.513-1.15.123s-1.02,0-1.254-.24a.343.343,0,0,1-.058-.461.65.65,0,0,1-.2-.409c0-.214,1.468-.429,1.468-.429l.864-.422,2.423-1.468,2.255-.474Z" transform="translate(-10.091 -65.042)" fill="#ffd4c0"/>
    <path id="Trazado_2063" data-name="Trazado 2063" d="M36.986,185.3a12.9,12.9,0,0,0-2.553.539,16.887,16.887,0,0,0-1.3,1.241s-.741,1.1-.559,1.351.9-.474.994-.65a9.744,9.744,0,0,1,1.007-1.007l.65-.065a2,2,0,0,0,1.728-1.4Z" transform="translate(-11.4 -64.891)" fill="#ffdecf"/>
    <path id="Trazado_2064" data-name="Trazado 2064" d="M38.52,174.09a5.847,5.847,0,0,0,.689,1.26c.435.578.754.591.754.591s7.316-7.485,8.018-7.914c.832-.5,7.426-5.477,7.426-5.477s3.736-10.941.513-8.739-10.59,11.422-10.59,11.422Z" transform="translate(-13.493 -53.759)" fill="url(#linear-gradient-5)"/>
    <path id="Trazado_2065" data-name="Trazado 2065" d="M57.107,160.42l-10.194,9.207-7.3,8.154c.422.559.734.578.734.578s7.316-7.485,8.018-7.914c.832-.5,7.426-5.477,7.426-5.477S56.561,162.688,57.107,160.42Z" transform="translate(-13.874 -56.176)" fill="#ced3f4"/>
    <path id="Trazado_2066" data-name="Trazado 2066" d="M53.969,269.883c.715.052,2.073-.5,2.073-.819s-1.3-1.3-1.52-1.364a4.34,4.34,0,0,0-.715-.13v-1.553s-.968-.682-1.52-1.131a10.18,10.18,0,0,0-1.157-.786,23.25,23.25,0,0,0-1.709,1.761c-.286.422.292,1.234,1.475,1.865S53.6,269.883,53.969,269.883Z" transform="translate(-17.286 -92.493)" fill="#4e0070"/>
    <path id="Trazado_2067" data-name="Trazado 2067" d="M49.09,267a1.225,1.225,0,0,0,.6,1.865c.838.422,3.573,2.235,4.074,2.417a3.275,3.275,0,0,0,2.1-.864.5.5,0,0,0,0-.318s-1.157.793-1.813.552a11.343,11.343,0,0,1-2.891-2.235A9.4,9.4,0,0,0,49.09,267Z" transform="translate(-17.111 -93.508)" fill="#35004d"/>
    <path id="Trazado_2068" data-name="Trazado 2068" d="M19.917,217.011s13.605-5.048,14.7-5.685,21.032-14.944,21.032-14.944L43.665,190.86l-12.8,15.866-11.7,7.231Z" transform="translate(-6.715 -66.838)" fill="url(#linear-gradient-6)"/>
    <path id="Trazado_2069" data-name="Trazado 2069" d="M33.666,211.907,19.84,217.553l.312,1.241s13.605-5.048,14.7-5.685S55.88,198.166,55.88,198.166l-4.808-2.216Z" transform="translate(-6.949 -68.621)" fill="#ced3f4"/>
    <path id="Trazado_2070" data-name="Trazado 2070" d="M61.185,192.39s-1.3.383-1.3,5.061.253,22.273.253,22.273L51.29,239.476a14.5,14.5,0,0,0,1.7,1.267,5.2,5.2,0,0,0,1.449.572l11.747-19.063a56.338,56.338,0,0,0,4.665-14.43c.825-4.594,1.254-11.981,1.254-11.981Z" transform="translate(-17.966 -67.374)" fill="url(#linear-gradient-7)"/>
    <path id="Trazado_2071" data-name="Trazado 2071" d="M18.336,229.455a35.136,35.136,0,0,0-2.177,3.353c-.448.968-1.624,3.4-2.365,2.878s3.638-9.1,3.638-9.1Z" transform="translate(-4.802 -79.354)" fill="#4e0070"/>
    <path id="Trazado_2072" data-name="Trazado 2072" d="M16.615,226.3c1.351.65.065,3.067-.585,4.158s-2.151,5.5-2.93,5.081a3.573,3.573,0,0,1-1.3-3.535c.4-1.3,1.9-2.865,2.281-3.58S15.049,225.587,16.615,226.3Z" transform="translate(-4.108 -79.202)" fill="#35004d"/>
    <path id="Trazado_2073" data-name="Trazado 2073" d="M68.261,199.345l-3.093,22.669L54.35,241.843a5.2,5.2,0,0,0,1.182.429l11.747-19.063a56.338,56.338,0,0,0,4.665-14.43C72.77,204.185,73.2,196.8,73.2,196.8l-5.139-1.618Z" transform="translate(-19.038 -68.352)" fill="#ced3f4"/>
    <path id="Trazado_2074" data-name="Trazado 2074" d="M113.2,127.428l2.073.923a21.484,21.484,0,0,1,2.917-1.949c.845-.331,1.949-1.15,1.663-1.767a4.892,4.892,0,0,0-1.4-1.351,22.877,22.877,0,0,0,1.787-2.508.689.689,0,0,0-.2-.7s-2.56,2.82-2.794,2.891a4.509,4.509,0,0,0-1.611.871A38.663,38.663,0,0,0,113.2,127.428Z" transform="translate(-39.651 -42.046)" fill="#ffd4c0"/>
    <path id="Trazado_2075" data-name="Trazado 2075" d="M94.789,131.653s0-.383-.832-.988a2.164,2.164,0,0,0-1.722-.37l-7.881,9.967-8.68,7.056a3.9,3.9,0,0,1-3.7.65h0c-4.866-1.663-9.272-4.113-11.383-1.871s-7.654,26.372-7.654,26.372a47.353,47.353,0,0,0,8.654,5.022c4.873,2.112,11.045,1.819,11.045,1.819s1.553-7.576,2.943-14.612a33.4,33.4,0,0,1,7.069-14.846c2.43-2.937,4.7-5.666,4.983-6C88.369,142.945,94.789,131.653,94.789,131.653Z" transform="translate(-18.544 -45.608)" fill="url(#linear-gradient-8)"/>
    <path id="Trazado_2076" data-name="Trazado 2076" d="M78.148,156.962c-.312.988-2.261,1.254-4.36.591s-3.541-2-3.249-2.989,2.261-1.254,4.353-.591S78.46,155.975,78.148,156.962Z" transform="translate(-24.695 -53.79)" fill="#fff"/>
    <path id="Trazado_2077" data-name="Trazado 2077" d="M78.11,156.385c-.286.91-1.988,1.189-3.8.617s-3.047-1.78-2.761-2.69,1.995-1.189,3.807-.65S78.4,155.443,78.11,156.385Z" transform="translate(-25.047 -53.713)" fill="#ffd4c0"/>
    <path id="Trazado_2078" data-name="Trazado 2078" d="M77.605,146.519l-.474,3.444-6.562-2.073s.864-1.455.435-2.365-5.2-5.094.435-9.1,7.088,2.345,7.719,4.152.812,3.658.578,4.067S77.885,146.162,77.605,146.519Z" transform="translate(-24.068 -47.317)" fill="#ffd4c0"/>
    <path id="Trazado_2079" data-name="Trazado 2079" d="M77.874,133.367c1.826,1.143-1.852,5.594-1.852,5.594a8.556,8.556,0,0,1,.715,2.346c-.1.474-.9-1.059-1.676-.13s-.52,4.074-.942,4.47c-.585.539-2.677.169-3.2-.52-.416-.552-4.594-5.367-1.3-8.83S76.217,132.308,77.874,133.367Z" transform="translate(-23.947 -46.529)" fill="url(#linear-gradient-9)"/>
    <path id="Trazado_2080" data-name="Trazado 2080" d="M84.724,170.126c-1.254,1.085-7.03,19.869-7.264,21.441a30.861,30.861,0,0,0,3.749.123s1.553-7.576,2.943-14.612A33.448,33.448,0,0,1,88.7,165.74C87.258,167.423,85.439,169.5,84.724,170.126Z" transform="translate(-27.132 -58.04)" fill="#ced3f4"/>
  </g>
</svg>
