<?xml version="1.0" encoding="UTF-8"?>
<svg xmlns="http://www.w3.org/2000/svg" xmlns:xlink="http://www.w3.org/1999/xlink" width="150px" height="150px" viewBox="0 0 150 150" version="1.1">
<g id="surface1">
<path style=" stroke:none;fill-rule:nonzero;fill:rgb(23.921569%,25.098039%,56.078431%);fill-opacity:1;" d="M 0 74.503906 C 0.136719 33.40625 33.546875 0.191406 74.644531 0.292969 C 115.742188 0.398438 148.984375 33.78125 148.914062 74.878906 C 148.839844 115.976562 115.484375 149.246094 74.386719 149.207031 C 33.230469 149.082031 -0.0507812 115.65625 0 74.503906 Z M 130.605469 74.71875 C 130.609375 51.902344 116.804688 31.351562 95.683594 22.71875 C 74.5625 14.085938 50.320312 19.089844 34.339844 35.378906 C 18.359375 51.664062 13.820312 76 22.851562 96.953125 C 31.882812 117.90625 52.695312 131.3125 75.507812 130.878906 C 106.109375 130.300781 130.613281 105.324219 130.605469 74.71875 Z M 13.5625 42.695312 C 8.863281 51.65625 6.230469 61.554688 5.851562 71.664062 L 12.5625 71.664062 C 13.042969 62.757812 15.382812 54.050781 19.4375 46.105469 C 17.457031 44.960938 15.609375 43.886719 13.5625 42.695312 Z M 12.566406 77.601562 L 5.828125 77.601562 C 6.226562 87.691406 8.875 97.566406 13.585938 106.5 L 19.4375 103.113281 C 15.398438 95.179688 13.058594 86.488281 12.566406 77.601562 Z M 106.300781 13.609375 C 97.363281 8.898438 87.480469 6.253906 77.386719 5.871094 L 77.386719 12.609375 C 86.277344 13.085938 94.96875 15.425781 102.894531 19.476562 C 104.046875 17.496094 105.113281 15.648438 106.300781 13.609375 Z M 135.332031 42.707031 L 129.464844 46.105469 C 133.511719 54.035156 135.851562 62.726562 136.324219 71.617188 L 143.066406 71.617188 C 142.664062 61.527344 140.023438 51.648438 135.332031 42.707031 Z M 135.332031 106.507812 C 140.042969 97.558594 142.6875 87.667969 143.066406 77.5625 L 136.324219 77.5625 C 135.847656 86.460938 133.515625 95.164062 129.476562 103.109375 C 131.488281 104.277344 133.332031 105.347656 135.328125 106.507812 Z M 71.484375 143.15625 L 71.484375 136.953125 C 66.972656 136.109375 62.570312 135.570312 58.332031 134.425781 C 54.09375 133.28125 50.070312 131.546875 45.835938 130.027344 C 44.824219 131.78125 43.761719 133.625 42.714844 135.460938 C 48.605469 139.542969 65.195312 143.964844 71.484375 143.15625 Z M 71.542969 5.84375 C 61.433594 6.230469 51.542969 8.894531 42.609375 13.640625 L 46.035156 19.476562 C 53.960938 15.421875 62.652344 13.074219 71.542969 12.585938 Z M 77.351562 143.359375 C 87.453125 142.96875 97.339844 140.3125 106.277344 135.585938 C 105.105469 133.554688 104.015625 131.675781 102.886719 129.71875 C 94.960938 133.804688 86.257812 136.15625 77.351562 136.613281 Z M 107.878906 22.355469 C 115.378906 27.210938 121.761719 33.609375 126.589844 41.128906 C 128.617188 39.960938 130.503906 38.867188 132.460938 37.738281 C 127.027344 29.195312 119.785156 21.945312 111.25 16.496094 C 110.089844 18.511719 109.027344 20.363281 107.878906 22.355469 Z M 22.308594 41.121094 C 27.144531 33.605469 33.53125 27.207031 41.035156 22.355469 C 39.867188 20.332031 38.777344 18.441406 37.648438 16.484375 C 29.125 21.945312 21.894531 29.195312 16.464844 37.738281 Z M 41.035156 126.851562 C 33.535156 121.992188 27.152344 115.597656 22.304688 108.09375 L 16.433594 111.492188 C 21.878906 120.027344 29.121094 127.265625 37.660156 132.703125 C 38.835938 130.675781 39.898438 128.824219 41.035156 126.851562 Z M 126.59375 108.085938 C 121.746094 115.59375 115.375 122 107.890625 126.886719 C 109.0625 128.914062 110.128906 130.769531 111.257812 132.71875 C 119.789062 127.269531 127.023438 120.019531 132.453125 111.476562 C 130.480469 110.347656 128.625 109.261719 126.59375 108.085938 Z M 126.59375 108.085938 "/>
<path style=" stroke:none;fill-rule:nonzero;fill:rgb(23.921569%,25.098039%,56.078431%);fill-opacity:1;" d="M 95.785156 62.039062 C 93.976562 62.039062 92.175781 62.0625 90.367188 62.039062 C 89.601562 62.152344 88.820312 61.929688 88.226562 61.433594 C 87.632812 60.933594 87.28125 60.207031 87.257812 59.429688 C 86.988281 57.800781 86.054688 56.359375 84.679688 55.449219 C 78.394531 51.4375 70.351562 51.457031 64.085938 55.492188 C 60.894531 57.886719 60.839844 60.4375 63.988281 62.863281 C 66.515625 64.777344 69.589844 65.84375 72.761719 65.90625 C 77.777344 65.875 82.757812 66.703125 87.492188 68.355469 C 95.398438 71.496094 101.488281 76.511719 103.8125 85.0625 C 106.074219 93.417969 102.578125 102.074219 94.933594 107.699219 C 91.785156 110.019531 88.222656 111.714844 84.433594 112.699219 C 83.386719 112.972656 82.984375 113.394531 83.042969 114.472656 C 83.113281 115.753906 83.113281 117.039062 83.042969 118.320312 C 83.121094 119.152344 82.828125 119.976562 82.242188 120.574219 C 81.652344 121.171875 80.835938 121.480469 80 121.417969 C 76.335938 121.488281 72.664062 121.488281 68.992188 121.417969 C 66.949219 121.386719 65.949219 120.308594 65.871094 118.210938 C 65.816406 116.929688 65.808594 115.644531 65.871094 114.363281 C 65.914062 113.378906 65.570312 112.972656 64.582031 112.695312 C 58.773438 111.242188 53.558594 108.035156 49.636719 103.511719 C 46.597656 99.996094 44.8125 95.574219 44.554688 90.933594 C 44.410156 88.398438 45.46875 87.214844 47.980469 87.199219 C 51.417969 87.179688 54.855469 87.179688 58.285156 87.199219 C 60.496094 87.210938 61.113281 87.945312 61.796875 90.050781 C 62.222656 91.414062 63.007812 92.636719 64.066406 93.589844 C 69.351562 97.925781 79.703125 97.839844 85.035156 93.589844 C 87.964844 91.257812 88.019531 88.902344 85.121094 86.554688 C 82.585938 84.546875 79.464844 83.421875 76.234375 83.359375 C 71.21875 83.382812 66.234375 82.5625 61.492188 80.929688 C 53.578125 77.804688 47.417969 72.820312 45.136719 64.265625 C 42.949219 56.082031 45.714844 49.222656 51.640625 43.515625 C 55.234375 40.164062 59.625 37.777344 64.398438 36.582031 C 65.511719 36.277344 65.949219 35.835938 65.871094 34.695312 C 65.800781 33.472656 65.800781 32.242188 65.871094 31.019531 C 65.773438 30.15625 66.074219 29.296875 66.683594 28.679688 C 67.292969 28.0625 68.148438 27.75 69.011719 27.835938 C 72.625 27.777344 76.234375 27.777344 79.847656 27.835938 C 80.710938 27.738281 81.570312 28.03125 82.195312 28.636719 C 82.816406 29.242188 83.136719 30.09375 83.0625 30.957031 C 83.164062 32.6875 82.625 34.835938 83.476562 36.03125 C 84.261719 37.144531 86.507812 37.175781 88.050781 37.824219 C 96.035156 41.183594 101.933594 46.488281 103.957031 55.292969 C 104.207031 56.4375 104.34375 57.601562 104.371094 58.773438 C 104.511719 59.65625 104.230469 60.558594 103.609375 61.207031 C 102.988281 61.855469 102.101562 62.171875 101.207031 62.070312 C 99.394531 62.066406 97.585938 62.039062 95.785156 62.039062 Z M 71.882812 33.652344 C 71.753906 33.804688 71.683594 33.847656 71.683594 33.894531 C 71.65625 35.296875 71.65625 36.695312 71.609375 38.09375 C 71.6875 38.890625 71.449219 39.683594 70.941406 40.300781 C 70.433594 40.917969 69.699219 41.308594 68.90625 41.386719 C 67.527344 41.613281 66.175781 41.964844 64.859375 42.433594 C 62.261719 43.433594 59.773438 44.695312 57.429688 46.199219 C 47.566406 53.265625 47.8125 65.65625 57.800781 72.542969 C 62.289062 75.507812 67.5 77.203125 72.875 77.453125 C 76.226562 77.683594 79.554688 78.179688 82.832031 78.933594 C 84.734375 79.484375 86.519531 80.386719 88.085938 81.601562 C 94.675781 86.3125 94.675781 93.753906 88.066406 98.433594 C 82.738281 102.167969 76.089844 103.488281 69.742188 102.070312 C 64.234375 101.03125 59.425781 98.785156 56.675781 93.457031 C 56.464844 93.144531 56.128906 92.9375 55.753906 92.894531 C 54.09375 92.835938 52.429688 92.863281 50.601562 92.863281 C 51.261719 95.980469 52.847656 98.824219 55.144531 101.023438 C 58.691406 104.441406 63.167969 106.730469 68.015625 107.605469 C 71.101562 108.257812 71.605469 108.910156 71.609375 112.113281 L 71.609375 115.515625 L 77.132812 115.515625 C 77.1875 115.367188 77.226562 115.210938 77.25 115.050781 C 77.261719 113.828125 77.25 112.601562 77.277344 111.375 C 77.3125 109.105469 78.058594 108.453125 80.230469 107.738281 C 83.628906 106.785156 86.929688 105.507812 90.085938 103.925781 C 94.707031 101.566406 97.871094 97.082031 98.546875 91.9375 C 99.398438 85.234375 96.234375 80.339844 91 76.636719 C 86.039062 73.289062 80.15625 71.578125 74.175781 71.738281 C 69.539062 71.804688 64.988281 70.464844 61.128906 67.894531 C 59 66.53125 57.347656 64.535156 56.40625 62.191406 C 54.882812 58.15625 56.582031 53.730469 60.882812 50.726562 C 66.027344 47.15625 72.394531 45.820312 78.539062 47.03125 C 84.226562 47.976562 89.269531 50.175781 92.160156 55.679688 C 92.398438 56.035156 92.78125 56.269531 93.207031 56.316406 C 94.824219 56.386719 96.449219 56.34375 98.078125 56.34375 C 97.710938 53.644531 96.503906 51.125 94.628906 49.144531 C 91.105469 45.285156 86.425781 42.671875 81.292969 41.695312 C 77.625 40.875 77.265625 40.496094 77.265625 36.664062 L 77.265625 33.65625 C 75.371094 33.652344 73.65625 33.652344 71.882812 33.652344 Z M 71.882812 33.652344 "/>
</g>
</svg>
