<svg id="Layer_4" data-name="Layer 4" xmlns="http://www.w3.org/2000/svg" viewBox="0 0 400 400"><path d="M60,219.91H46.69v-4.36q0-93.51,0-187C46.7,11.31,57.89.11,75.09.1q101.24,0,202.46,0a11.54,11.54,0,0,1,8.86,3.62Q318,35.43,349.74,67a11.44,11.44,0,0,1,3.61,8.86c-.12,16.52-.05,33-.05,49.57V129c4.91-2.7,9.49-6.24,14.67-7.88,10.65-3.37,21.91,1.36,27.88,10.66a25,25,0,0,1-2,30.19c-4.64,5.33-9.88,10.14-14.88,15.15-7.84,7.87-15.75,15.67-23.5,23.62a7.43,7.43,0,0,0-2.11,4.57c-.12,33.19-.08,66.37-.07,99.55,0,.4.1.81.23,1.81h4.34c11.25,0,22.49,0,33.74,0,6,0,8.31,2.35,8.32,8.33q0,25,0,50c0,6-2.37,8.31-8.35,8.31q-91.65,0-183.3,0c-6,0-8.27-2.35-8.3-8.35s0-11.88,0-18.13H167V333.41h33c0-6.38,0-12.31,0-18.23,0-6.26,2.27-8.52,8.54-8.52q62.91,0,125.81,0h5.3V216.73c-1.32,1.21-2.42,2.15-3.44,3.17-20.92,20.91-41.78,41.87-62.83,62.65a18,18,0,0,1-8.12,4.39c-9.85,2.31-19.81,4.16-29.75,6.09-5.9,1.15-9.7-2.77-8.53-8.74,1.92-9.79,3.69-19.63,6-29.33a18.64,18.64,0,0,1,4.59-8.47Q287,196.69,336.8,147.2a10.06,10.06,0,0,0,3.24-8c-.15-18-.07-36.09-.07-54.14v-5h-4.72c-11.67,0-23.33.08-35,0-15.29-.13-26.8-11.66-26.91-27-.1-13,0-26.06,0-39.64H75.78C65.06,13.43,60,18.49,60,29.25V219.91ZM293.15,320.16V333H279.76v-12.8H266.51V333.1H253.26V320.29h-13.4V333H226.47V320.21H213.6v39.43H386.4V320.26H373.08v12.8H359.83V320.18H346.58V333H333.19V320.24h-13.4v12.84H306.55V320.16Zm60.39-169.82L250.86,253l15.91,16L369.45,166.28C364.36,161.17,358.88,155.69,353.54,150.34ZM286.64,23.73c0,9.79,0,19.21,0,28.63.05,8.77,5.52,14.31,14.24,14.37s17.46,0,26.19,0a11,11,0,0,0,2.09-.31ZM380.4,156.67c4.44-3.68,7.44-8.07,5.71-14.32a11.51,11.51,0,0,0-9.55-8.74c-5.85-1.07-10,1.87-13.18,6ZM241.86,278.11l10.28-2.06c-2.71-3-5.15-5.77-8-9C243.32,270.87,242.67,274.07,241.86,278.11Z" fill="#fff"/><path d="M0,299.57q0-45.18,0-90.36c0-3.67.32-7,4.24-8.64s6.52.72,9.06,3.26L196.19,386.69c4.11,4.12,5.23,7.72,2.31,10.38a12.43,12.43,0,0,1-7.73,2.76c-44.15.16-88.3.12-132.45.12q-24.78,0-49.56,0c-6.52,0-8.72-2.22-8.73-8.76Q0,345.37,0,299.57Zm13.53,86.72H175.5L13.56,224.39Z" fill="#fff"/><path d="M133.34,163.4c0-11.52.11-23-.06-34.56-.07-4.46,1.52-7.18,5.71-9q28.2-12.28,56.23-25a10.57,10.57,0,0,1,9.49,0q27.85,12.56,55.86,24.78c4.44,1.93,6.19,4.75,6.15,9.59q-.25,34.14,0,68.28c0,5.08-2,7.87-6.47,9.84q-27.82,12.1-55.48,24.6a10.62,10.62,0,0,1-9.5,0q-28-12.67-56.23-25c-4.16-1.82-5.84-4.5-5.77-9C133.45,186.44,133.34,174.92,133.34,163.4ZM146.67,137c0,19.39,0,38,.12,56.58,0,1.13,1.56,2.74,2.77,3.29,12.23,5.59,24.53,11,36.82,16.48,2.11.93,4.25,1.82,7,3v-4.64q0-20.19,0-40.39c0-4.44,1.46-9.93-.61-13C190.53,155,185,154,180.8,152.11,169.7,147.14,158.56,142.24,146.67,137Zm106.64,0c-15.55,6.9-30.36,13.42-45.09,20.15-.9.41-1.49,2.44-1.5,3.72-.1,15.68-.06,31.37-.06,47.06v7.69c.7.09,1,.23,1.23.14,14.58-6.42,29.18-12.83,43.71-19.38a3.69,3.69,0,0,0,1.64-2.84C253.34,175,253.31,156.38,253.31,137Zm-96.84-10.3c14.74,6.55,28.35,12.66,42.06,18.56,1.23.53,3.22,0,4.6-.61,12.31-5.36,24.56-10.85,36.82-16.33.92-.41,1.75-1,3.12-1.82-13.21-5.9-25.88-11.41-38.41-17.23a10,10,0,0,0-9.3,0C182.82,115.11,170.16,120.63,156.47,126.72Z" fill="#fff"/><path d="M206.37,79.88H193.54V47.08h12.83Z" fill="#fff"/><path d="M193.52,286.37V253.55h12.83v32.82Z" fill="#fff"/><path d="M117.4,114.09l-5.72,12L83.81,112.78l5.75-12Z" fill="#fff"/><path d="M89.54,232.64l-5.74-12,27.85-13.34,5.74,12Z" fill="#fff"/><path d="M288.18,126c-2-4.28-3.8-8-5.71-12l27.84-13.3c1.92,4,3.74,7.83,5.73,12Z" fill="#fff"/><path d="M73.44,39.74V27.07h13V39.74Z" fill="#fff"/><path d="M100.21,39.8V27H113V39.8Z" fill="#fff"/><path d="M126.75,39.83V27.09h13V39.83Z" fill="#fff"/><path d="M73.1,360c-8.32,0-16.64,0-25,0-5.7,0-8.09-2.4-8.11-8.09C40,335,40,318,40,301.13c0-3.37,1.07-6,4.34-7.31s5.63,0,7.84,2.21q25.88,25.89,51.76,51.75c2.21,2.21,3.5,4.69,2.24,7.84s-3.93,4.38-7.3,4.36C90.29,359.93,81.69,360,73.1,360ZM53.67,317.53v28.86H82.53Z" fill="#fff"/></svg>