<svg id="Layer_4" data-name="Layer 4" xmlns="http://www.w3.org/2000/svg" viewBox="0 0 400 400"><path d="M266.62,233.14c14.64,0,12.83,3,14.11,13.57,1.09,9.07,1.93,18.17,2.87,27.14l24-16.41c-18.45-21.63-19.07-44.08-1.21-60.41a40.08,40.08,0,0,1,55.35,1.32c14,14.05,17.89,40.69-2.76,59.17,6,4.11,12.63,7.75,18.22,12.56,14.63,12.62,22.27,29,22.6,48.25.4,24.56.14,49.13.11,73.7,0,5.55-2.53,7.88-8.34,7.89q-50.4,0-100.78,0H10.1c-8.25,0-10-1.78-10-9.95,0-22.63-.14-45.25,0-67.88.22-29.33,13.56-50.48,40.11-63.17a16.73,16.73,0,0,0,1.43-.94C30.74,248.37,25.36,236.43,27,221.94a38.67,38.67,0,0,1,14.78-26.58,40,40,0,0,1,54.57,4.45c12.51,13.73,16.44,39.17-3.92,57.63L116.47,274c.53-4.93,1.16-10.48,1.74-16s1.09-11,1.66-16.56c.66-6.38,2.55-8.06,9.07-8.1h4.4c0-3.38,0-6.64,0-9.91-.13-10-.17-20,3-29.66q9.13-28,35.62-40.76c1-.46,1.9-1,2.92-1.54-21.37-19.09-17.29-46.24-2.62-60.24a40.09,40.09,0,0,1,56,.49c14,13.84,18.28,40.39-2.71,59.34,5.58,3.63,11.63,6.79,16.77,11,16,13.22,24,30.52,24.33,51.26C266.72,219.83,266.62,226.33,266.62,233.14Zm.88,13.65H240.06c-.53,2.37-1.12,4.63-1.54,6.93-.78,4.19-3.25,6.25-7.49,6.25-20.82,0-41.64,0-62.45,0-4.55,0-6.87-2.12-7.64-6.6-.37-2.15-.67-4.31-1-6.38H132.71q-3.74,37.46-7.38,74.12a6.06,6.06,0,0,0,1,.73c9.24,3.75,18.44,7.6,27.75,11.18,4.2,1.61,6.17,4.23,6,8.79-.2,5.26,0,10.54,0,15.81,0,7.23-3.05,9.69-10.19,8.55-9.25-1.48-18.51-2.84-28.12-4.3-.71,8.42-1.38,16.37-2.07,24.49H280.38c-.73-8.24-1.42-16.21-2.13-24.27-1.43.14-2.39.2-3.34.35-8.36,1.28-16.72,2.55-25.07,3.89-6.66,1.06-9.83-1.49-9.87-8.14,0-5.41.17-10.83-.06-16.23-.2-4.75,1.86-7.38,6.25-9,8.69-3.26,17.27-6.8,25.81-10.43,1.13-.48,2.56-2.27,2.46-3.33C272.25,295.14,269.87,271.14,267.5,246.79Zm-155.18,69.3c.62-5.65,1.48-10.85,1.64-16.07a15,15,0,0,0-1.85-7.76,53.2,53.2,0,0,0-98.7,27.15c-.13,21.24,0,42.48,0,63.72,0,1.06.18,2.12.27,3.23h92.48c.78-8.84,1.53-17.49,2.3-26.26-1.57-.35-2.76-.69-4-.88-12.46-2-25-3.83-37.38-6-2-.34-4.74-1.35-5.59-2.9-4.93-8.93-9.39-18.11-14.08-27.37l11.86-6c3.56,7.11,7,13.85,10.32,20.68A5.33,5.33,0,0,0,74.21,341c17.28,2.53,34.54,5.3,51.81,8,6.77,1,13.56,2,20.36,3,.63-7.39.63-7.39-5.41-9.81-18.39-7.37-36.82-14.64-55.12-22.24-2.26-.93-5.25-3.42-5.44-5.43-.67-6.95-.26-14-.26-21h13.2c0,4.32-.11,8.45.08,12.57,0,1.12.75,2.81,1.6,3.18C100.61,311.65,106.3,313.75,112.32,316.09Zm175.42.22c6.12-2.47,11.79-4.63,17.32-7.09.83-.38,1.43-2.13,1.48-3.28.17-4.11.07-8.23.07-12.34h13.33c0,5.84,0,11.38,0,16.92,0,6.34-.9,7.7-6.63,10l-54.81,21.91c-5.92,2.36-6.19,2.92-4.54,9.61,23.69-3.6,47.39-7.25,71.12-10.74a6.75,6.75,0,0,0,5.74-4.41c3.07-6.62,6.48-13.07,9.87-19.85l11.79,6c-3,6.05-5.69,11.67-8.56,17.2-7.56,14.53-3.53,12-20.56,14.71-10.51,1.7-21,3.32-31.86,5,.79,9,1.56,17.66,2.32,26.3h92.66c0-23.61,0-46.92,0-70.23a33.47,33.47,0,0,0-.6-4.53c-3.19-21.66-20.68-39.82-42.28-43.92-22.45-4.27-45.6,6.29-56.35,25.79a8.28,8.28,0,0,0-1.16,4.26C286.45,303.6,287.11,309.53,287.74,316.31Zm-34.46-83.17c0-7.27.09-14.06,0-20.86-.55-36.13-36.82-61.29-70.94-49.25-27.2,9.61-42.39,40-35,70.09h11c-1.55-10.08-3-19.93-4.59-29.78-1.1-7,1.33-10,8.34-10h75.79c7.31,0,9.66,2.94,8.5,10.21-1.56,9.8-3,19.61-4.53,29.59Zm-27,13.37c2-13.37,3.94-26.44,5.91-39.64h-64.4c2,13.35,4,26.46,5.95,39.64ZM200.2,146.68a26.65,26.65,0,1,0-26.87-26.54A26.7,26.7,0,0,0,200.2,146.68ZM93.34,226.86a26.65,26.65,0,1,0-26.95,26.45A26.69,26.69,0,0,0,93.34,226.86Zm240.11,26.45a26.66,26.66,0,1,0-26.83-26.58A26.71,26.71,0,0,0,333.45,253.31Z" fill="#fff"/><path d="M.05,73.38q0-32.07,0-64.13C.06,2.15,2.12.08,9.19.08H124.12c7.12,0,9.21,2.06,9.21,9.11q0,64.13,0,128.26c0,7.12-2.07,9.22-9.09,9.23-10.27,0-20.55-.13-30.81.13a8,8,0,0,0-5.37,2.69C82.84,156,78,162.76,73,169.39c-4,5.32-8.47,5.33-12.5,0-5-6.62-9.88-13.41-15.09-19.89A8,8,0,0,0,40,146.81c-10.54-.26-21.09-.1-31.64-.13-6,0-8.3-2.36-8.31-8.34Q0,105.87.05,73.38Zm66.63,82.13c4.83-6.4,9.38-12.3,13.78-18.32a8.44,8.44,0,0,1,7.77-3.86c2.36.13,4.72,0,7.08,0h24.42V13.71h-106V133.36c10.19,0,20.05.21,29.89-.09a11.11,11.11,0,0,1,10.45,5.3C57.92,144.15,62.15,149.47,66.68,155.51Z" fill="#fff"/><path d="M266.62,73.39V9.26c0-7.11,2.06-9.18,9.13-9.18H390.68c7.13,0,9.22,2.06,9.22,9.1q0,64.13,0,128.25c0,7.14-2.07,9.24-9.08,9.25-10.41,0-20.82-.1-31.23.11a7,7,0,0,0-4.72,2.36c-5.26,6.62-10.21,13.5-15.33,20.24-4,5.32-8.47,5.34-12.5,0-5-6.63-9.87-13.41-15.08-19.89a8.09,8.09,0,0,0-5.37-2.73c-10.54-.26-21.09-.1-31.64-.13-6,0-8.31-2.35-8.32-8.33Q266.6,105.88,266.62,73.39Zm13.53,60c10,0,19.83.25,29.63-.11,5-.18,8.34,1.59,11.12,5.66,3.79,5.57,8,10.83,12.36,16.62,3.42-4.54,7-8.35,9.43-12.75,4.36-7.75,10.46-10.4,19.22-9.58,8.06.75,16.25.16,24.38.16V13.72H280.15Z" fill="#fff"/><path d="M106.49,53.67V66.5H27V53.67Z" fill="#fff"/><path d="M26.91,93.09V80.25h79.44V93.09Z" fill="#fff"/><path d="M106.49,107v12.82H27.05V107Z" fill="#fff"/><path d="M53.56,39.77V26.94H79.69V39.77Z" fill="#fff"/><path d="M27,26.88H39.78v13H27Z" fill="#fff"/><path d="M106.49,27V39.76H93.61V27Z" fill="#fff"/><path d="M293.52,26.93h79.41V39.79H293.52Z" fill="#fff"/><path d="M293.46,66.42V53.61h79.59V66.42Z" fill="#fff"/><path d="M293.48,93.15V80.34H373V93.15Z" fill="#fff"/><path d="M320.14,106.86h26.18V119.8H320.14Z" fill="#fff"/><path d="M306.41,106.93v12.79H293.55V106.93Z" fill="#fff"/><path d="M360.09,119.82V107H373v12.84Z" fill="#fff"/></svg>