<svg id="Layer_4" data-name="Layer 4" xmlns="http://www.w3.org/2000/svg" viewBox="0 0 400 400"><path d="M106.72,400.6c-8.28-1.88-14.31-7.1-19.88-13.12-3.63-3.93-7.58-7.56-11.31-11.4-3.56-3.66-3.78-8.28-.7-11.53s8-3.29,11.79.4c5.33,5.19,10.51,10.54,15.82,15.76,5.69,5.58,11.35,5.54,17.09-.07,3.82-3.75,7.59-7.55,11.36-11.36,6.13-6.18,6-11.13-.15-17.32-14.07-14.16-28-28.45-42.08-42.62q-18.48-18.63-37.14-37.1a68.07,68.07,0,0,0-5.84-5.17c-3.12-2.45-8.69-2.24-12,.83-5.25,4.89-10.4,9.92-15.25,15.21-4,4.35-3.45,10.11,1,14.75,5.46,5.61,11.09,11.07,16.6,16.64,2.53,2.57,3.28,5.6,1.76,9-1.45,3.21-4.11,4.91-7.51,4.48a10.28,10.28,0,0,1-5.47-2.58c-6.05-5.75-12-11.61-17.75-17.7A25.88,25.88,0,0,1,7,272.13c5-5.36,10.12-10.58,15.52-15.5,7.56-6.88,16.45-8.52,26.26-5.67,1.27.37,3.34.45,4.11-.3,8.3-8.09,16.42-16.37,24.59-24.59-15.65-16.3-9.53-39.18,9.12-46.86-10-17.27-1.73-36.89,17.17-42.25-1.65-7.44-1-14.69,3-21.39a27.24,27.24,0,0,1,17-12.67c.22-5-.26-9.8.75-14.25,3.37-14.88,17.83-23.44,33-20.23a6.81,6.81,0,0,0,4.78-1c6.87-4.8,14.4-4.11,21.9-2.75C201.13,67.76,218,71.13,235,74.24c3.18.58,6.52.23,9.72.77,15.72,2.63,25.35,16.14,22.84,31.85-.12.77-.17,1.56-.29,2.7,7.35,2.06,13.43,6,17.48,12.72s4.7,13.94,3.09,21.44c16.67,5.58,23.58,17.93,20.87,34.76,10.39,3,17.63,9.42,20.39,20s-.54,19.55-8.29,27.45L340,245.16a19.71,19.71,0,0,1,1.93,2c2.84,3.85,5.78,4.78,10.82,3,8.84-3,17.38-.84,24.37,5.52,5.5,5,10.79,10.27,15.82,15.75,9.51,10.37,9.52,25.8-.4,35.81q-42.45,42.87-85.36,85.28c-10.34,10.23-26.2,9.88-36.71-.25-4.7-4.54-9.36-9.12-13.86-13.85-8-8.38-10-18.09-5.69-28.87.84-2.13.36-3.24-1.09-4.68C240.32,335.5,231,326,221.45,316.7a6.14,6.14,0,0,0-3.61-1.76c-8.47-.35-16.94-.51-25.42-.67-2.87-.06-5.85-.44-8.58.2-2.9.68-6.13,1.79-8.22,3.76-8.92,8.43-17.43,17.29-26.18,25.89-1.63,1.59-1.95,2.75-.9,5,4.91,10.28,3,21.41-4.85,29.69-4.59,4.82-9,9.9-14.22,14-4.18,3.29-9.38,5.27-14.13,7.83Zm-42-139.2C89,285.84,113,310,137.19,334.25c9-9,18.26-18.18,27.37-27.52a24.93,24.93,0,0,1,17.71-8,197.22,197.22,0,0,1,21.89.4c12.75,1.13,24.11-.48,32.6-11.54a7.56,7.56,0,0,1,11.71-.76c3.35,3.36,3,7.74-.61,11.83-3.37,3.82-6.51,7.84-9.4,11.33l24,24.27,71.26-71.52-24.75-25c-1.61,1.53-3.38,3.47-5.41,5.08a7.65,7.65,0,0,1-11.35-1.57c-2.32-3.32-1.87-7.26,1.43-10.62,5.75-5.87,11.73-11.53,17.37-17.52a11.31,11.31,0,0,0-.13-15.92,11.45,11.45,0,0,0-15.93-.49c-2.27,2-4.29,4.2-6.44,6.29-4.12,4-8.7,4.31-12.09.9s-2.92-8.1,1-12.1c4.3-4.37,8.79-8.58,12.93-13.09a11.46,11.46,0,0,0-.16-15.94c-4.46-4.53-11.26-4.69-16.21-.25-2.43,2.18-4.65,4.59-7,6.87-4.19,4.1-9,4.49-12.39,1s-2.86-8,1.15-12.09c4.67-4.74,9.54-9.3,14-14.21a11.3,11.3,0,0,0-.6-16.18c-4.49-4.2-11.22-4.15-16,.23-2.49,2.3-4.79,4.82-7.23,7.17-3.87,3.71-8.57,4-11.84.79S231,128,235,124c4.49-4.56,9.06-9,13.58-13.57a11.29,11.29,0,0,0,3.56-9.92,11.54,11.54,0,0,0-19.64-6.7c-6.74,6.56-13.28,13.32-20,19.86-1.84,1.77-2.26,3-1.08,5.6a27.12,27.12,0,0,1-16.15,37.16,78.88,78.88,0,0,1-8.54,1.81c-.14.62-.37,1.36-.48,2.12C184,175,175.9,183.17,161.27,185.22c-2.34.33-2.57,1.49-2.77,3.35a26.87,26.87,0,0,1-23.87,24.16c-1.12.14-2.23.41-3.07.57-.63,3-.94,5.79-1.76,8.37-5,15.54-22.37,23.06-37.48,16.41-1.17-.52-3.32-.81-4-.16C80.17,245.81,72.21,253.89,64.71,261.4ZM385,289.08c-1.68-2.91-2.75-5.76-4.65-7.88-4-4.46-8.37-8.59-12.68-12.76-5.19-5-11.09-5.06-16.25.08q-41.58,41.43-83.07,83c-5.13,5.14-5.16,11.08-.18,16.22q6.27,6.45,12.75,12.71c5.11,4.93,10.95,5.12,15.93.17q41.89-41.67,83.58-83.56C382.41,295,383.35,292,385,289.08ZM157.33,169.72c6.69-.37,10.35-2.54,12.2-7.12A11,11,0,0,0,167.1,150c-9.45-9.56-18.93-19.1-28.56-28.47-4.95-4.82-11.93-4.64-16.49,0s-4.5,11.5.4,16.49c9.23,9.4,18.5,18.78,28,27.89C152.66,168,155.91,169,157.33,169.72ZM186,142.79c6.91-.64,12.24-5.78,12.07-12.27-.09-3.5-1.2-6-5.14-7.67-16.14-7.06-28-18.62-34.88-35.11a7.25,7.25,0,0,0-3.94-3.62,11,11,0,0,0-12.89,4.81,11.35,11.35,0,0,0,1.68,14.37c11.73,11.86,23.51,23.69,35.48,35.31C180.34,140.56,183.39,141.42,186,142.79Zm-42.57,42.49c-1-2.22-1.4-4.94-3-6.58-7.74-8.12-15.61-16.14-23.79-23.81-4.18-3.9-10.91-3.18-15,.76s-5.16,10.67-1.25,14.91c7.78,8.42,16,16.51,24.34,24.34,3.4,3.18,8,3,12.15.85S142.87,190.1,143.39,185.28Zm-28,27.12c-.29-1-.31-3.16-1.39-4.36-4.08-4.49-8.12-9.19-12.93-12.8-4.31-3.24-10.51-1.51-14,2.64-3.4,4-3.75,10.33-.26,14.42a83.28,83.28,0,0,0,10.28,10.12c3.61,3,8,3.08,12.12.93S115.22,217.76,115.42,212.4ZM173.09,78.91l-.71,1.77C176.53,93,185.51,100.91,195.54,107L215.9,86.62Z" fill="#fff"/><path d="M62.31,9c2.1-2.47,3.47-5.43,5.67-6.31s5.5-.24,8,.68c1.91.72,3.29,2.87,4.86,4.43q11.91,11.85,23.79,23.74c4,4,4.38,8.71,1.09,12.09s-8.21,3.08-12.36-1C84.44,33.75,75.54,25,66.81,16,65.11,14.27,64.1,11.84,62.31,9Z" fill="#fff"/><path d="M325.87,1.64c4.67,0,7.14,1.6,8.44,4.61a7.68,7.68,0,0,1-1.76,9q-8.83,8.9-17.72,17.74c-3.42,3.41-6.78,6.88-10.27,10.22-3.67,3.51-8.36,3.67-11.55.54s-3.23-8,.29-11.52q13.89-14.08,28-27.93C322.81,2.86,325,2.13,325.87,1.64Z" fill="#fff"/><path d="M207.1,24.92c0,5.6.05,11.21,0,16.82-.07,5.19-3.07,8.49-7.65,8.6s-8-3.39-8.05-8.64q-.1-16.83,0-33.65c0-5.2,3.48-8.74,8.09-8.61S207,3,207.08,8.09C207.15,13.7,207.1,19.31,207.1,24.92Z" fill="#fff"/><path d="M54.37,352.18a7.73,7.73,0,0,1-8-7.84,7.84,7.84,0,1,1,15.68.1A7.71,7.71,0,0,1,54.37,352.18Z" fill="#fff"/><path d="M267.94,275.33a7.66,7.66,0,0,1-7.93-7.47,7.88,7.88,0,0,1,7.68-8.22,8.07,8.07,0,0,1,8,8A7.89,7.89,0,0,1,267.94,275.33Z" fill="#fff"/></svg>