<svg id="Layer_4" data-name="Layer 4" xmlns="http://www.w3.org/2000/svg" viewBox="0 0 400 400"><path d="M0,45.12H309.27c.68-14.5,6.16-26.47,17.49-35.4A44.2,44.2,0,0,1,357.58.13c22,1.23,40.39,19.42,42.05,41.59C401.37,65.07,386,84.5,361,89.92v4.15q0,59.25,0,118.51a7.45,7.45,0,0,0,2.79,6.13c32,29.44,43.79,65.61,31.39,107.29-12.34,41.44-41.61,66.25-84.4,72.79-57.92,8.86-111.35-33.9-116.81-92.09-.09-1.05-.33-2.08-.55-3.4H0Zm193.51,245L195,277.36H180.63V200.3h38.69v27.38c38.21-37,80.89-44,128.51-20.91v-116l-21-8.8c-11.59,11.62-23.69,23.83-35.91,35.92-1.92,1.9-2.54,3.42-1.72,6.22,2.35,8.06-.18,15-6.65,20.08s-13.5,5.63-20.79,1.94c-6.93-3.51-12.06-11.24-10-18.51,1.88-6.8-1.15-10.1-5.32-13.77a40.49,40.49,0,0,1-3.71-3.7c-1.45-1.66-2.8-2-5.18-1.51a29.91,29.91,0,0,1-11,0c-2.38-.45-3.65,0-5.2,1.51Q207.52,124,193.61,137.77c-1.64,1.62-2,3-1.26,5.24a19,19,0,0,1-8.81,22.15,19.35,19.35,0,0,1-26.27-26.61,19,19,0,0,1,21.88-8.63c2.42.72,3.83.39,5.57-1.39q13.41-13.68,27.09-27.07c2-1.91,2.45-3.48,1.66-6.24-2.33-8.06.2-15,6.69-20.07s13.52-5.59,20.79-1.9c6.9,3.5,12.08,11.33,10,18.53-2,6.88,1.33,10.06,5.37,13.76a41.67,41.67,0,0,1,3.69,3.71c1.46,1.7,2.85,1.93,5.2,1.47a27.66,27.66,0,0,1,10.65-.07,5.5,5.5,0,0,0,5.87-1.72c11.43-11.57,23-23,34.46-34.53.73-.73,1.38-1.55,1.89-2.13-1.88-3.59-4.12-6.75-5.22-10.26s-2.93-4-6.1-4q-144.76.1-289.51.06H12.88v232Zm155.55,44.4c-26.64,35.39-78.35,35.68-105.13,0l-22.27,12.88c19.13,25.95,44.15,39.86,76.1,39.46,30.95-.39,55.15-14.28,73.58-39.48ZM289.89,207c-63.88,4.47-102.64,73-74.27,129l22-12.72c-8.38-20.48-7.76-40.11,3.18-58.88s27.73-29,49.07-31.95Zm13.23,0v25.43c21.45,2.91,38.19,13.27,49.1,32,11,18.87,11.49,38.64,3.18,58.84l22,12.7C405.91,279.15,366.19,211.18,303.12,207Zm45,89.54a51.61,51.61,0,1,0-51.34,51.78A51.74,51.74,0,0,0,348.12,296.57ZM386.83,45.35A32.25,32.25,0,1,0,354.3,77.42,32.32,32.32,0,0,0,386.83,45.35ZM193.45,265.43c2.38-1.08,4.9-1.4,5.45-2.61,4.38-9.56,9.22-19,7.35-30.19-.48-2.87-.07-5.89-.07-8.84V213.21H193.45Zm38.6-168.68a6.42,6.42,0,1,0-6.48-6.36A6.5,6.5,0,0,0,232.05,96.75Zm45.07,32.12a6.42,6.42,0,1,0-6.26,6.58A6.49,6.49,0,0,0,277.12,128.87Zm-96.78,19.5a6.42,6.42,0,1,0-6.41,6.43A6.48,6.48,0,0,0,180.34,148.37Z" fill="#fff"/><path d="M167.18,277.22H129V174.52h38.21Zm-25.25-89.94v76.9h12.43v-76.9Z" fill="#fff"/><path d="M64,277.22H25.73v-64H64ZM38.7,226v38.19H51.12V226Z" fill="#fff"/><path d="M115.64,277.22H77.42V226.05h38.22ZM90.33,238.87v25.3h12.4v-25.3Z" fill="#fff"/><path d="M141.41,83.81H51.65V71.26h89.76Z" fill="#fff"/><path d="M51.5,109.49V97h89.92v12.45Z" fill="#fff"/><path d="M51.57,122.78h89.78v12.44H51.57Z" fill="#fff"/><path d="M51.61,148.58h89.85V161H51.61Z" fill="#fff"/><path d="M38.25,71.19V83.6H25.77V71.19Z" fill="#fff"/><path d="M38.27,97.09v12.35H25.73V97.09Z" fill="#fff"/><path d="M25.83,122.74H38.19v12.54H25.83Z" fill="#fff"/><path d="M38.27,148.58V161H25.75V148.58Z" fill="#fff"/><path d="M335.21,297a38.7,38.7,0,1,1-38.45-38.94A38.81,38.81,0,0,1,335.21,297Zm-12.91-.19a25.8,25.8,0,1,0-26,25.73A25.83,25.83,0,0,0,322.3,296.81Z" fill="#fff"/></svg>