<svg id="Capa_1" data-name="Capa 1" xmlns="http://www.w3.org/2000/svg" viewBox="0 0 1920 262"><defs><style>.cls-1{fill:#fff;}</style></defs><path class="cls-1" d="M1919.7,0c-2,.22-3.49,1.66-5,2.8C1899.85,14.22,1884.49,25,1869,35.47q-32.4,21.92-66.18,41.65c-28.18,16.38-56.76,31.93-86.13,46.09q-53,25.58-108.17,46.08-57.29,21.24-116.37,36.61c-32.06,8.39-64.5,15-97.12,20.78q-23.68,4.19-47.58,7.13c-13.29,1.63-26.6,3.16-40,4.35-16.82,1.5-33.63,3-50.5,3.78a51.16,51.16,0,0,0-5.81,0c-1.85.2-4.42-1.21-5.19,2H1144c-.36-2.35-2.19-2-3.76-2-3.08,0-6.16,0-9.24,0-17.37-.78-34.68-2.24-52-3.81-13.85-1.26-27.7-2.56-41.44-4.45-25.55-3.52-51-7.64-76.35-12.59a1202,1202,0,0,1-131-33.32,1208.52,1208.52,0,0,1-118-44.15A1147.12,1147.12,0,0,1,605.21,90.85c-31.53-17.79-65.06-28.22-101-30.75a207.75,207.75,0,0,0-56.43,4.21c-36.82,7.57-69.59,23.75-98.41,47.88-22,18.42-46,33.75-71.27,47.2a431.65,431.65,0,0,1-82.64,33.3c-37.11,10.81-75.1,15.88-113.65,17.23-12.47.44-24.87-1.48-37.36-1.1-4.91.15-9.86-1-14.78-1.53Q15.19,205.67.74,204h0A5.39,5.39,0,0,1,0,204v58H1920V.11C1919.9.08,1919.8.06,1919.7,0Z"/></svg>