<?xml version="1.0" encoding="utf-8"?>
<!-- Generator: Adobe Illustrator 27.1.1, SVG Export Plug-In . SVG Version: 6.00 Build 0)  -->
<svg version="1.1" id="Capa_1" xmlns="http://www.w3.org/2000/svg" xmlns:xlink="http://www.w3.org/1999/xlink" x="0px" y="0px"
	 viewBox="0 0 142.35 81.72" style="enable-background:new 0 0 142.35 81.72;" xml:space="preserve">
<style type="text/css">
	.st0{fill:#D3D3D3;}
</style>
<g>
	<path class="st0" d="M92.07,39.33c-1.37,0-2.29,0.61-2.59,1.98h4.88C94.21,40.1,93.29,39.33,92.07,39.33z"/>
	<path class="st0" d="M65.52,39.64c-1.68,0-2.75,1.07-2.75,2.75c0,1.68,1.07,2.75,2.75,2.75c1.53,0,2.75-1.22,2.59-2.75
		C68.11,40.86,67.05,39.64,65.52,39.64z"/>
	<path class="st0" d="M52.55,39.33c-1.22,0-2.29,0.61-2.59,1.98h4.88C54.69,40.1,53.77,39.33,52.55,39.33z"/>
	<path class="st0" d="M110.84,39.64c-1.68,0-2.75,1.07-2.75,2.75c0,1.53,1.07,2.75,2.75,2.75c1.53,0,2.59-1.22,2.59-2.75
		C113.43,40.86,112.36,39.64,110.84,39.64z"/>
	<path class="st0" d="M133.73,5.61c-9.16-7.78-22.74-7.17-31.13,1.07l-7.63,7.63l-6.26-6.26c-0.92-0.76-1.68-1.68-2.59-2.44
		c-9.16-7.93-22.89-7.32-31.43,1.22l-2.14,2.14l-5.49,5.49l-7.63-7.63C31.03-1.71,17.3-2.32,8.15,5.46
		c-9.16,7.78-10.83,21.36-3.81,31.13l24.41,34.79c0.31,0.46,0.61,0.76,0.92,1.22c3.97,4.88,9.77,8.09,16.02,8.54
		c6.26,0.46,12.51-1.53,17.24-5.8c1.53-1.22,2.9-2.75,4.27-4.12l3.81-3.81l3.81,3.81c1.53,1.37,2.75,2.75,4.27,4.12
		c4.73,4.27,10.99,6.26,17.24,5.8c6.26-0.61,12.05-3.66,16.02-8.54c0.31-0.31,0.61-0.76,0.92-1.22l24.57-34.79
		C144.71,26.67,142.88,13.39,133.73,5.61z M42.33,47.73h-2.44l-3.66-11.29l-3.51,11.29h-2.44l-5.19-16.17h3.36l1.53,5.8l1.37,5.8
		l1.68-5.65L35,31.55h2.14l1.98,5.95l1.83,5.65l1.53-5.8l1.53-5.8h3.36L42.33,47.73z M57.74,43.3h-7.63
		c0.46,1.22,1.53,2.14,3.2,2.14c0.92,0,1.98-0.3,2.75-1.07l1.22,2.14c-0.76,0.46-1.98,1.37-4.43,1.37c-3.36,0-5.8-2.44-5.8-5.49
		c0-3.05,2.29-5.49,5.49-5.49c3.05,0,5.19,2.29,5.19,5.49C57.74,42.84,57.74,43.3,57.74,43.3z M66.13,47.88
		c-1.37,0-2.75-0.61-3.66-1.68l-0.15,1.37h-2.44V31.25h3.05v7.02c0.76-0.92,1.98-1.37,3.2-1.37c2.9,0,5.19,2.29,5.19,5.49
		C71.32,45.59,69.03,47.88,66.13,47.88z M84.29,47.57h-3.05v-5.49c0-1.53-0.92-2.59-2.29-2.59c-1.53,0-2.44,1.22-2.44,2.59v5.49
		h-3.05V31.25h3.05v6.71c0.61-0.61,1.68-1.07,3.05-1.07c2.75,0,4.73,1.98,4.73,4.88V47.57z M92.83,45.44c0.92,0,1.98-0.3,2.75-1.07
		l1.22,2.14c-0.76,0.46-1.98,1.37-4.43,1.37c-3.36,0-5.8-2.44-5.8-5.49c0-3.05,2.29-5.49,5.49-5.49c3.05,0,5.19,2.29,5.19,5.49
		c0,0.46-0.15,0.92,0.15,0.92h-7.78C90.09,44.52,91.15,45.44,92.83,45.44z M102.45,47.73h-3.05V31.4h3.05V47.73z M111.45,48.03
		c-1.22,0-2.44-0.46-3.2-1.37v5.65h-3.05V37.2h2.59l0.15,1.22c0.92-1.07,2.14-1.53,3.51-1.53c2.9,0,5.04,2.44,5.04,5.65
		C116.48,45.74,114.35,48.03,111.45,48.03z"/>
</g>
</svg>
