<svg xmlns="http://www.w3.org/2000/svg" width="1920" height="302" viewBox="0 0 1920 302">
  <path id="Fondo_positivo" d="M1737.38,204.32c-76-12.69-143.58-43.81-203.3-92.4-42.89-34.9-91.08-43.3-142.64-24.34a822.007,822.007,0,0,1-265.78,50.5c-21,.51-41.99.05-62.95-1.1-13.45-.74-26.96-1.26-40.3-3.4-26.86-4.31-52.06-13.95-77.16-23.93-31.26-12.43-62.02-26.22-94.7-34.79-22.59-5.93-45.44-9.04-68.74-5.26-27.06,4.39-48.92,18.43-68.23,37.17-17.92,17.39-32.53,37.46-47.2,57.49-14.48,19.76-28.35,40.1-46.45,56.8-57.89,53.43-126.18,77.38-204.81,70.21-67.91-6.19-126.33-33.61-175.2-81.02-32.47-31.5-55.26-69.2-71.14-111.58C150.89,50.97,115.8,21.72,66.74,9.33,44.9,3.81,22.07,4.41,0,0V302H1920V195c-2.39.72-4.75,1.54-7.17,2.14A427,427,0,0,1,1737.38,204.32Z" fill="#fff"/>
</svg>
