<svg xmlns="http://www.w3.org/2000/svg" xmlns:xlink="http://www.w3.org/1999/xlink" width="1918.48" height="800" viewBox="0 0 1918.48 800">
  <defs>
    <clipPath id="clip-path">
      <rect id="Rectángulo_672" data-name="Rectángulo 672" width="1918.48" height="800" transform="translate(1.52)" fill="none"/>
    </clipPath>
  </defs>
  <g id="lineas_fondo-01" data-name="lineas fondo-01" transform="translate(-1.52)" opacity="0.45">
    <g id="OBJECTS">
      <g id="Grupo_2876" data-name="Grupo 2876" clip-path="url(#clip-path)">
        <g id="Grupo_2871" data-name="Grupo 2871">
          <path id="Trazado_2454" data-name="Trazado 2454" d="M2748.08,423.39s-263.71,147.79-683.9,147.79S1531,185.76,1000.66,185.76,360.23,800.11-352.65,800.11" fill="none" stroke="#f3f3f3" stroke-width="0.54"/>
          <path id="Trazado_2455" data-name="Trazado 2455" d="M2748.08,416.88s-263.71,163.47-683.9,163.47S1531,171.62,1000.66,171.62,360.23,782.3-352.65,782.3" fill="none" stroke="#f3f3f3" stroke-width="0.54" opacity="0.98"/>
          <path id="Trazado_2456" data-name="Trazado 2456" d="M2748.08,410.38s-263.71,179.14-683.9,179.14-533.21-432-1063.52-432-640.43,607-1353.31,607" fill="none" stroke="#f3f3f3" stroke-width="0.53" opacity="0.95"/>
          <path id="Trazado_2457" data-name="Trazado 2457" d="M2748.08,403.88s-263.71,194.81-683.9,194.81S1531,143.35,1000.66,143.35,360.23,746.68-352.65,746.68" fill="none" stroke="#f3f3f3" stroke-width="0.52" opacity="0.93"/>
          <path id="Trazado_2458" data-name="Trazado 2458" d="M2748.08,397.38s-263.71,210.48-683.9,210.48S1531,129.22,1000.66,129.22,360.23,728.87-352.65,728.87" fill="none" stroke="#f3f3f3" stroke-width="0.52" opacity="0.9"/>
          <path id="Trazado_2459" data-name="Trazado 2459" d="M2748.08,390.87S2484.37,617,2064.18,617,1531,115.08,1000.66,115.08s-640.43,596-1353.31,596" fill="none" stroke="#f3f3f3" stroke-width="0.51" opacity="0.88"/>
          <path id="Trazado_2460" data-name="Trazado 2460" d="M2748.08,384.37S2484.37,626.2,2064.18,626.2,1531,100.94,1000.66,100.94,360.23,693.24-352.65,693.24" fill="none" stroke="#f3f3f3" stroke-width="0.5" opacity="0.85"/>
          <path id="Trazado_2461" data-name="Trazado 2461" d="M2748.08,377.87s-263.71,257.5-683.9,257.5S1531,86.81,1000.66,86.81,360.23,675.43-352.65,675.43" fill="none" stroke="#f3f3f3" stroke-width="0.5" opacity="0.83"/>
          <path id="Trazado_2462" data-name="Trazado 2462" d="M2748.08,371.37s-263.71,273.17-683.9,273.17S1531,72.67,1000.66,72.67s-640.43,585-1353.31,585" fill="none" stroke="#f3f3f3" stroke-width="0.49" opacity="0.8"/>
          <path id="Trazado_2463" data-name="Trazado 2463" d="M2748.08,364.86s-263.71,288.86-683.9,288.86S1531,58.54,1000.66,58.54,360.23,639.81-352.65,639.81" fill="none" stroke="#f3f3f3" stroke-width="0.48" opacity="0.78"/>
          <path id="Trazado_2464" data-name="Trazado 2464" d="M2748.08,358.36s-263.71,304.53-683.9,304.53S1531,44.4,1000.66,44.4,360.23,622-352.65,622" fill="none" stroke="#f3f3f3" stroke-width="0.48" opacity="0.76"/>
          <path id="Trazado_2465" data-name="Trazado 2465" d="M2748.08,351.86s-263.71,320.2-683.9,320.2S1531,30.26,1000.66,30.26,360.23,604.19-352.65,604.19" fill="none" stroke="#f3f3f3" stroke-width="0.47" opacity="0.73"/>
          <path id="Trazado_2466" data-name="Trazado 2466" d="M2748.08,345.36s-263.71,335.87-683.9,335.87S1531,16.13,1000.66,16.13,360.23,586.37-352.65,586.37" fill="none" stroke="#f3f3f3" stroke-width="0.46" opacity="0.71"/>
          <path id="Trazado_2467" data-name="Trazado 2467" d="M2748.08,338.85S2484.37,690.4,2064.18,690.4,1531,2,1000.66,2,360.23,568.56-352.65,568.56" fill="none" stroke="#f3f3f3" stroke-width="0.46" opacity="0.68"/>
          <path id="Trazado_2468" data-name="Trazado 2468" d="M2748.08,332.35s-263.71,367.22-683.9,367.22S1531-12.14,1000.66-12.14,360.23,550.75-352.65,550.75" fill="none" stroke="#f3f3f3" stroke-width="0.45" opacity="0.66"/>
          <path id="Trazado_2469" data-name="Trazado 2469" d="M2748.08,325.85s-263.71,382.89-683.9,382.89-533.21-735-1063.52-735S360.23,532.94-352.65,532.94" fill="none" stroke="#f3f3f3" stroke-width="0.44" opacity="0.63"/>
          <path id="Trazado_2470" data-name="Trazado 2470" d="M2748.08,319.35s-263.71,398.56-683.9,398.56S1531-40.42,1000.66-40.42,360.23,515.13-352.65,515.13" fill="none" stroke="#f3f3f3" stroke-width="0.44" opacity="0.61"/>
          <path id="Trazado_2471" data-name="Trazado 2471" d="M2748.08,312.84s-263.71,414.24-683.9,414.24S1531-54.55,1000.66-54.55,360.23,497.32-352.65,497.32" fill="none" stroke="#f3f3f3" stroke-width="0.43" opacity="0.59"/>
          <path id="Trazado_2472" data-name="Trazado 2472" d="M2748.08,306.34s-263.71,429.91-683.9,429.91S1531-68.69,1000.66-68.69,360.23,479.51-352.65,479.51" fill="none" stroke="#f3f3f3" stroke-width="0.42" opacity="0.56"/>
          <path id="Trazado_2473" data-name="Trazado 2473" d="M2748.08,299.84s-263.71,445.58-683.9,445.58S1531-82.82,1000.66-82.82,360.23,461.7-352.65,461.7" fill="none" stroke="#f3f3f3" stroke-width="0.42" opacity="0.54"/>
          <path id="Trazado_2474" data-name="Trazado 2474" d="M2748.08,293.34s-263.71,461.25-683.9,461.25S1531-97,1000.66-97,360.23,443.88-352.65,443.88" fill="none" stroke="#f3f3f3" stroke-width="0.41" opacity="0.51"/>
          <path id="Trazado_2475" data-name="Trazado 2475" d="M2748.08,286.83s-263.71,476.93-683.9,476.93S1531-111.1,1000.66-111.1,360.23,426.07-352.65,426.07" fill="none" stroke="#f3f3f3" stroke-width="0.4" opacity="0.49"/>
          <path id="Trazado_2476" data-name="Trazado 2476" d="M2748.08,280.33s-263.71,492.6-683.9,492.6S1531-125.23,1000.66-125.23,360.23,408.26-352.65,408.26" fill="none" stroke="#f3f3f3" stroke-width="0.4" opacity="0.46"/>
          <path id="Trazado_2477" data-name="Trazado 2477" d="M2748.08,273.83s-263.71,508.28-683.9,508.28S1531-139.37,1000.66-139.37,360.23,390.45-352.65,390.45" fill="none" stroke="#f3f3f3" stroke-width="0.39" opacity="0.44"/>
          <path id="Trazado_2478" data-name="Trazado 2478" d="M2748.08,267.33s-263.71,524-683.9,524S1531-153.5,1000.66-153.5,360.23,372.64-352.65,372.64" fill="none" stroke="#f3f3f3" stroke-width="0.38" opacity="0.41"/>
          <path id="Trazado_2479" data-name="Trazado 2479" d="M2748.08,260.82s-263.71,539.63-683.9,539.63S1531-167.64,1000.66-167.64,360.23,354.83-352.65,354.83" fill="none" stroke="#f3f3f3" stroke-width="0.38" opacity="0.39"/>
          <path id="Trazado_2480" data-name="Trazado 2480" d="M2748.08,254.32s-263.71,555.3-683.9,555.3S1531-181.78,1000.66-181.78,360.23,337-352.65,337" fill="none" stroke="#f3f3f3" stroke-width="0.37" opacity="0.37"/>
          <path id="Trazado_2481" data-name="Trazado 2481" d="M2748.08,247.82s-263.71,571-683.9,571S1531-195.91,1000.66-195.91,360.23,319.2-352.65,319.2" fill="none" stroke="#f3f3f3" stroke-width="0.36" opacity="0.34"/>
          <path id="Trazado_2482" data-name="Trazado 2482" d="M2748.08,241.32S2484.37,828,2064.18,828,1531-210,1000.66-210,360.23,301.39-352.65,301.39" fill="none" stroke="#f3f3f3" stroke-width="0.36" opacity="0.32"/>
          <path id="Trazado_2483" data-name="Trazado 2483" d="M2748.08,234.81s-263.71,602.32-683.9,602.32S1531-224.18,1000.66-224.18,360.23,283.58-352.65,283.58" fill="none" stroke="#f3f3f3" stroke-width="0.35" opacity="0.29"/>
          <path id="Trazado_2484" data-name="Trazado 2484" d="M2748.08,228.31s-263.71,618-683.9,618S1531-238.32,1000.66-238.32,360.23,265.77-352.65,265.77" fill="none" stroke="#f3f3f3" stroke-width="0.34" opacity="0.27"/>
          <path id="Trazado_2485" data-name="Trazado 2485" d="M2748.08,221.81s-263.71,633.66-683.9,633.66S1531-252.46,1000.66-252.46,360.23,248-352.65,248" fill="none" stroke="#f3f3f3" stroke-width="0.34" opacity="0.24"/>
          <path id="Trazado_2486" data-name="Trazado 2486" d="M2748.08,215.3s-263.71,649.34-683.9,649.34S1531-266.59,1000.66-266.59,360.23,230.15-352.65,230.15" fill="none" stroke="#f3f3f3" stroke-width="0.33" opacity="0.22"/>
          <path id="Trazado_2487" data-name="Trazado 2487" d="M2748.08,208.8s-263.71,665-683.9,665S1531-280.73,1000.66-280.73,360.23,212.34-352.65,212.34" fill="none" stroke="#f3f3f3" stroke-width="0.32" opacity="0.2"/>
          <path id="Trazado_2488" data-name="Trazado 2488" d="M2748.08,202.3S2484.37,883,2064.18,883,1531-294.86,1000.66-294.86,360.23,194.52-352.65,194.52" fill="none" stroke="#f3f3f3" stroke-width="0.32" opacity="0.17"/>
          <path id="Trazado_2489" data-name="Trazado 2489" d="M2748.08,195.8s-263.71,696.35-683.9,696.35S1531-309,1000.66-309,360.23,176.71-352.65,176.71" fill="none" stroke="#f3f3f3" stroke-width="0.31" opacity="0.15"/>
          <path id="Trazado_2490" data-name="Trazado 2490" d="M2748.08,189.29s-263.71,712-683.9,712S1531-323.14,1000.66-323.14s-640.43,482-1353.31,482" fill="none" stroke="#f3f3f3" stroke-width="0.3" opacity="0.12"/>
          <path id="Trazado_2491" data-name="Trazado 2491" d="M2748.08,182.79S2484.37,910.5,2064.18,910.5,1531-337.27,1000.66-337.27,360.23,141.09-352.65,141.09" fill="none" stroke="#f3f3f3" stroke-width="0.3" opacity="0.1"/>
          <path id="Trazado_2492" data-name="Trazado 2492" d="M2748.08,176.29s-263.71,743.38-683.9,743.38S1531-351.41,1000.66-351.41,360.23,123.28-352.65,123.28" fill="none" stroke="#f3f3f3" stroke-width="0.29" opacity="0.07"/>
          <path id="Trazado_2493" data-name="Trazado 2493" d="M2748.08,169.79s-263.71,759.05-683.9,759.05S1531-365.54,1000.66-365.54s-640.43,471-1353.31,471" fill="none" stroke="#f3f3f3" stroke-width="0.28" opacity="0.05"/>
          <path id="Trazado_2494" data-name="Trazado 2494" d="M2748.08,163.28S2484.37,938,2064.18,938,1531-379.68,1000.66-379.68,360.23,87.66-352.65,87.66" fill="none" stroke="#f3f3f3" stroke-width="0.28" opacity="0.02"/>
          <path id="Trazado_2495" data-name="Trazado 2495" d="M2748.08,156.78s-263.71,790.4-683.9,790.4-533.21-1341-1063.52-1341S360.23,69.85-352.65,69.85" fill="none" stroke="#f3f3f3" stroke-width="0.27" opacity="0"/>
        </g>
        <g id="Grupo_2872" data-name="Grupo 2872">
          <path id="Trazado_2496" data-name="Trazado 2496" d="M-342.07,572.57s263.71,147.79,683.9,147.79S875,525.48,1405.35,525.48s640.43,423.81,1353.31,423.81" fill="none" stroke="#f3f3f3" stroke-width="0.54"/>
          <path id="Trazado_2497" data-name="Trazado 2497" d="M-342.07,566.07S-65.32,729.53,354.87,729.53,875,506.7,1405.35,506.7s640.43,424.78,1353.31,424.78" fill="none" stroke="#f3f3f3" stroke-width="0.54" opacity="0.98"/>
          <path id="Trazado_2498" data-name="Trazado 2498" d="M-342.07,559.56s289.79,179.14,710,179.14S875,487.91,1405.35,487.91s640.43,425.76,1353.31,425.76" fill="none" stroke="#f3f3f3" stroke-width="0.53" opacity="0.95"/>
          <path id="Trazado_2499" data-name="Trazado 2499" d="M-342.07,553.06S-39.24,747.87,381,747.87,875,469.13,1405.35,469.13s640.43,426.73,1353.31,426.73" fill="none" stroke="#f3f3f3" stroke-width="0.52" opacity="0.93"/>
          <path id="Trazado_2500" data-name="Trazado 2500" d="M-342.07,546.56S-26.2,757,394,757,875,450.35,1405.35,450.35s640.43,427.7,1353.31,427.7" fill="none" stroke="#f3f3f3" stroke-width="0.52" opacity="0.9"/>
          <path id="Trazado_2501" data-name="Trazado 2501" d="M-342.07,540.06S-13.16,766.21,407,766.21s468-334.65,998.32-334.65,640.43,428.68,1353.31,428.68" fill="none" stroke="#f3f3f3" stroke-width="0.51" opacity="0.88"/>
          <path id="Trazado_2502" data-name="Trazado 2502" d="M-342.07,533.55s342,241.84,762.14,241.84,455-362.61,985.28-362.61,640.43,429.65,1353.31,429.65" fill="none" stroke="#f3f3f3" stroke-width="0.5" opacity="0.85"/>
          <path id="Trazado_2503" data-name="Trazado 2503" d="M-342.07,527.05s355,257.51,775.18,257.51S875,394,1405.35,394s640.43,430.61,1353.31,430.61" fill="none" stroke="#f3f3f3" stroke-width="0.5" opacity="0.83"/>
          <path id="Trazado_2504" data-name="Trazado 2504" d="M-342.07,520.55S26,793.73,446.15,793.73,875,375.21,1405.35,375.21,2045.78,806.8,2758.66,806.8" fill="none" stroke="#f3f3f3" stroke-width="0.49" opacity="0.8"/>
          <path id="Trazado_2505" data-name="Trazado 2505" d="M-342.07,514.05S39,802.9,459.19,802.9,875,356.43,1405.35,356.43,2045.78,789,2758.66,789" fill="none" stroke="#f3f3f3" stroke-width="0.48" opacity="0.78"/>
          <path id="Trazado_2506" data-name="Trazado 2506" d="M-342.07,507.54S52,812.07,472.23,812.07,875,337.65,1405.35,337.65s640.43,433.53,1353.31,433.53" fill="none" stroke="#f3f3f3" stroke-width="0.48" opacity="0.76"/>
          <path id="Trazado_2507" data-name="Trazado 2507" d="M-342.07,501S65.08,821.2,485.27,821.2,875,318.86,1405.35,318.86s640.43,434.51,1353.31,434.51" fill="none" stroke="#f3f3f3" stroke-width="0.47" opacity="0.73"/>
          <path id="Trazado_2508" data-name="Trazado 2508" d="M-342.07,494.54S78.12,830.41,498.32,830.41s376.72-530.33,907-530.33,640.43,435.48,1353.31,435.48" fill="none" stroke="#f3f3f3" stroke-width="0.46" opacity="0.71"/>
          <path id="Trazado_2509" data-name="Trazado 2509" d="M-342.07,488S91.16,839.58,511.36,839.58,875,281.3,1405.35,281.3s640.43,436.45,1353.31,436.45" fill="none" stroke="#f3f3f3" stroke-width="0.46" opacity="0.68"/>
          <path id="Trazado_2510" data-name="Trazado 2510" d="M-342.07,481.53S104.2,848.75,524.4,848.75s350.64-586.24,881-586.24,640.43,437.42,1353.31,437.42" fill="none" stroke="#f3f3f3" stroke-width="0.45" opacity="0.66"/>
          <path id="Trazado_2511" data-name="Trazado 2511" d="M-342.07,475S117.24,857.92,537.44,857.92,875,243.73,1405.35,243.73s640.43,438.39,1353.31,438.39" fill="none" stroke="#f3f3f3" stroke-width="0.44" opacity="0.63"/>
          <path id="Trazado_2512" data-name="Trazado 2512" d="M-342.07,468.53S130.28,867.09,550.48,867.09,875,225,1405.35,225s640.43,439.36,1353.31,439.36" fill="none" stroke="#f3f3f3" stroke-width="0.44" opacity="0.61"/>
          <path id="Trazado_2513" data-name="Trazado 2513" d="M-342.07,462s485.4,414.23,905.59,414.23S875,206.16,1405.35,206.16,2045.78,646.5,2758.66,646.5" fill="none" stroke="#f3f3f3" stroke-width="0.43" opacity="0.59"/>
          <path id="Trazado_2514" data-name="Trazado 2514" d="M-342.07,455.52S156.37,885.43,576.56,885.43s298.48-698,828.79-698,640.43,441.31,1353.31,441.31" fill="none" stroke="#f3f3f3" stroke-width="0.42" opacity="0.56"/>
          <path id="Trazado_2515" data-name="Trazado 2515" d="M-342.07,449S169.41,894.6,589.6,894.6s285.44-726,815.75-726,640.43,442.28,1353.31,442.28" fill="none" stroke="#f3f3f3" stroke-width="0.42" opacity="0.54"/>
          <path id="Trazado_2516" data-name="Trazado 2516" d="M-342.07,442.52S182.45,903.78,602.64,903.78s272.4-754,802.71-754,640.43,443.26,1353.31,443.26" fill="none" stroke="#f3f3f3" stroke-width="0.41" opacity="0.51"/>
          <path id="Trazado_2517" data-name="Trazado 2517" d="M-342.07,436S195.49,913,615.68,913,875,131,1405.35,131s640.43,444.22,1353.31,444.22" fill="none" stroke="#f3f3f3" stroke-width="0.4" opacity="0.49"/>
          <path id="Trazado_2518" data-name="Trazado 2518" d="M-342.07,429.51s550.6,492.61,970.79,492.61S875,112.25,1405.35,112.25s640.43,445.19,1353.31,445.19" fill="none" stroke="#f3f3f3" stroke-width="0.4" opacity="0.46"/>
          <path id="Trazado_2519" data-name="Trazado 2519" d="M-342.07,423S221.57,931.29,641.76,931.29,875,93.46,1405.35,93.46s640.43,446.17,1353.31,446.17" fill="none" stroke="#f3f3f3" stroke-width="0.39" opacity="0.44"/>
          <path id="Trazado_2520" data-name="Trazado 2520" d="M-342.07,416.51s576.68,524,996.87,524S875,74.68,1405.35,74.68s640.43,447.14,1353.31,447.14" fill="none" stroke="#f3f3f3" stroke-width="0.38" opacity="0.41"/>
          <path id="Trazado_2521" data-name="Trazado 2521" d="M-342.07,410S247.65,949.63,667.84,949.63,875,55.9,1405.35,55.9,2045.78,504,2758.66,504" fill="none" stroke="#f3f3f3" stroke-width="0.38" opacity="0.39"/>
          <path id="Trazado_2522" data-name="Trazado 2522" d="M-342.07,403.5s602.76,555.3,1023,555.3S875,37.12,1405.35,37.12,2045.78,486.2,2758.66,486.2" fill="none" stroke="#f3f3f3" stroke-width="0.37" opacity="0.37"/>
          <path id="Trazado_2523" data-name="Trazado 2523" d="M-342.07,397s615.8,571,1036,571S875,18.33,1405.35,18.33s640.43,450.06,1353.31,450.06" fill="none" stroke="#f3f3f3" stroke-width="0.36" opacity="0.34"/>
          <path id="Trazado_2524" data-name="Trazado 2524" d="M-342.07,390.5S286.77,977.14,707,977.14,875-.45,1405.35-.45s640.43,451,1353.31,451" fill="none" stroke="#f3f3f3" stroke-width="0.36" opacity="0.32"/>
          <path id="Trazado_2525" data-name="Trazado 2525" d="M-342.07,384S299.81,986.31,720,986.31,875-19.23,1405.35-19.23s640.43,452,1353.31,452" fill="none" stroke="#f3f3f3" stroke-width="0.35" opacity="0.29"/>
          <path id="Trazado_2526" data-name="Trazado 2526" d="M-342.07,377.49s654.92,618,1075.11,618S875-38,1405.35-38s640.43,453,1353.31,453" fill="none" stroke="#f3f3f3" stroke-width="0.34" opacity="0.27"/>
          <path id="Trazado_2527" data-name="Trazado 2527" d="M-342.07,371s668,633.66,1088.15,633.66S875-56.8,1405.35-56.8s640.43,453.94,1353.31,453.94" fill="none" stroke="#f3f3f3" stroke-width="0.34" opacity="0.24"/>
          <path id="Trazado_2528" data-name="Trazado 2528" d="M-342.07,364.49s681,649.33,1101.19,649.33S875-75.58,1405.35-75.58s640.43,454.91,1353.31,454.91" fill="none" stroke="#f3f3f3" stroke-width="0.33" opacity="0.22"/>
          <path id="Trazado_2529" data-name="Trazado 2529" d="M-342.07,358s694,665,1114.23,665S875-94.37,1405.35-94.37s640.43,455.89,1353.31,455.89" fill="none" stroke="#f3f3f3" stroke-width="0.32" opacity="0.2"/>
          <path id="Trazado_2530" data-name="Trazado 2530" d="M-342.07,351.48S365,1032.17,785.21,1032.17,875-113.15,1405.35-113.15s640.43,456.86,1353.31,456.86" fill="none" stroke="#f3f3f3" stroke-width="0.32" opacity="0.17"/>
          <path id="Trazado_2531" data-name="Trazado 2531" d="M-342.07,345s720.12,696.36,1140.32,696.36S875-131.93,1405.35-131.93,2045.78,325.9,2758.66,325.9" fill="none" stroke="#f3f3f3" stroke-width="0.31" opacity="0.15"/>
          <path id="Trazado_2532" data-name="Trazado 2532" d="M-342.07,338.48s733.16,712,1153.36,712S875-150.72,1405.35-150.72s640.43,458.8,1353.31,458.8" fill="none" stroke="#f3f3f3" stroke-width="0.3" opacity="0.12"/>
          <path id="Trazado_2533" data-name="Trazado 2533" d="M-342.07,332s746.2,727.71,1166.4,727.71S875-169.5,1405.35-169.5s640.43,459.77,1353.31,459.77" fill="none" stroke="#f3f3f3" stroke-width="0.3" opacity="0.1"/>
          <path id="Trazado_2534" data-name="Trazado 2534" d="M-342.07,325.47s759.24,743.38,1179.44,743.38S875-188.28,1405.35-188.28s640.43,460.74,1353.31,460.74" fill="none" stroke="#f3f3f3" stroke-width="0.29" opacity="0.07"/>
          <path id="Trazado_2535" data-name="Trazado 2535" d="M-342.07,319s772.29,759,1192.48,759S875-207.07,1405.35-207.07s640.43,461.72,1353.31,461.72" fill="none" stroke="#f3f3f3" stroke-width="0.28" opacity="0.05"/>
          <path id="Trazado_2536" data-name="Trazado 2536" d="M-342.07,312.47s785.33,774.72,1205.52,774.72,11.59-1313,541.9-1313,640.43,462.69,1353.31,462.69" fill="none" stroke="#f3f3f3" stroke-width="0.28" opacity="0.02"/>
          <path id="Trazado_2537" data-name="Trazado 2537" d="M-342.07,306S456.3,1096.4,876.49,1096.4s-1.45-1341,528.86-1341S2045.78,219,2758.66,219" fill="none" stroke="#f3f3f3" stroke-width="0.27" opacity="0"/>
        </g>
        <g id="Grupo_2873" data-name="Grupo 2873">
          <path id="Trazado_2538" data-name="Trazado 2538" d="M2975.46,434.63s-308.32-147.8-799.59-147.8S1552.46,481.72,932.44,481.72,183.68,57.9-649.79,57.9" fill="none" stroke="#f3f3f3" stroke-width="0.54"/>
          <path id="Trazado_2539" data-name="Trazado 2539" d="M2975.46,441.13s-323.57-163.47-814.84-163.47S1552.46,500.5,932.44,500.5,183.68,75.71-649.79,75.71" fill="none" stroke="#f3f3f3" stroke-width="0.54" opacity="0.98"/>
          <path id="Trazado_2540" data-name="Trazado 2540" d="M2975.46,447.63s-338.81-179.14-830.08-179.14S1552.46,519.28,932.44,519.28,183.68,93.52-649.79,93.52" fill="none" stroke="#f3f3f3" stroke-width="0.53" opacity="0.95"/>
          <path id="Trazado_2541" data-name="Trazado 2541" d="M2975.46,454.13S2621.4,259.32,2130.13,259.32,1552.46,538.07,932.44,538.07,183.68,111.34-649.79,111.34" fill="none" stroke="#f3f3f3" stroke-width="0.52" opacity="0.93"/>
          <path id="Trazado_2542" data-name="Trazado 2542" d="M2975.46,460.64s-369.31-210.49-860.58-210.49-562.42,306.7-1182.44,306.7S183.68,129.15-649.79,129.15" fill="none" stroke="#f3f3f3" stroke-width="0.52" opacity="0.9"/>
          <path id="Trazado_2543" data-name="Trazado 2543" d="M2975.46,467.14S2590.91,241,2099.64,241,1552.46,575.63,932.44,575.63,183.68,147-649.79,147" fill="none" stroke="#f3f3f3" stroke-width="0.51" opacity="0.88"/>
          <path id="Trazado_2544" data-name="Trazado 2544" d="M2975.46,473.64s-399.8-241.83-891.07-241.83S1552.46,594.42,932.44,594.42,183.68,164.77-649.79,164.77" fill="none" stroke="#f3f3f3" stroke-width="0.51" opacity="0.85"/>
          <path id="Trazado_2545" data-name="Trazado 2545" d="M2975.46,480.14s-415-257.5-906.32-257.5S1552.46,613.2,932.44,613.2,183.68,182.58-649.79,182.58" fill="none" stroke="#f3f3f3" stroke-width="0.5" opacity="0.83"/>
          <path id="Trazado_2546" data-name="Trazado 2546" d="M2975.46,486.65S2545.17,213.47,2053.9,213.47,1552.46,632,932.44,632,183.68,200.39-649.79,200.39" fill="none" stroke="#f3f3f3" stroke-width="0.49" opacity="0.8"/>
          <path id="Trazado_2547" data-name="Trazado 2547" d="M2975.46,493.15S2529.92,204.3,2038.65,204.3,1552.46,650.76,932.44,650.76,183.68,218.2-649.79,218.2" fill="none" stroke="#f3f3f3" stroke-width="0.49" opacity="0.78"/>
          <path id="Trazado_2548" data-name="Trazado 2548" d="M2975.46,499.65S2514.68,195.13,2023.4,195.13s-470.94,474.42-1091,474.42S183.68,236-649.79,236" fill="none" stroke="#f3f3f3" stroke-width="0.48" opacity="0.76"/>
          <path id="Trazado_2549" data-name="Trazado 2549" d="M2975.46,506.15S2499.43,186,2008.16,186,1552.46,688.33,932.44,688.33,183.68,253.83-649.79,253.83" fill="none" stroke="#f3f3f3" stroke-width="0.48" opacity="0.73"/>
          <path id="Trazado_2550" data-name="Trazado 2550" d="M2975.46,512.66s-491.28-335.87-982.55-335.87S1552.46,707.11,932.44,707.11,183.68,271.64-649.79,271.64" fill="none" stroke="#f3f3f3" stroke-width="0.47" opacity="0.71"/>
          <path id="Trazado_2551" data-name="Trazado 2551" d="M2975.46,519.16s-506.52-351.55-997.79-351.55S1552.46,725.9,932.44,725.9,183.68,289.45-649.79,289.45" fill="none" stroke="#f3f3f3" stroke-width="0.46" opacity="0.68"/>
          <path id="Trazado_2552" data-name="Trazado 2552" d="M2975.46,525.66s-521.77-367.22-1013-367.22-410,586.24-1030,586.24S183.68,307.26-649.79,307.26" fill="none" stroke="#f3f3f3" stroke-width="0.46" opacity="0.66"/>
          <path id="Trazado_2553" data-name="Trazado 2553" d="M2975.46,532.16s-537-382.89-1028.29-382.89S1552.46,763.46,932.44,763.46,183.68,325.07-649.79,325.07" fill="none" stroke="#f3f3f3" stroke-width="0.45" opacity="0.63"/>
          <path id="Trazado_2554" data-name="Trazado 2554" d="M2975.46,538.67S2423.2,140.1,1931.93,140.1,1552.46,782.25,932.44,782.25,183.68,342.88-649.79,342.88" fill="none" stroke="#f3f3f3" stroke-width="0.45" opacity="0.61"/>
          <path id="Trazado_2555" data-name="Trazado 2555" d="M2975.46,545.17S2408,130.93,1916.68,130.93,1552.46,801,932.44,801,183.68,360.69-649.79,360.69" fill="none" stroke="#f3f3f3" stroke-width="0.44" opacity="0.59"/>
          <path id="Trazado_2556" data-name="Trazado 2556" d="M2975.46,551.67s-582.75-429.91-1074-429.91-349,698.05-969,698.05S183.68,378.51-649.79,378.51" fill="none" stroke="#f3f3f3" stroke-width="0.43" opacity="0.56"/>
          <path id="Trazado_2557" data-name="Trazado 2557" d="M2975.46,558.17s-598-445.58-1089.27-445.58-333.73,726-953.75,726S183.68,396.32-649.79,396.32" fill="none" stroke="#f3f3f3" stroke-width="0.43" opacity="0.54"/>
          <path id="Trazado_2558" data-name="Trazado 2558" d="M2975.46,564.68S2362.21,103.42,1870.94,103.42s-318.48,754-938.5,754S183.68,414.13-649.79,414.13" fill="none" stroke="#f3f3f3" stroke-width="0.42" opacity="0.51"/>
          <path id="Trazado_2559" data-name="Trazado 2559" d="M2975.46,571.18S2347,94.25,1855.69,94.25,1552.46,876.16,932.44,876.16,183.68,431.94-649.79,431.94" fill="none" stroke="#f3f3f3" stroke-width="0.42" opacity="0.49"/>
          <path id="Trazado_2560" data-name="Trazado 2560" d="M2975.46,577.68s-643.74-492.6-1135-492.6S1552.46,895,932.44,895,183.68,449.75-649.79,449.75" fill="none" stroke="#f3f3f3" stroke-width="0.41" opacity="0.46"/>
          <path id="Trazado_2561" data-name="Trazado 2561" d="M2975.46,584.18S2316.47,75.91,1825.2,75.91,1552.46,913.73,932.44,913.73,183.68,467.56-649.79,467.56" fill="none" stroke="#f3f3f3" stroke-width="0.4" opacity="0.44"/>
          <path id="Trazado_2562" data-name="Trazado 2562" d="M2975.46,590.69S2301.23,66.74,1810,66.74,1552.5,932.51,932.48,932.51,183.68,485.37-649.79,485.37" fill="none" stroke="#f3f3f3" stroke-width="0.4" opacity="0.41"/>
          <path id="Trazado_2563" data-name="Trazado 2563" d="M2975.46,597.19S2286,57.57,1794.71,57.57,1552.46,951.3,932.44,951.3,183.68,503.19-649.79,503.19" fill="none" stroke="#f3f3f3" stroke-width="0.39" opacity="0.39"/>
          <path id="Trazado_2564" data-name="Trazado 2564" d="M2975.46,603.69S2270.73,48.4,1779.46,48.4s-227,921.68-847,921.68S183.68,521-649.79,521" fill="none" stroke="#f3f3f3" stroke-width="0.38" opacity="0.37"/>
          <path id="Trazado_2565" data-name="Trazado 2565" d="M2975.46,610.19s-720-571-1211.24-571S1552.46,988.86,932.44,988.86,183.68,538.81-649.79,538.81" fill="none" stroke="#f3f3f3" stroke-width="0.38" opacity="0.34"/>
          <path id="Trazado_2566" data-name="Trazado 2566" d="M2975.46,616.7S2240.24,30.05,1749,30.05s-196.51,977.6-816.53,977.6-748.76-451-1582.23-451" fill="none" stroke="#f3f3f3" stroke-width="0.37" opacity="0.32"/>
          <path id="Trazado_2567" data-name="Trazado 2567" d="M2975.46,623.2S2225,20.88,1733.72,20.88,1552.46,1026.43,932.44,1026.43s-748.76-452-1582.23-452" fill="none" stroke="#f3f3f3" stroke-width="0.37" opacity="0.29"/>
          <path id="Trazado_2568" data-name="Trazado 2568" d="M2975.46,629.7s-765.71-618-1257-618-166,1033.5-786,1033.5-748.76-453-1582.23-453" fill="none" stroke="#f3f3f3" stroke-width="0.36" opacity="0.27"/>
          <path id="Trazado_2569" data-name="Trazado 2569" d="M2975.46,636.21S2194.5,2.54,1703.23,2.54,1552.46,1064,932.44,1064,183.68,610.05-649.79,610.05" fill="none" stroke="#f3f3f3" stroke-width="0.35" opacity="0.24"/>
          <path id="Trazado_2570" data-name="Trazado 2570" d="M2975.46,642.71S2179.26-6.63,1688-6.63,1552.46,1082.78,932.44,1082.78,183.68,627.86-649.79,627.86" fill="none" stroke="#f3f3f3" stroke-width="0.35" opacity="0.22"/>
          <path id="Trazado_2571" data-name="Trazado 2571" d="M2975.46,649.21S2164-15.8,1672.74-15.8s-120.28,1117.36-740.3,1117.36S183.68,645.68-649.79,645.68" fill="none" stroke="#f3f3f3" stroke-width="0.34" opacity="0.2"/>
          <path id="Trazado_2572" data-name="Trazado 2572" d="M2975.46,655.71S2148.76-25,1657.49-25s-105,1145.32-725,1145.32S183.68,663.49-649.79,663.49" fill="none" stroke="#f3f3f3" stroke-width="0.34" opacity="0.17"/>
          <path id="Trazado_2573" data-name="Trazado 2573" d="M2975.46,662.22S2133.52-34.14,1642.25-34.14s-89.79,1173.27-709.81,1173.27S183.68,681.3-649.79,681.3" fill="none" stroke="#f3f3f3" stroke-width="0.33" opacity="0.15"/>
          <path id="Trazado_2574" data-name="Trazado 2574" d="M2975.46,668.72s-857.19-712-1348.46-712-74.54,1201.22-694.56,1201.22S183.68,699.11-649.79,699.11" fill="none" stroke="#f3f3f3" stroke-width="0.32" opacity="0.12"/>
          <path id="Trazado_2575" data-name="Trazado 2575" d="M2975.46,675.22S2103-52.48,1611.75-52.48,1552.46,1176.7,932.44,1176.7,183.68,716.92-649.79,716.92" fill="none" stroke="#f3f3f3" stroke-width="0.32" opacity="0.1"/>
          <path id="Trazado_2576" data-name="Trazado 2576" d="M2975.46,681.72S2087.78-61.65,1596.51-61.65s-44,1257.13-664.07,1257.13S183.68,734.73-649.79,734.73" fill="none" stroke="#f3f3f3" stroke-width="0.31" opacity="0.07"/>
          <path id="Trazado_2577" data-name="Trazado 2577" d="M2975.46,688.23s-902.93-759-1394.2-759-28.8,1285.08-648.82,1285.08S183.68,752.54-649.79,752.54" fill="none" stroke="#f3f3f3" stroke-width="0.31" opacity="0.05"/>
          <path id="Trazado_2578" data-name="Trazado 2578" d="M2975.46,694.73S2057.29-80,1566-80s-13.55,1313-633.57,1313S183.68,770.36-649.79,770.36" fill="none" stroke="#f3f3f3" stroke-width="0.3" opacity="0.02"/>
          <path id="Trazado_2579" data-name="Trazado 2579" d="M2975.46,701.23S2042-89.17,1550.77-89.17s1.69,1341-618.33,1341S183.68,788.17-649.79,788.17" fill="none" stroke="#f3f3f3" stroke-width="0.29" opacity="0"/>
        </g>
        <g id="Grupo_2874" data-name="Grupo 2874" opacity="0.17">
          <path id="Trazado_2580" data-name="Trazado 2580" d="M1805.62,623.19l210.36-191.13,130.16,324.08Z" fill="none" stroke="#fff" stroke-width="0.74"/>
          <path id="Trazado_2581" data-name="Trazado 2581" d="M2476.15,605.18l219.56,84.48L2510.33,819.85l-364.19-63.71,60.48,78.94-378.65,4.16" fill="none" stroke="#fff" stroke-width="0.74"/>
          <line id="Línea_144" data-name="Línea 144" x1="176.18" y1="62.32" transform="translate(1708.32 301.88)" fill="none" stroke="#fff" stroke-width="0.74"/>
          <path id="Trazado_2582" data-name="Trazado 2582" d="M2301.94,6.19l24.32,205.66L2089.61,281.8,1884.5,364.2l131.48,67.86,290.56,20.78-28.92,88.63,198.53,63.71,293.19-174.5-462.8,22.16" fill="none" stroke="#fff" stroke-width="0.74"/>
          <path id="Trazado_2583" data-name="Trazado 2583" d="M1827.97,839.24l-22.35-216.05L1692.55,677.2" fill="none" stroke="#fff" stroke-width="0.74"/>
          <path id="Trazado_2584" data-name="Trazado 2584" d="M1590.53,585.7l131.18-107.48,294.27-46.16" fill="none" stroke="#fff" stroke-width="0.74"/>
          <path id="Trazado_2585" data-name="Trazado 2585" d="M1496.6,241.09,1671.51,82.44,1958.13-5.58" fill="none" stroke="#fff" stroke-width="0.74"/>
          <path id="Trazado_2586" data-name="Trazado 2586" d="M1503.08,240.67a6.49,6.49,0,1,1-6.48-6.83,6.66,6.66,0,0,1,6.48,6.83Z" fill="#fff"/>
          <path id="Trazado_2587" data-name="Trazado 2587" d="M1714.83,301.65a6.49,6.49,0,1,1-6.48-6.82,6.66,6.66,0,0,1,6.479,6.82Z" fill="#fff"/>
          <path id="Trazado_2588" data-name="Trazado 2588" d="M1597,584.84a6.49,6.49,0,1,1-6.48-6.82,6.66,6.66,0,0,1,6.48,6.82Z" fill="#fff"/>
          <path id="Trazado_2589" data-name="Trazado 2589" d="M1700.66,677.82a6.49,6.49,0,1,1-6.48-6.83,6.65,6.65,0,0,1,6.48,6.83Z" fill="#fff"/>
          <path id="Trazado_2590" data-name="Trazado 2590" d="M1812.4,624.93a6.48,6.48,0,1,1-6.48-6.82,6.66,6.66,0,0,1,6.48,6.82Z" fill="#fff"/>
          <path id="Trazado_2591" data-name="Trazado 2591" d="M1892.77,364.77a6.49,6.49,0,1,1-6.48-6.82,6.66,6.66,0,0,1,6.48,6.82Z" fill="#fff"/>
          <path id="Trazado_2592" data-name="Trazado 2592" d="M1728.19,477.37a6.49,6.49,0,1,1-6.48-6.83,6.65,6.65,0,0,1,6.48,6.83Z" fill="#fff"/>
          <path id="Trazado_2593" data-name="Trazado 2593" d="M1678.79,81.58a6.48,6.48,0,1,1-6.48-6.82,6.66,6.66,0,0,1,6.48,6.82Z" fill="#fff"/>
        </g>
        <g id="Grupo_2875" data-name="Grupo 2875" opacity="0.17">
          <path id="Trazado_2594" data-name="Trazado 2594" d="M332.67,590.47-22.98,716.5l387.2,12.47L96.67,913.86l291.87,20.77" fill="none" stroke="#fff" stroke-width="0.74"/>
          <path id="Trazado_2595" data-name="Trazado 2595" d="M600.88,659.02,732.35,946.4,388.54,934.63,600.88,659.02,332.67,590.47,674.5,508.76,412.87,399.35,544.34,184.68l-330,150.96,169.6,152.34L-7.86,607.09l340.53-16.62,51.27-102.49" fill="none" stroke="#fff" stroke-width="0.74"/>
          <path id="Trazado_2596" data-name="Trazado 2596" d="M884.87,317.63,674.5,508.76,544.34,184.68Z" fill="none" stroke="#fff" stroke-width="0.74"/>
          <path id="Trazado_2597" data-name="Trazado 2597" d="M214.34,335.64-5.23,251.16,180.15,120.97l364.19,63.71-60.48-78.95,378.65-4.15" fill="none" stroke="#fff" stroke-width="0.74"/>
          <path id="Trazado_2598" data-name="Trazado 2598" d="M437.85-9.22l97.29-34.62L662.67,40.64,483.86,105.73Z" fill="none" stroke="#fff" stroke-width="0.74"/>
          <line id="Línea_145" data-name="Línea 145" x2="176.18" y2="62.32" transform="translate(805.98 576.62)" fill="none" stroke="#fff" stroke-width="0.74"/>
          <line id="Línea_146" data-name="Línea 146" x1="73.62" y2="150.26" transform="translate(600.88 508.76)" fill="none" stroke="#fff" stroke-width="0.74"/>
          <path id="Trazado_2599" data-name="Trazado 2599" d="M388.54,934.63,364.22,728.97l236.66-69.95,205.1-82.4L674.5,508.76,383.94,487.98l28.93-88.63L214.34,335.64l-293.2,174.5,462.8-22.16" fill="none" stroke="#fff" stroke-width="0.74"/>
          <line id="Línea_147" data-name="Línea 147" x1="119.64" y1="197.36" transform="translate(-22.98 716.5)" fill="none" stroke="#fff" stroke-width="0.74"/>
          <path id="Trazado_2600" data-name="Trazado 2600" d="M862.51,101.58l22.36,216.05,113.07-54.01" fill="none" stroke="#fff" stroke-width="0.74"/>
          <path id="Trazado_2601" data-name="Trazado 2601" d="M1099.95,355.12,968.77,462.6,674.5,508.76" fill="none" stroke="#fff" stroke-width="0.74"/>
          <path id="Trazado_2602" data-name="Trazado 2602" d="M175.22-33.84,437.85-9.22,43.42,107.12" fill="none" stroke="#fff" stroke-width="0.74"/>
          <path id="Trazado_2603" data-name="Trazado 2603" d="M1193.88,699.73l-174.9,158.65L732.35,946.4" fill="none" stroke="#fff" stroke-width="0.74"/>
          <ellipse id="Elipse_114" data-name="Elipse 114" cx="6.48" cy="6.82" rx="6.48" ry="6.82" transform="translate(1187.4 693.33)" fill="#fff"/>
          <ellipse id="Elipse_115" data-name="Elipse 115" cx="6.48" cy="6.82" rx="6.48" ry="6.82" transform="translate(975.65 632.35)" fill="#fff"/>
          <path id="Trazado_2604" data-name="Trazado 2604" d="M1093.47,356a6.49,6.49,0,1,1,6.48,6.82,6.66,6.66,0,0,1-6.48-6.82Z" fill="#fff"/>
          <path id="Trazado_2605" data-name="Trazado 2605" d="M989.83,263a6.48,6.48,0,1,1,6.47,6.83,6.65,6.65,0,0,1-6.47-6.83Z" fill="#fff"/>
          <path id="Trazado_2606" data-name="Trazado 2606" d="M878.08,315.89a6.49,6.49,0,1,1,6.48,6.82A6.66,6.66,0,0,1,878.08,315.89Z" fill="#fff"/>
          <path id="Trazado_2607" data-name="Trazado 2607" d="M537.18,185.38a6.48,6.48,0,1,1,6.47,6.82A6.65,6.65,0,0,1,537.18,185.38Z" fill="#fff"/>
          <path id="Trazado_2608" data-name="Trazado 2608" d="M406.6,400.33a6.49,6.49,0,1,1,6.48,6.83,6.65,6.65,0,0,1-6.48-6.83Z" fill="#fff"/>
          <path id="Trazado_2609" data-name="Trazado 2609" d="M207.81,336.14a6.48,6.48,0,1,1,6.48,6.83,6.66,6.66,0,0,1-6.48-6.83Z" fill="#fff"/>
          <path id="Trazado_2610" data-name="Trazado 2610" d="M478.87,106.48a6.49,6.49,0,1,1,6.48,6.82,6.65,6.65,0,0,1-6.48-6.82Z" fill="#fff"/>
          <path id="Trazado_2611" data-name="Trazado 2611" d="M855.81,102.21a6.49,6.49,0,1,1,6.48,6.83,6.66,6.66,0,0,1-6.48-6.83Z" fill="#fff"/>
          <path id="Trazado_2612" data-name="Trazado 2612" d="M654.18,40.16A6.49,6.49,0,1,1,660.66,47a6.65,6.65,0,0,1-6.48-6.84Z" fill="#fff"/>
          <ellipse id="Elipse_116" data-name="Elipse 116" cx="6.48" cy="6.82" rx="6.48" ry="6.82" transform="translate(38.37 99.23)" fill="#fff"/>
          <path id="Trazado_2613" data-name="Trazado 2613" d="M172.58,122.05a6.49,6.49,0,1,1,6.48,6.82A6.67,6.67,0,0,1,172.58,122.05Z" fill="#fff"/>
          <path id="Trazado_2614" data-name="Trazado 2614" d="M-11.43,249.35a6.66,6.66,0,0,1,6.48-6.82,6.66,6.66,0,0,1,6.47,6.82,6.66,6.66,0,0,1-6.47,6.83A6.66,6.66,0,0,1-11.43,249.35Z" fill="#fff"/>
          <path id="Trazado_2615" data-name="Trazado 2615" d="M593.66,659.64a6.48,6.48,0,1,1,6.47,6.82,6.66,6.66,0,0,1-6.47-6.82Z" fill="#fff"/>
          <path id="Trazado_2616" data-name="Trazado 2616" d="M797.71,576.05a6.49,6.49,0,1,1,6.48,6.82,6.66,6.66,0,0,1-6.48-6.82Z" fill="#fff"/>
          <path id="Trazado_2617" data-name="Trazado 2617" d="M667.75,508.66a6.48,6.48,0,1,1,6.48,6.82,6.65,6.65,0,0,1-6.48-6.82Z" fill="#fff"/>
          <path id="Trazado_2618" data-name="Trazado 2618" d="M962.29,463.45a6.49,6.49,0,1,1,6.48,6.83,6.65,6.65,0,0,1-6.48-6.83Z" fill="#fff"/>
          <path id="Trazado_2619" data-name="Trazado 2619" d="M328.26,589.69a6.49,6.49,0,1,1,6.48,6.83,6.65,6.65,0,0,1-6.48-6.83Z" fill="#fff"/>
          <ellipse id="Elipse_117" data-name="Elipse 117" cx="6.48" cy="6.82" rx="6.48" ry="6.82" transform="translate(376.03 480.52)" fill="#fff"/>
          <path id="Trazado_2620" data-name="Trazado 2620" d="M355.79,729.58a6.49,6.49,0,1,1,6.48,6.83,6.65,6.65,0,0,1-6.48-6.83Z" fill="#fff"/>
          <path id="Trazado_2621" data-name="Trazado 2621" d="M44.85,106.05l135.3,14.92,34.19,214.67" fill="none" stroke="#fff" stroke-width="0.74"/>
          <line id="Línea_148" data-name="Línea 148" x1="29.48" y1="139.27" transform="translate(334.74 589.69)" fill="none" stroke="#fff" stroke-width="0.74"/>
        </g>
      </g>
    </g>
  </g>
</svg>
