<svg xmlns="http://www.w3.org/2000/svg" xmlns:xlink="http://www.w3.org/1999/xlink" width="200" height="200" viewBox="0 0 200 200">
  <defs>
    <filter id="Elipse_124" x="0" y="0" width="200" height="200" filterUnits="userSpaceOnUse">
      <feOffset input="SourceAlpha"/>
      <feGaussianBlur stdDeviation="10" result="blur"/>
      <feFlood flood-color="#3d408f" flood-opacity="0.2"/>
      <feComposite operator="in" in2="blur"/>
      <feComposite in="SourceGraphic"/>
    </filter>
    <linearGradient id="linear-gradient" x1="0.5" x2="0.5" y2="1" gradientUnits="objectBoundingBox">
      <stop offset="0" stop-color="#ff6d5c"/>
      <stop offset="1" stop-color="#f86453"/>
    </linearGradient>
  </defs>
  <g id="Grupo_3000" data-name="Grupo 3000" transform="translate(-1130 -3311)">
    <g transform="matrix(1, 0, 0, 1, 1130, 3311)" filter="url(#Elipse_124)">
      <circle id="Elipse_124-2" data-name="Elipse 124" cx="70" cy="70" r="70" transform="translate(30 30)" fill="#fff"/>
    </g>
    <g id="Seguridad" transform="translate(1190.004 3367.01)">
      <path id="Trazado_2983" data-name="Trazado 2983" d="M61.665-.008c1.648.659,2.305,1.928,2.7,3.642,1.371,5.939,5.427,9.148,11.16,10.495.613.143,1.248.185,1.861.324a3.092,3.092,0,0,1,2.541,2.975c0,6.434.255,12.874-.213,19.3-.069.954-.6,1.463-1.392,1.4S77.116,37.456,77.2,36.5c.541-6.169.175-12.35.282-18.525a.987.987,0,0,0-.992-1.141,17.685,17.685,0,0,1-8.406-3.251A15.111,15.111,0,0,1,61.8,3.67,1.181,1.181,0,0,0,60.433,2.5q-20.479.028-40.956,0a1.12,1.12,0,0,0-1.295,1.036c-1.467,7.24-6.118,11.287-13.068,13a17.412,17.412,0,0,1-1.777.309.887.887,0,0,0-.855.992c.095,6.175-.259,12.356.265,18.525.091,1.069-.28,1.735-1.088,1.832S.329,37.7.232,36.639C.045,34.551,0,32.454,0,30.355Q0,24.276,0,18.2c0-2.425,1.051-3.571,3.425-3.905A14.513,14.513,0,0,0,13.54,8.409a10.563,10.563,0,0,0,2.074-4.773A4.159,4.159,0,0,1,18.3-.01H61.665Z" fill="url(#linear-gradient)"/>
      <path id="Trazado_2984" data-name="Trazado 2984" d="M44.493,247.023c-11.754-5.507-21.739-13.16-29.066-24.04A60.016,60.016,0,0,1,6.7,203.077a1.571,1.571,0,0,1,.229-1.621,1.258,1.258,0,0,1,2.137.771,62.369,62.369,0,0,0,1.952,6.6A61.036,61.036,0,0,0,33.991,238.17a92.864,92.864,0,0,0,10.556,6.116,1.248,1.248,0,0,0,1.221.025c10.88-5.278,20.154-12.48,27-22.6a57.433,57.433,0,0,0,8.388-18.935c.053-.223.1-.448.171-.667a1.209,1.209,0,0,1,1.438-.933,1.176,1.176,0,0,1,.968,1.476c-.217,1.095-.5,2.181-.815,3.253-4.339,14.7-13.162,26.087-25.68,34.712a84.745,84.745,0,0,1-11.364,6.4H44.493Z" transform="translate(-5.199 -158.752)" fill="url(#linear-gradient)"/>
      <path id="Trazado_2985" data-name="Trazado 2985" d="M62.974,27.635c5.046,0,10.093.034,15.139-.017A4.415,4.415,0,0,1,82.494,30.3,21.2,21.2,0,0,0,93.52,40.577a4.79,4.79,0,0,1,3.335,5.089c-.124,3.815.078,7.638-.276,11.453a52.654,52.654,0,0,1-6.423,20.815,60.535,60.535,0,0,1-25.114,24.312,4.026,4.026,0,0,1-4.025.046A60.658,60.658,0,0,1,36.07,78.4a53.074,53.074,0,0,1-6.935-26.251c-.011-2.356.013-4.712-.006-7.067a4.2,4.2,0,0,1,2.836-4.265,22.064,22.064,0,0,0,11.665-10.8,4.046,4.046,0,0,1,3.943-2.385c5.133.019,10.265.006,15.4.006ZM94.307,50.743c0-1.867-.038-3.737.015-5.6a1.9,1.9,0,0,0-1.341-2.032A24.41,24.41,0,0,1,80.143,31.214,1.793,1.793,0,0,0,78.37,30.12q-15.4.013-30.8,0a1.732,1.732,0,0,0-1.716,1.04,24.578,24.578,0,0,1-12.967,12,1.754,1.754,0,0,0-1.238,1.83c.032,2.615-.006,5.23.019,7.844A48.75,48.75,0,0,0,35.074,70.4C40.325,83.71,49.666,93.285,62.1,100.024a1.755,1.755,0,0,0,1.8-.011c1.59-.857,3.168-1.737,4.67-2.741C85.111,86.19,94.214,70.967,94.307,50.741Z" transform="translate(-23 -21.812)" fill="url(#linear-gradient)"/>
      <path id="Trazado_2986" data-name="Trazado 2986" d="M121.48,106.416q-6.84,0-13.678,0c-3,0-4.545-1.558-4.545-4.575q0-8.492,0-16.981c0-2.834,1.587-4.411,4.43-4.415,1.606,0,1.577,0,1.613-1.623.055-2.377-.219-4.769.314-7.129a12.226,12.226,0,0,1,24.129,1.92c.114,2.006.069,4.021.044,6.032-.008.644.177.857.825.815a8.272,8.272,0,0,1,2.055.072,3.864,3.864,0,0,1,3.177,3.867q.066,9.006,0,18.015a3.931,3.931,0,0,1-4.255,4c-4.7.019-9.406.006-14.11.006Zm.053-2.512h13.842c1.476,0,1.964-.488,1.966-1.954q0-8.53,0-17.057c0-1.474-.474-1.945-1.968-1.947q-13.8-.006-27.6,0c-1.547,0-2.013.457-2.013,1.994q-.006,8.485,0,16.971c0,1.531.476,1.994,2.015,1.994Q114.655,103.908,121.533,103.9Zm.061-23.464c2.981,0,5.96-.015,8.941.013.581,0,.8-.128.783-.754-.042-1.808.008-3.617-.021-5.425a9.768,9.768,0,0,0-8.7-9.531,9.66,9.66,0,0,0-10.59,7.878c-.425,2.328-.091,4.7-.2,7.049-.032.693.246.789.846.785,2.981-.027,5.96-.013,8.941-.013Z" transform="translate(-81.521 -49.082)" fill="url(#linear-gradient)"/>
      <path id="Trazado_2987" data-name="Trazado 2987" d="M177.861,197.851a8.84,8.84,0,0,1,.006-.945,1.61,1.61,0,0,0-.7-1.585,2.85,2.85,0,0,1-.154-4.2,2.93,2.93,0,0,1,4.164-.029,2.87,2.87,0,0,1-.1,4.208,1.794,1.794,0,0,0-.716,1.672c.044.773.032,1.549,0,2.322a1.294,1.294,0,0,1-1.244,1.375c-.731.006-1.234-.564-1.257-1.44-.013-.459,0-.918,0-1.377Z" transform="translate(-139.083 -150.192)" fill="url(#linear-gradient)"/>
    </g>
  </g>
</svg>
