<svg xmlns="http://www.w3.org/2000/svg" width="68.5" height="68.635" viewBox="0 0 68.5 68.635">
  <g id="icon" transform="translate(-0.19 -0.24)">
    <path id="Trazado_1477" data-name="Trazado 1477" d="M.19,34.511A34.25,34.25,0,1,1,34.408,68.875,34.322,34.322,0,0,1,.19,34.511Zm60.079.1A25.839,25.839,0,1,0,34.923,60.444,25.832,25.832,0,0,0,60.269,34.61ZM6.428,19.88A31.215,31.215,0,0,0,2.882,33.205H5.968A29.362,29.362,0,0,1,9.131,21.449C8.22,20.922,7.371,20.428,6.428,19.88ZM5.971,35.936h-3.1A31.132,31.132,0,0,0,6.439,49.23l2.692-1.557A29.466,29.466,0,0,1,5.971,35.936ZM49.088,6.5a31.035,31.035,0,0,0-13.3-3.559v3.1A29.174,29.174,0,0,1,47.522,9.2C48.051,8.289,48.542,7.438,49.088,6.5ZM62.443,19.885l-2.7,1.564A29.247,29.247,0,0,1,62.9,33.184H66A31.3,31.3,0,0,0,62.443,19.885Zm0,29.348A31.07,31.07,0,0,0,66,35.918H62.9a29.394,29.394,0,0,1-3.151,11.752C60.675,48.208,61.522,48.7,62.441,49.233ZM33.072,66.091V63.238c-2.075-.387-4.1-.636-6.049-1.162s-3.8-1.325-5.748-2.024c-.466.808-.954,1.656-1.437,2.5C22.548,64.429,30.18,66.463,33.072,66.091ZM33.1,2.929a30.877,30.877,0,0,0-13.31,3.585L21.366,9.2A29.291,29.291,0,0,1,33.1,6.029Zm2.672,63.256a31.038,31.038,0,0,0,13.306-3.575c-.539-.934-1.04-1.8-1.56-2.7a28.868,28.868,0,0,1-11.746,3.173ZM49.814,10.523a28.893,28.893,0,0,1,8.608,8.636c.932-.537,1.8-1.04,2.7-1.56a31.905,31.905,0,0,0-9.757-9.77C50.832,8.755,50.343,9.608,49.814,10.523ZM10.452,19.156a28.932,28.932,0,0,1,8.614-8.633c-.537-.93-1.038-1.8-1.557-2.7A31.991,31.991,0,0,0,7.764,17.6Zm8.614,39.436a29.1,29.1,0,0,1-8.616-8.629l-2.7,1.564a31.931,31.931,0,0,0,9.763,9.757C18.054,60.351,18.544,59.5,19.066,58.592Zm39.358-8.633a29.332,29.332,0,0,1-8.605,8.648c.539.934,1.031,1.787,1.549,2.683a31.884,31.884,0,0,0,9.75-9.77C60.211,51,59.358,50.5,58.424,49.959Z" transform="translate(0 0)" fill="#fff"/>
    <path id="Trazado_1478" data-name="Trazado 1478" d="M118.88,75.472c-.831,0-1.661.011-2.492,0a1.25,1.25,0,0,1-1.431-1.2,2.723,2.723,0,0,0-1.186-1.832,8.776,8.776,0,0,0-9.473.021c-1.467,1.1-1.493,2.275-.045,3.39a6.919,6.919,0,0,0,4.036,1.4,20.2,20.2,0,0,1,6.777,1.126c3.637,1.446,6.438,3.753,7.506,7.686,1.042,3.843-.567,7.826-4.084,10.412a14.1,14.1,0,0,1-4.829,2.3c-.483.127-.668.32-.64.816a16.216,16.216,0,0,1,0,1.77,1.309,1.309,0,0,1-1.4,1.426q-2.529.048-5.063,0c-.941-.015-1.4-.511-1.437-1.476-.024-.589-.028-1.181,0-1.77.021-.453-.137-.64-.593-.767a13.407,13.407,0,0,1-6.874-4.225,9.663,9.663,0,0,1-2.337-5.785c-.067-1.166.419-1.712,1.575-1.719q2.372-.013,4.741,0c1.016.006,1.3.344,1.615,1.313a3.646,3.646,0,0,0,1.044,1.628c2.43,1.993,7.192,1.955,9.645,0,1.347-1.074,1.373-2.157.039-3.237a6.787,6.787,0,0,0-4.088-1.469,20.55,20.55,0,0,1-6.78-1.119c-3.641-1.437-6.474-3.729-7.525-7.665-1.005-3.764.266-6.919,2.992-9.544a13.356,13.356,0,0,1,5.869-3.19c.513-.14.713-.344.677-.868a15.306,15.306,0,0,1,0-1.691,1.327,1.327,0,0,1,1.446-1.465q2.491-.039,4.984,0a1.332,1.332,0,0,1,1.478,1.437c.047.795-.2,1.783.191,2.333.361.513,1.394.526,2.105.825,3.673,1.545,6.386,3.985,7.317,8.036a8.458,8.458,0,0,1,.189,1.6,1.318,1.318,0,0,1-1.454,1.517C120.54,75.485,119.709,75.472,118.88,75.472ZM107.885,62.414c-.06.071-.092.09-.092.112-.013.644-.013,1.287-.034,1.931a1.381,1.381,0,0,1-1.244,1.514,10.653,10.653,0,0,0-1.86.483,18.9,18.9,0,0,0-3.418,1.731c-4.537,3.252-4.425,8.951.17,12.118a13.742,13.742,0,0,0,6.934,2.26,29.3,29.3,0,0,1,4.58.681,7.206,7.206,0,0,1,2.417,1.227c3.031,2.167,3.031,5.589-.009,7.742a10.642,10.642,0,0,1-8.429,1.673c-2.533-.477-4.745-1.51-6.01-3.961a.591.591,0,0,0-.425-.26c-.763-.026-1.529-.013-2.369-.013a7.29,7.29,0,0,0,2.09,3.753,11.459,11.459,0,0,0,5.92,3.027c1.42.3,1.652.6,1.654,2.075v1.564H110.3a1.058,1.058,0,0,0,.054-.213c.006-.563,0-1.128.013-1.691.015-1.044.359-1.345,1.358-1.673a25.391,25.391,0,0,0,4.533-1.755,7.25,7.25,0,0,0,3.892-5.514c.393-3.083-1.063-5.334-3.471-7.039a13.215,13.215,0,0,0-7.74-2.253,10.542,10.542,0,0,1-6-1.768,5.6,5.6,0,0,1-2.174-2.623c-.7-1.856.082-3.892,2.06-5.274a10.641,10.641,0,0,1,8.122-1.7c2.616.436,4.936,1.446,6.266,3.978a.669.669,0,0,0,.481.294c.745.032,1.491.013,2.241.013a5.98,5.98,0,0,0-1.587-3.312,11.123,11.123,0,0,0-6.135-3.428c-1.686-.376-1.852-.55-1.852-2.314V62.416C109.49,62.414,108.7,62.414,107.885,62.414Z" transform="translate(-74.629 -46.694)" fill="#fff"/>
  </g>
</svg>
