<svg xmlns="http://www.w3.org/2000/svg" width="32" height="32" viewBox="0 0 32 32">
  <g id="Grupo_2678" data-name="Grupo 2678" transform="translate(-1250 -8680)">
    <path id="Icon_awesome-linkedin-in" data-name="Icon awesome-linkedin-in" d="M3.2,14.312H.236V4.757H3.2ZM1.718,3.454A1.726,1.726,0,1,1,3.437,1.719,1.733,1.733,0,0,1,1.718,3.454Zm12.59,10.858H11.347V9.66c0-1.108-.022-2.53-1.543-2.53-1.543,0-1.779,1.2-1.779,2.45v4.731H5.062V4.757H7.908v1.3h.042a3.118,3.118,0,0,1,2.807-1.543c3,0,3.555,1.977,3.555,4.546v5.249Z" transform="translate(1259 8688.999)" fill="#fff"/>
    <g id="Elipse_85" data-name="Elipse 85" transform="translate(1250 8680)" fill="none" stroke="#fff" stroke-width="1.5">
      <circle cx="16" cy="16" r="16" stroke="none"/>
      <circle cx="16" cy="16" r="15.25" fill="none"/>
    </g>
  </g>
</svg>
