<svg xmlns="http://www.w3.org/2000/svg" width="32" height="32" viewBox="0 0 32 32">
  <g id="Grupo_2680" data-name="Grupo 2680" transform="translate(-1290.058 -7454.646)">
    <g id="Elipse_52" data-name="Elipse 52" transform="translate(1290.058 7454.646)" fill="none" stroke="#fff" stroke-width="1.5">
      <circle cx="16" cy="16" r="16" stroke="none"/>
      <circle cx="16" cy="16" r="15.25" fill="none"/>
    </g>
    <path id="Icon_ionic-logo-twitter" data-name="Icon ionic-logo-twitter" d="M18.725,6.169a7.18,7.18,0,0,1-2.04.561,3.564,3.564,0,0,0,1.563-1.966,7.057,7.057,0,0,1-2.256.862A3.551,3.551,0,0,0,9.847,8.055a3.477,3.477,0,0,0,.092.811A10.065,10.065,0,0,1,2.617,5.149,3.559,3.559,0,0,0,3.721,9.9a3.469,3.469,0,0,1-1.614-.444V9.5a3.555,3.555,0,0,0,2.85,3.485,3.575,3.575,0,0,1-.935.125,3.351,3.351,0,0,1-.668-.066,3.557,3.557,0,0,0,3.32,2.469,7.121,7.121,0,0,1-4.413,1.522,7.2,7.2,0,0,1-.847-.051A9.927,9.927,0,0,0,6.85,18.587,10.045,10.045,0,0,0,16.964,8.469c0-.154,0-.308-.011-.459A7.23,7.23,0,0,0,18.725,6.169Z" transform="translate(1296.262 7459.693)" fill="#fff"/>
  </g>
</svg>
